<svg width="56" height="56" viewBox="0 0 56 56" fill="none" xmlns="http://www.w3.org/2000/svg">
<rect width="56" height="56" rx="12" fill="white"/>
<path d="M30.0339 25.2526L40.7175 14.6303L36.6645 10.6006L28.0074 19.208L19.3502 10.6006L15.2972 14.6303L25.9809 25.2526C26.5405 25.809 27.274 26.0872 28.0074 26.0872C28.7407 26.0872 29.4742 25.8091 30.0339 25.2526ZM45.5 36.6001L36.8428 27.9928L45.5 19.3853L41.447 15.3556L30.7634 25.978C29.6442 27.0908 29.6442 28.8948 30.7634 30.0076L41.447 40.63L45.5 36.6001ZM27.9926 36.7923L36.6496 45.3997L40.7026 41.37L30.019 30.7477C28.8997 29.635 27.0852 29.635 25.966 30.7477L15.2824 41.37L19.3353 45.3997L27.9926 36.7923ZM25.2366 30.0224C25.774 29.4881 26.076 28.7633 26.076 28.0075C26.076 27.2519 25.774 26.5271 25.2366 25.9928L14.553 15.3704L10.5 19.4002L19.1572 28.0075L10.5 36.615L14.553 40.6448L25.2366 30.0224Z" fill="black"/>
</svg>
