<svg width="56" height="56" viewBox="0 0 56 56" fill="none" xmlns="http://www.w3.org/2000/svg">
<rect width="56" height="56" rx="12" fill="#F9F9F9"/>
<g clip-path="url(#clip0_9772_10115)">
<path d="M43.9316 16.6866C43.576 15.3146 42.4322 13.9426 40.3728 12.4152C38.7208 11.1986 36.9666 10.5 35.568 10.5C35.288 10.5 35.0346 10.5252 34.7798 10.577C34.1442 10.7058 33.5856 11.172 33.2286 11.872C32.796 12.7008 32.6952 13.8138 32.9738 14.4872C33.076 14.6944 33.202 14.9534 33.3546 15.1858C32.0078 16.0146 31.2448 16.247 31.1426 16.2736C34.651 17.465 37.5742 19.95 39.4054 23.1854L39.4306 22.8746C39.5062 22.0206 39.761 21.0364 40.1166 20.027C40.4722 20.1306 40.8278 20.1824 41.1848 20.1824C42.1256 20.1824 42.939 19.7946 43.4472 19.0946C43.9582 18.396 44.1612 17.4636 43.9316 16.6866Z" fill="#602F92"/>
<path d="M40.2717 19.2767C42.5845 19.9235 43.5253 18.1119 43.2201 16.8953C42.8897 15.6787 41.8215 14.4355 39.9413 13.0383C38.0597 11.6397 36.1529 11.0713 34.9335 11.3303C33.7127 11.5893 33.3571 13.4793 33.6623 14.2045C33.7897 14.4887 34.0697 14.9031 34.4505 15.3693C33.9675 15.7053 33.5097 15.9643 33.1289 16.1981C35.4683 17.2593 37.5011 18.9169 39.0271 20.9875C39.2049 20.2889 39.4597 19.6673 39.6879 19.1241C39.8643 19.1465 40.0673 19.1983 40.2717 19.2767Z" fill="url(#paint0_radial_9772_10115)"/>
<path d="M27.0259 44.6458C34.8743 44.6458 41.2373 38.1666 41.2373 30.174C41.2373 22.1814 34.8743 15.7036 27.0259 15.7036C19.1775 15.7036 12.8145 22.1828 12.8145 30.1754C12.8145 38.168 19.1775 44.6458 27.0259 44.6458Z" fill="url(#paint1_radial_9772_10115)"/>
<path opacity="0.6" d="M42.0521 15.7037C40.1201 13.6331 38.4933 13.0885 36.5361 12.6489C35.0101 12.2863 35.4175 11.4057 37.2739 11.5877C36.3835 11.2769 35.5449 11.1999 34.9345 11.3287C33.7137 11.5877 33.3581 13.4777 33.6633 14.2029C33.7907 14.4871 34.0707 14.9015 34.4515 15.3677C33.7655 15.8339 33.1803 16.1699 32.6973 16.4289C32.9255 16.5325 33.2055 16.6613 33.5359 16.8433C34.3997 17.3095 35.3405 18.0865 35.3405 18.0865C33.9167 16.8433 34.2219 16.2749 36.1791 14.8763C36.7895 14.4367 37.9081 14.4885 38.9497 15.0317C39.9913 15.5749 41.2121 16.9469 41.2121 16.9469L40.0431 19.2247C40.1187 19.2513 40.1957 19.2765 40.2713 19.3031C41.0091 19.5103 41.5929 19.4585 42.0507 19.2765C42.5855 18.9391 43.9841 17.7995 42.0521 15.7037Z" fill="#A98798"/>
<path d="M36.5078 13.8907C37.016 14.0979 37.6768 14.4605 38.4902 15.0037C39.4562 15.6505 40.2948 16.3757 40.8296 16.9455C39.9392 18.1369 39.3554 19.7679 38.9998 20.9061C39.1776 21.1651 39.3806 21.4241 39.5598 21.6831C39.7376 21.0363 40.0428 20.0773 40.4502 19.1197C40.5524 19.1463 40.6784 19.1463 40.8058 19.1463C41.111 19.1463 41.4666 19.0945 41.7466 18.8621C41.9496 18.7067 42.1792 18.4225 42.154 17.9045C42.154 17.4131 41.7732 16.7915 40.985 16.0411C40.425 15.4979 39.6634 14.9015 38.9004 14.3583C36.7136 12.8827 35.189 12.4683 34.503 13.1669C34.0452 13.6331 34.0956 14.2029 34.2482 14.6173C33.4348 15.1605 32.7488 15.5497 32.291 15.8087C32.5962 15.9123 32.8762 16.0411 33.1814 16.1713C33.9906 15.7289 35.161 14.9785 36.5078 13.8907ZM41.3126 17.5937C41.3882 17.7225 41.4148 17.8527 41.4148 17.9297C41.4148 18.1621 41.3392 18.2405 41.2874 18.2923C41.1852 18.3693 40.9822 18.4211 40.8044 18.4211C40.957 18.1103 41.1348 17.8513 41.3126 17.5937ZM35.0336 13.7353C35.1092 13.6583 35.3136 13.6065 35.644 13.6583C35.3892 13.8655 35.1358 14.0461 34.881 14.2281C34.8558 14.0461 34.881 13.8655 35.0336 13.7353Z" fill="#602F92"/>
<path d="M27.0266 14.8486C18.7134 14.8486 11.9766 21.7086 11.9766 30.1744C11.9766 38.6402 18.7134 45.5002 27.0266 45.5002C35.3398 45.5002 42.0766 38.6402 42.0766 30.1744C42.0766 21.71 35.3146 14.8486 27.0266 14.8486ZM27.0266 44.6462C19.1712 44.6462 12.8152 38.174 12.8152 30.1744C12.8152 22.1748 19.1712 15.7026 27.0266 15.7026C34.882 15.7026 41.238 22.1748 41.238 30.1744C41.2366 38.174 34.8568 44.6462 27.0266 44.6462Z" fill="#602F92"/>
<path opacity="0.6" d="M27.0259 44.6458C34.8743 44.6458 41.2373 38.1666 41.2373 30.174C41.2373 22.1814 34.8743 15.7036 27.0259 15.7036C19.1775 15.7036 12.8145 22.1828 12.8145 30.1754C12.8145 38.168 19.1775 44.6458 27.0259 44.6458Z" fill="url(#paint2_linear_9772_10115)"/>
<path opacity="0.6" d="M26.9246 42.8848C19.1714 41.6164 13.9088 34.1866 15.18 26.2906C15.74 22.7962 17.4676 19.8184 19.9092 17.6694C16.349 19.768 13.7058 23.4178 12.9932 27.8712C11.7472 35.7672 17.0098 43.197 24.7378 44.4654C29.0596 45.1906 33.2288 43.8186 36.3046 41.1264C33.5858 42.7294 30.2804 43.4294 26.9246 42.8848Z" fill="#A98798"/>
<path opacity="0.6" d="M29.2882 15.9108C25.7042 15.3158 22.221 16.1432 19.3734 17.9814C19.323 18.0332 19.2712 18.085 19.2712 18.085C20.3646 17.4116 21.9662 16.8166 21.9662 16.8166C17.8474 19.2498 16.5762 22.0204 16.5762 22.0204C18.1778 18.862 22.8804 16.636 26.5666 16.4806C30.2528 16.3252 32.6678 17.4382 35.6162 19.8462C38.5646 22.2794 40.3454 27.2494 40.1662 31.1848C40.0136 35.1202 37.9794 38.3038 37.9794 38.3038C39.378 36.4656 40.2166 35.1202 40.75 33.7482C40.8522 33.3338 40.953 32.9194 41.0048 32.4798C42.2788 24.609 37.0414 17.1792 29.2882 15.9108Z" fill="url(#paint3_linear_9772_10115)"/>
<path d="M40.5248 30.0454C40.5248 37.6306 34.474 43.792 27.026 43.792C19.578 43.792 13.502 37.6306 13.502 30.0454H40.5248Z" fill="url(#paint4_linear_9772_10115)"/>
<g opacity="0.6">
<path opacity="0.6" d="M39.4576 30.0454C39.4576 37.4486 33.712 43.5064 26.4922 43.792C26.67 43.792 26.8478 43.792 27.0256 43.792C34.4736 43.792 40.5244 37.6306 40.5244 30.0454H39.4576Z" fill="url(#paint5_linear_9772_10115)"/>
</g>
<g opacity="0.7">
<path opacity="0.7" d="M15.4088 30.0454H13.502C13.502 37.6306 19.5528 43.792 27.0008 43.792C27.3312 43.792 27.6364 43.792 27.9416 43.7654C20.95 43.2474 15.4088 37.2932 15.4088 30.0454Z" fill="url(#paint6_linear_9772_10115)"/>
</g>
<path d="M40.4996 30.1743C40.4996 28.5951 37.8046 27.6893 34.2206 27.3785C31.6278 27.1713 29.0098 27.4303 26.0096 28.3627C23.4168 29.1397 21.0774 29.0095 19.375 28.8023C15.5866 28.3627 13.502 28.3109 13.502 30.1743C13.502 32.8665 18.892 36.2321 26.9756 35.0673C31.0692 34.4723 33.179 33.2557 35.594 32.4269C38.212 31.5463 40.4996 31.5729 40.4996 30.1743Z" fill="url(#paint7_linear_9772_10115)"/>
<path d="M31.4497 23.6504C32.7139 23.6504 33.7373 22.6074 33.7373 21.3208C33.7373 20.0342 32.7125 18.9912 31.4497 18.9912C30.1869 18.9912 29.1621 20.0342 29.1621 21.3208C29.1621 22.6074 30.1869 23.6504 31.4497 23.6504Z" fill="white"/>
<path d="M35.1867 25.3849C35.7201 25.3849 36.1527 24.9439 36.1527 24.4007C36.1527 23.8575 35.7201 23.4165 35.1867 23.4165C34.6533 23.4165 34.2207 23.8575 34.2207 24.4007C34.2207 24.9453 34.6533 25.3849 35.1867 25.3849Z" fill="white"/>
<g opacity="0.6">
<path opacity="0.6" d="M38.6441 19.457C38.6189 19.457 38.5937 19.457 38.5937 19.457C38.4411 19.4304 38.3389 19.2764 38.3655 19.0944C38.5937 17.903 39.5597 16.7648 39.6115 16.713C39.7137 16.5842 39.9167 16.5842 40.0189 16.6864C40.1463 16.79 40.1463 16.9972 40.0441 17.1008C40.0189 17.126 39.1285 18.1886 38.9255 19.2232C38.8989 19.3786 38.7715 19.457 38.6441 19.457Z" fill="url(#paint8_linear_9772_10115)"/>
</g>
<path opacity="0.2" d="M26.0862 40.9694C26.4796 40.9694 26.7974 40.6446 26.7974 40.2442C26.7974 39.8438 26.4782 39.519 26.0862 39.519C25.6928 39.519 25.375 39.8438 25.375 40.2442C25.375 40.6446 25.6928 40.9694 26.0862 40.9694Z" fill="white"/>
<g opacity="0.4">
<path opacity="0.6" d="M25.6794 40.7122C25.3994 40.428 25.3994 39.9618 25.6794 39.6762C25.7298 39.6244 25.7816 39.5992 25.832 39.5474C25.7298 39.574 25.6542 39.6244 25.5772 39.7028C25.2972 39.987 25.2972 40.4532 25.5772 40.7388C25.8054 40.9712 26.1624 41.023 26.441 40.8676C26.1876 40.9712 25.8824 40.9194 25.6794 40.7122Z" fill="url(#paint9_linear_9772_10115)"/>
</g>
<path opacity="0.3" d="M26.3401 40.0374C26.4241 40.0374 26.4927 39.9674 26.4927 39.882C26.4927 39.7966 26.4241 39.7266 26.3401 39.7266C26.2561 39.7266 26.1875 39.7966 26.1875 39.882C26.1875 39.9688 26.2547 40.0374 26.3401 40.0374Z" fill="white"/>
<path opacity="0.2" d="M29.7991 40.6071C30.1925 40.6071 30.5103 40.2823 30.5103 39.8819C30.5103 39.4815 30.1911 39.1567 29.7991 39.1567C29.4057 39.1567 29.0879 39.4815 29.0879 39.8819C29.0879 40.2823 29.4071 40.6071 29.7991 40.6071Z" fill="white"/>
<g opacity="0.4">
<path opacity="0.6" d="M29.3903 40.3494C29.1103 40.0652 29.1103 39.599 29.3903 39.3134C29.4407 39.2616 29.4925 39.2364 29.5429 39.1846C29.4407 39.2112 29.3651 39.2616 29.2881 39.34C29.0081 39.6242 29.0081 40.0904 29.2881 40.376C29.5163 40.6084 29.8733 40.6602 30.1519 40.5048C29.8985 40.6084 29.5933 40.5566 29.3903 40.3494Z" fill="url(#paint10_linear_9772_10115)"/>
</g>
<path opacity="0.3" d="M30.051 39.676C30.135 39.676 30.2036 39.606 30.2036 39.5206C30.2036 39.4352 30.135 39.3652 30.051 39.3652C29.967 39.3652 29.8984 39.4352 29.8984 39.5206C29.8984 39.606 29.967 39.676 30.051 39.676Z" fill="white"/>
<path opacity="0.2" d="M27.967 42.29C28.2624 42.29 28.5004 42.0464 28.5004 41.7468C28.5004 41.4472 28.261 41.2036 27.967 41.2036C27.6716 41.2036 27.4336 41.4472 27.4336 41.7468C27.4336 42.0464 27.6716 42.29 27.967 42.29Z" fill="white"/>
<g opacity="0.4">
<path opacity="0.6" d="M27.6614 42.0839C27.4584 41.8767 27.4584 41.5141 27.6614 41.3069C27.6866 41.2803 27.737 41.2551 27.7636 41.2285C27.688 41.2551 27.6362 41.3069 27.5858 41.3573C27.3828 41.5645 27.3828 41.9271 27.5858 42.1343C27.7636 42.3149 28.0184 42.3415 28.2466 42.2127C28.0422 42.2911 27.814 42.2393 27.6614 42.0839Z" fill="url(#paint11_linear_9772_10115)"/>
</g>
<path opacity="0.3" d="M28.1452 41.5646C28.2012 41.5646 28.2474 41.5184 28.2474 41.461C28.2474 41.4036 28.2012 41.3574 28.1452 41.3574C28.0892 41.3574 28.043 41.4036 28.043 41.461C28.043 41.5184 28.0892 41.5646 28.1452 41.5646Z" fill="white"/>
<path opacity="0.2" d="M31.2463 41.9018C31.5417 41.9018 31.7797 41.6582 31.7797 41.3586C31.7797 41.059 31.5403 40.8154 31.2463 40.8154C30.9523 40.8154 30.7129 41.059 30.7129 41.3586C30.7129 41.6582 30.9523 41.9018 31.2463 41.9018Z" fill="white"/>
<g opacity="0.4">
<path opacity="0.6" d="M30.9427 41.6948C30.7397 41.4876 30.7397 41.125 30.9427 40.9178C30.9679 40.8912 31.0183 40.866 31.0449 40.8408C30.9693 40.8674 30.9175 40.9178 30.8671 40.9696C30.6641 41.1768 30.6641 41.5394 30.8671 41.7466C31.0449 41.9272 31.2997 41.9538 31.5279 41.8236C31.3235 41.902 31.0953 41.8502 30.9427 41.6948Z" fill="url(#paint12_linear_9772_10115)"/>
</g>
<path opacity="0.3" d="M31.4245 41.1769C31.4805 41.1769 31.5267 41.1307 31.5267 41.0733C31.5267 41.0159 31.4805 40.9697 31.4245 40.9697C31.3685 40.9697 31.3223 41.0159 31.3223 41.0733C31.3237 41.1307 31.3685 41.1769 31.4245 41.1769Z" fill="white"/>
<path opacity="0.2" d="M23.0596 40.7104C23.705 40.7104 24.2286 40.177 24.2286 39.519C24.2286 38.861 23.705 38.3276 23.0596 38.3276C22.4142 38.3276 21.8906 38.861 21.8906 39.519C21.8906 40.177 22.4142 40.7104 23.0596 40.7104Z" fill="white"/>
<g opacity="0.4">
<path opacity="0.6" d="M22.4002 40.2711C21.9424 39.8049 21.9424 39.0545 22.4002 38.5883C22.4758 38.5113 22.5528 38.4595 22.655 38.4077C22.5024 38.4595 22.375 38.5631 22.2476 38.6667C21.7898 39.1329 21.7898 39.8833 22.2476 40.3495C22.6284 40.7373 23.2136 40.8157 23.6714 40.5301C23.2388 40.7107 22.7306 40.6337 22.4002 40.2711Z" fill="url(#paint13_linear_9772_10115)"/>
</g>
<path opacity="0.3" d="M23.4677 39.1581C23.6077 39.1581 23.7225 39.0419 23.7225 38.8991C23.7225 38.7563 23.6091 38.6401 23.4677 38.6401C23.3277 38.6401 23.2129 38.7563 23.2129 38.8991C23.2129 39.0419 23.3263 39.1581 23.4677 39.1581Z" fill="white"/>
<path opacity="0.2" d="M33.5108 37.7861C34.1562 37.7861 34.6798 37.2527 34.6798 36.5947C34.6798 35.9367 34.1562 35.4033 33.5108 35.4033C32.8654 35.4033 32.3418 35.9367 32.3418 36.5947C32.3418 37.2527 32.864 37.7861 33.5108 37.7861Z" fill="white"/>
<g opacity="0.4">
<path opacity="0.6" d="M32.8221 37.3448C32.3643 36.8786 32.3643 36.1282 32.8221 35.662C32.8977 35.5836 32.9747 35.5332 33.0769 35.4814C32.9243 35.5332 32.7969 35.6368 32.6695 35.7404C32.2117 36.2066 32.2117 36.957 32.6695 37.4232C33.0503 37.811 33.6355 37.8894 34.0933 37.6038C33.6607 37.7858 33.1777 37.7074 32.8221 37.3448Z" fill="url(#paint14_linear_9772_10115)"/>
</g>
<path opacity="0.3" d="M33.9169 36.2319C34.0569 36.2319 34.1717 36.1157 34.1717 35.9729C34.1717 35.8301 34.0583 35.7139 33.9169 35.7139C33.7769 35.7139 33.6621 35.8301 33.6621 35.9729C33.6621 36.1157 33.7755 36.2319 33.9169 36.2319Z" fill="white"/>
</g>
<defs>
<radialGradient id="paint0_radial_9772_10115" cx="0" cy="0" r="1" gradientUnits="userSpaceOnUse" gradientTransform="translate(42.7567 15.2641) scale(11.3622 11.5703)">
<stop stop-color="#FBEAF3" stop-opacity="0.6"/>
<stop offset="0.6807" stop-color="#A087BF"/>
<stop offset="1" stop-color="#17102E"/>
</radialGradient>
<radialGradient id="paint1_radial_9772_10115" cx="0" cy="0" r="1" gradientUnits="userSpaceOnUse" gradientTransform="translate(36.4349 20.1966) scale(27.7992 28.3083)">
<stop stop-color="#FBEAF3" stop-opacity="0.6"/>
<stop offset="0.6807" stop-color="#A087BF"/>
<stop offset="1" stop-color="#17102E"/>
</radialGradient>
<linearGradient id="paint2_linear_9772_10115" x1="24.6698" y1="44.4477" x2="29.3817" y2="15.901" gradientUnits="userSpaceOnUse">
<stop stop-color="#9AD9E5"/>
<stop offset="0.6202" stop-color="white" stop-opacity="0"/>
</linearGradient>
<linearGradient id="paint3_linear_9772_10115" x1="37.1701" y1="20.4904" x2="25.2244" y2="31.2539" gradientUnits="userSpaceOnUse">
<stop offset="0.2888" stop-color="white"/>
<stop offset="0.7796" stop-color="white" stop-opacity="0"/>
</linearGradient>
<linearGradient id="paint4_linear_9772_10115" x1="13.5015" y1="36.9182" x2="40.525" y2="36.9182" gradientUnits="userSpaceOnUse">
<stop stop-color="#384EA2"/>
<stop offset="0.9952" stop-color="#D54799"/>
</linearGradient>
<linearGradient id="paint5_linear_9772_10115" x1="41.8729" y1="31.3324" x2="26.9224" y2="45.2072" gradientUnits="userSpaceOnUse">
<stop offset="0.2888" stop-color="white"/>
<stop offset="0.7796" stop-color="white" stop-opacity="0"/>
</linearGradient>
<linearGradient id="paint6_linear_9772_10115" x1="13.5015" y1="36.9182" x2="27.9411" y2="36.9182" gradientUnits="userSpaceOnUse">
<stop stop-color="#2B2F82"/>
<stop offset="0.9952" stop-color="#72439A"/>
</linearGradient>
<linearGradient id="paint7_linear_9772_10115" x1="13.531" y1="31.3081" x2="40.5003" y2="31.3081" gradientUnits="userSpaceOnUse">
<stop stop-color="#2B2F82"/>
<stop offset="0.9952" stop-color="#A14298"/>
</linearGradient>
<linearGradient id="paint8_linear_9772_10115" x1="40.0942" y1="16.6089" x2="38.1045" y2="19.7841" gradientUnits="userSpaceOnUse">
<stop offset="0.2888" stop-color="white"/>
<stop offset="0.7796" stop-color="white" stop-opacity="0"/>
</linearGradient>
<linearGradient id="paint9_linear_9772_10115" x1="25.3674" y1="40.2513" x2="26.4429" y2="40.2513" gradientUnits="userSpaceOnUse">
<stop offset="0.2888" stop-color="white"/>
<stop offset="0.7796" stop-color="white" stop-opacity="0"/>
</linearGradient>
<linearGradient id="paint10_linear_9772_10115" x1="29.0752" y1="39.8886" x2="30.1508" y2="39.8886" gradientUnits="userSpaceOnUse">
<stop offset="0.2888" stop-color="white"/>
<stop offset="0.7796" stop-color="white" stop-opacity="0"/>
</linearGradient>
<linearGradient id="paint11_linear_9772_10115" x1="27.4292" y1="41.7615" x2="28.2367" y2="41.7615" gradientUnits="userSpaceOnUse">
<stop offset="0.2888" stop-color="white"/>
<stop offset="0.7796" stop-color="white" stop-opacity="0"/>
</linearGradient>
<linearGradient id="paint12_linear_9772_10115" x1="30.699" y1="41.3733" x2="31.5064" y2="41.3733" gradientUnits="userSpaceOnUse">
<stop offset="0.2888" stop-color="white"/>
<stop offset="0.7796" stop-color="white" stop-opacity="0"/>
</linearGradient>
<linearGradient id="paint13_linear_9772_10115" x1="21.8923" y1="39.554" x2="23.6487" y2="39.554" gradientUnits="userSpaceOnUse">
<stop offset="0.2888" stop-color="white"/>
<stop offset="0.7796" stop-color="white" stop-opacity="0"/>
</linearGradient>
<linearGradient id="paint14_linear_9772_10115" x1="32.3245" y1="36.6283" x2="34.081" y2="36.6283" gradientUnits="userSpaceOnUse">
<stop offset="0.2888" stop-color="white"/>
<stop offset="0.7796" stop-color="white" stop-opacity="0"/>
</linearGradient>
<clipPath id="clip0_9772_10115">
<rect width="35" height="35" fill="white" transform="translate(10.5 10.5)"/>
</clipPath>
</defs>
</svg>
