<svg width="36" height="36" viewBox="0 0 36 36" fill="none" xmlns="http://www.w3.org/2000/svg">
<g clip-path="url(#clip0_9772_9825)">
<path d="M21.8327 2C21.7374 2 21.6601 2.07725 21.6601 2.17255C21.6601 4.19922 20.0173 5.84157 17.9911 5.84157C15.9644 5.84157 14.3221 4.19869 14.3221 2.17255C14.3221 2.07725 14.2448 2 14.1495 2H5C3.34315 2 2 3.34315 2 5V31C2 32.6569 3.34315 34 5 34H31C32.6569 34 34 32.6569 34 31V5C34 3.34315 32.6569 2 31 2H21.8327Z" fill="#654FF0"/>
<path d="M9.43311 19.2451H11.5539L13.0017 26.956H13.0279L14.768 19.2451H16.7518L18.3236 27.0506H18.3544L20.0046 19.2451H22.0846L19.3819 30.5753H17.2773L15.7186 22.8645H15.6778L14.0093 30.5753H11.8655L9.43311 19.2451ZM24.4757 19.2451H27.819L31.1392 30.5753H28.9515L28.2294 28.054H24.4208L23.8634 30.5753H21.7327L24.4757 19.2451ZM25.7484 22.0378L24.8234 26.1947H27.7024L26.6404 22.0378H25.7484Z" fill="white"/>
</g>
<defs>
<clipPath id="clip0_9772_9825">
<rect width="32" height="32" fill="white" transform="translate(2 2)"/>
</clipPath>
</defs>
</svg>
