<svg width="94" height="19" viewBox="0 0 94 19" fill="none" xmlns="http://www.w3.org/2000/svg">
<path d="M8.42666 3.29399C7.00559 3.29399 5.91937 3.82449 5.168 4.88547C4.41663 5.94645 4.04094 7.39918 4.04094 9.24366C4.04094 11.1045 4.38396 12.549 5.06999 13.5774C5.77236 14.5894 6.89125 15.0954 8.42666 15.0954C9.12903 15.0954 9.83957 15.0138 10.5583 14.8505C11.277 14.6873 12.0528 14.4588 12.8859 14.165V17.2745C12.1182 17.5846 11.3586 17.8131 10.6073 17.96C9.8559 18.1069 9.01469 18.1804 8.08364 18.1804C6.27055 18.1804 4.78415 17.8131 3.62442 17.0786C2.4647 16.3278 1.60715 15.2831 1.05179 13.9446C0.496431 12.5898 0.21875 11.0147 0.21875 9.21917C0.21875 7.45631 0.537266 5.89748 1.1743 4.54269C1.81133 3.1879 2.73421 2.12691 3.94294 1.35974C5.168 0.59257 6.66257 0.208984 8.42666 0.208984C9.29237 0.208984 10.1581 0.323244 11.0238 0.551763C11.9058 0.76396 12.747 1.05777 13.5474 1.43319L12.3469 4.44475C11.6935 4.13462 11.032 3.86529 10.3623 3.63677C9.70889 3.40825 9.06369 3.29399 8.42666 3.29399Z" fill="white"/>
<path d="M28.4618 11.2269C28.4618 13.4468 27.8737 15.1607 26.6977 16.3686C25.538 17.5764 23.9535 18.1804 21.9444 18.1804C20.7031 18.1804 19.5923 17.9111 18.6123 17.3724C17.6486 16.8338 16.889 16.0503 16.3337 15.0219C15.7783 13.9773 15.5006 12.7123 15.5006 11.2269C15.5006 9.00698 16.0805 7.30124 17.2402 6.10968C18.3999 4.91811 19.9925 4.32233 22.018 4.32233C23.2757 4.32233 24.3864 4.59166 25.3501 5.13031C26.3138 5.66896 27.0734 6.45246 27.6287 7.48079C28.1841 8.50913 28.4618 9.75782 28.4618 11.2269ZM19.2248 11.2269C19.2248 12.549 19.4372 13.5529 19.8618 14.2384C20.3029 14.9077 21.0134 15.2423 21.9934 15.2423C22.9572 15.2423 23.6514 14.9077 24.0761 14.2384C24.5171 13.5529 24.7376 12.549 24.7376 11.2269C24.7376 9.90473 24.5171 8.9172 24.0761 8.26429C23.6514 7.59505 22.949 7.26044 21.9689 7.26044C21.0052 7.26044 20.3029 7.59505 19.8618 8.26429C19.4372 8.9172 19.2248 9.90473 19.2248 11.2269Z" fill="white"/>
<path d="M38.9517 4.32233C39.1314 4.32233 39.3438 4.33049 39.5888 4.34682C39.8338 4.36314 40.0298 4.38762 40.1768 4.42027L39.9073 7.84806C39.7766 7.81541 39.6051 7.79093 39.3928 7.7746C39.1804 7.74196 38.9926 7.72564 38.8292 7.72564C38.2085 7.72564 37.6123 7.8399 37.0406 8.06842C36.469 8.28061 36.0034 8.63155 35.6441 9.12124C35.3011 9.61092 35.1296 10.2802 35.1296 11.1289V17.9356H31.4789V4.56717H34.2475L34.7865 6.81972H34.958C35.3501 6.13416 35.8891 5.54654 36.5751 5.05686C37.2612 4.56717 38.0534 4.32233 38.9517 4.32233Z" fill="white"/>
<path d="M47.6392 4.32233C49.4849 4.32233 50.9468 4.85282 52.0249 5.9138C53.1029 6.95846 53.642 8.452 53.642 10.3944V12.1573H45.0175C45.0502 13.1856 45.3524 13.9936 45.9241 14.5812C46.5121 15.1688 47.3206 15.4626 48.3497 15.4626C49.1991 15.4626 49.9749 15.381 50.6773 15.2178C51.396 15.0383 52.131 14.7689 52.8824 14.4098V17.2255C52.2127 17.552 51.5185 17.7886 50.7998 17.9356C50.0811 18.0988 49.2072 18.1804 48.1782 18.1804C46.8388 18.1804 45.6546 17.9356 44.6255 17.4459C43.5965 16.9399 42.7879 16.189 42.1999 15.1933C41.6119 14.1813 41.3178 12.9 41.3178 11.3493C41.3178 9.79863 41.5792 8.50097 42.1019 7.45631C42.6409 6.41165 43.3841 5.62816 44.3315 5.10583C45.2789 4.5835 46.3814 4.32233 47.6392 4.32233ZM47.6637 6.91766C46.9449 6.91766 46.3569 7.14618 45.8996 7.60321C45.4422 8.06025 45.1727 8.7703 45.091 9.73334H50.2118C50.1954 8.93352 49.9749 8.26429 49.5502 7.72564C49.1419 7.18698 48.513 6.91766 47.6637 6.91766Z" fill="white"/>
<path d="M68.8773 4.56717V17.9356H66.0842L65.5941 16.2217H65.3981C64.9734 16.9072 64.3854 17.4051 63.634 17.7152C62.899 18.0253 62.115 18.1804 61.2819 18.1804C59.8445 18.1804 58.693 17.7968 57.8273 17.0296C56.9615 16.2461 56.5287 14.9974 56.5287 13.2836V4.56717H60.1794V12.3776C60.1794 13.3407 60.3509 14.067 60.6939 14.5567C61.0369 15.0301 61.5841 15.2668 62.3355 15.2668C63.4462 15.2668 64.2057 14.8913 64.6141 14.1405C65.0224 13.3733 65.2266 12.2797 65.2266 10.8596V4.56717H68.8773Z" fill="white"/>
<path d="M88.4103 4.32233C89.9294 4.32233 91.0728 4.71408 91.8405 5.49757C92.6245 6.26475 93.0166 7.50528 93.0166 9.21917V17.9356H89.3659V10.1251C89.3659 8.199 88.6962 7.23595 87.3568 7.23595C86.3931 7.23595 85.707 7.57873 85.2987 8.26429C84.8903 8.94985 84.6861 9.93738 84.6861 11.2269V17.9356H81.0355V10.1251C81.0355 8.199 80.3658 7.23595 79.0264 7.23595C78.0136 7.23595 77.3113 7.61954 76.9193 8.38671C76.5436 9.13756 76.3557 10.223 76.3557 11.6431V17.9356H72.7051V4.56717H75.4982L75.9882 6.28107H76.1842C76.5926 5.59551 77.1479 5.09767 77.8503 4.78753C78.569 4.4774 79.3122 4.32233 80.0799 4.32233C81.06 4.32233 81.8848 4.48556 82.5545 4.81202C83.2406 5.12215 83.7714 5.61183 84.1471 6.28107H84.4656C84.874 5.59551 85.4375 5.09767 86.1562 4.78753C86.8913 4.4774 87.6426 4.32233 88.4103 4.32233Z" fill="white"/>
</svg>
