<svg width="71" height="15" viewBox="0 0 71 15" fill="none" xmlns="http://www.w3.org/2000/svg">
<path d="M6.29813 2.64127C5.21259 2.64127 4.38284 3.04651 3.80887 3.85698C3.23491 4.66745 2.94793 5.77718 2.94793 7.18615C2.94793 8.6076 3.20996 9.71109 3.73401 10.4966C4.27054 11.2697 5.12525 11.6562 6.29813 11.6562C6.83466 11.6562 7.37743 11.5939 7.92644 11.4692C8.47545 11.3445 9.06813 11.1699 9.70448 10.9455V13.3208C9.11804 13.5577 8.53784 13.7323 7.96387 13.8445C7.38991 13.9567 6.74732 14.0128 6.0361 14.0128C4.6511 14.0128 3.51565 13.7323 2.62975 13.1712C1.74385 12.5976 1.08878 11.7996 0.66455 10.7772C0.240315 9.74226 0.0281982 8.53902 0.0281982 7.16745C0.0281982 5.82082 0.271509 4.63005 0.758131 3.59514C1.24475 2.56023 1.94973 1.74975 2.87306 1.16372C3.80887 0.577685 4.95056 0.284668 6.29813 0.284668C6.95944 0.284668 7.62074 0.37195 8.28205 0.546513C8.95583 0.708608 9.59842 0.933046 10.2098 1.21983L9.29273 3.52032C8.79363 3.28342 8.28829 3.07768 7.77671 2.90312C7.27761 2.72855 6.78475 2.64127 6.29813 2.64127Z" fill="white"/>
<path d="M21.6027 8.70111C21.6027 10.3969 21.1535 11.7061 20.2552 12.6288C19.3693 13.5515 18.1589 14.0128 16.6242 14.0128C15.6759 14.0128 14.8275 13.8071 14.0788 13.3956C13.3426 12.9841 12.7624 12.3856 12.3382 11.6001C11.914 10.8021 11.7019 9.83578 11.7019 8.70111C11.7019 7.00536 12.1448 5.70236 13.0307 4.79214C13.9166 3.88192 15.1332 3.42681 16.6804 3.42681C17.6411 3.42681 18.4896 3.63254 19.2258 4.04401C19.9619 4.45548 20.5421 5.05399 20.9664 5.83952C21.3906 6.62506 21.6027 7.57892 21.6027 8.70111ZM14.5467 8.70111C14.5467 9.71109 14.7089 10.4779 15.0333 11.0016C15.3702 11.5128 15.913 11.7684 16.6616 11.7684C17.3978 11.7684 17.9281 11.5128 18.2525 11.0016C18.5894 10.4779 18.7579 9.71109 18.7579 8.70111C18.7579 7.69114 18.5894 6.93678 18.2525 6.43803C17.9281 5.9268 17.3916 5.67119 16.6429 5.67119C15.9068 5.67119 15.3702 5.9268 15.0333 6.43803C14.7089 6.93678 14.5467 7.69114 14.5467 8.70111Z" fill="white"/>
<path d="M29.6159 3.42681C29.7532 3.42681 29.9154 3.43304 30.1025 3.44551C30.2897 3.45798 30.4394 3.47668 30.5517 3.50162L30.3458 6.12007C30.246 6.09513 30.115 6.07643 29.9528 6.06396C29.7906 6.03902 29.6471 6.02655 29.5223 6.02655C29.0482 6.02655 28.5928 6.11384 28.156 6.2884C27.7193 6.45049 27.3637 6.71857 27.0892 7.09264C26.8272 7.4667 26.6962 7.97792 26.6962 8.6263V13.8258H23.9075V3.61384H26.0224L26.4341 5.33454H26.5652C26.8646 4.81085 27.2764 4.36197 27.8004 3.9879C28.3245 3.61384 28.9296 3.42681 29.6159 3.42681Z" fill="white"/>
<path d="M36.2521 3.42681C37.6621 3.42681 38.7788 3.83204 39.6023 4.64252C40.4258 5.44052 40.8376 6.58142 40.8376 8.0652V9.41184H34.2495C34.2744 10.1974 34.5053 10.8146 34.942 11.2635C35.3912 11.7123 36.0088 11.9368 36.7949 11.9368C37.4437 11.9368 38.0364 11.8744 38.5729 11.7497C39.1219 11.6126 39.6834 11.4068 40.2574 11.1325V13.2834C39.7458 13.5328 39.2155 13.7136 38.6665 13.8258C38.1175 13.9505 37.45 14.0128 36.6639 14.0128C35.6407 14.0128 34.7361 13.8258 33.95 13.4517C33.1639 13.0652 32.5463 12.4916 32.0971 11.731C31.6479 10.958 31.4233 9.97917 31.4233 8.79463C31.4233 7.61009 31.623 6.61882 32.0223 5.82082C32.434 5.02282 33.0017 4.42431 33.7254 4.02531C34.4491 3.62631 35.2914 3.42681 36.2521 3.42681ZM36.2708 5.40935C35.7218 5.40935 35.2726 5.58391 34.9233 5.93304C34.5739 6.28216 34.368 6.82456 34.3056 7.56022H38.2173C38.2048 6.94925 38.0364 6.43802 37.712 6.02655C37.4 5.61508 36.9197 5.40935 36.2708 5.40935Z" fill="white"/>
<path d="M52.4757 3.61384V13.8258H50.3421L49.9677 12.5166H49.818C49.4936 13.0403 49.0444 13.4206 48.4704 13.6575C47.909 13.8944 47.31 14.0128 46.6737 14.0128C45.5757 14.0128 44.696 13.7198 44.0347 13.1338C43.3734 12.5353 43.0427 11.5814 43.0427 10.2722V3.61384H45.8315V9.58017C45.8315 10.3158 45.9625 10.8707 46.2245 11.2448C46.4865 11.6063 46.9045 11.7871 47.4785 11.7871C48.327 11.7871 48.9072 11.5004 49.2191 10.9268C49.531 10.3408 49.687 9.50535 49.687 8.42057V3.61384H52.4757Z" fill="white"/>
<path d="M67.3968 3.42681C68.5572 3.42681 69.4306 3.72606 70.017 4.32456C70.616 4.9106 70.9154 5.85823 70.9154 7.16745V13.8258H68.1267V7.85947C68.1267 6.38815 67.6151 5.65249 66.592 5.65249C65.8558 5.65249 65.3317 5.91434 65.0198 6.43803C64.7079 6.96172 64.5519 7.71608 64.5519 8.70111V13.8258H61.7632V7.85947C61.7632 6.38815 61.2516 5.65249 60.2285 5.65249C59.4549 5.65249 58.9183 5.94551 58.6189 6.53154C58.3319 7.10511 58.1884 7.93428 58.1884 9.01907V13.8258H55.3997V3.61384H57.5333L57.9076 4.92307H58.0574C58.3693 4.39938 58.7936 4.01908 59.3301 3.78217C59.8791 3.54526 60.4468 3.42681 61.0333 3.42681C61.7819 3.42681 62.412 3.5515 62.9236 3.80087C63.4477 4.03778 63.8532 4.41184 64.1402 4.92307H64.3835C64.6954 4.39938 65.1259 4.01908 65.6749 3.78217C66.2364 3.54526 66.8103 3.42681 67.3968 3.42681Z" fill="white"/>
</svg>
