<svg width="32" height="32" viewBox="0 0 32 32" fill="none" xmlns="http://www.w3.org/2000/svg">
<path d="M22.3611 10.9225C20.8374 9.69806 18.4281 9.49064 18.3263 9.48184C18.1654 9.46801 18.0126 9.55915 17.9466 9.70624C17.9441 9.71126 17.8096 10.1016 17.6795 10.4781C19.4502 10.788 20.6533 11.4757 20.7174 11.5134C21.0178 11.6881 21.1184 12.0734 20.943 12.3733C20.8268 12.5731 20.6162 12.685 20.4 12.685C20.2925 12.685 20.1844 12.658 20.085 12.6002C20.0674 12.5895 18.3024 11.585 16.0012 11.585C13.6994 11.585 11.9337 12.5901 11.9161 12.6002C11.6163 12.7743 11.2316 12.6718 11.0575 12.3714C10.8834 12.0722 10.9846 11.6881 11.2838 11.5134C11.3479 11.4757 12.5554 10.7855 14.3311 10.4762C14.1941 10.0953 14.0558 9.71126 14.0533 9.70624C13.9873 9.55852 13.8345 9.46549 13.6736 9.48184C13.5718 9.49001 11.1625 9.69744 9.61869 10.9389C8.81161 11.6844 7.19995 16.0429 7.19995 19.8112C7.19995 19.8778 7.21692 19.9425 7.25024 20.0004C8.36344 21.9552 11.3982 22.4669 12.0896 22.4889C12.094 22.4895 12.0978 22.4895 12.1016 22.4895C12.2235 22.4895 12.3385 22.431 12.4108 22.3323L13.1588 21.3191C11.5182 20.9237 10.6508 20.3021 10.5986 20.2637C10.3196 20.0582 10.2592 19.6647 10.4648 19.385C10.6697 19.1065 11.0619 19.0449 11.341 19.2492C11.3642 19.2643 12.9652 20.385 16 20.385C19.0466 20.385 20.6432 19.2599 20.6589 19.2486C20.938 19.0462 21.3315 19.1072 21.5358 19.3875C21.7394 19.6666 21.6804 20.0576 21.4025 20.2625C21.3504 20.3008 20.4873 20.9212 18.8505 21.3166L19.5891 22.3317C19.6614 22.431 19.7764 22.4889 19.8984 22.4889C19.9028 22.4889 19.9065 22.4889 19.9103 22.4882C20.6024 22.4662 23.6371 21.9546 24.7497 19.9997C24.783 19.9419 24.8 19.8772 24.8 19.8105C24.8 16.0429 23.1883 11.6844 22.3611 10.9225ZM13.4857 18.4993C12.7911 18.4993 12.2285 17.7959 12.2285 16.9279C12.2285 16.0598 12.7911 15.3565 13.4857 15.3565C14.1802 15.3565 14.7428 16.0598 14.7428 16.9279C14.7428 17.7959 14.1802 18.4993 13.4857 18.4993ZM18.5142 18.4993C17.8197 18.4993 17.2571 17.7959 17.2571 16.9279C17.2571 16.0598 17.8197 15.3565 18.5142 15.3565C19.2088 15.3565 19.7714 16.0598 19.7714 16.9279C19.7714 17.7959 19.2088 18.4993 18.5142 18.4993Z" fill="#5E6773"/>
</svg>
