<svg width="24" height="24" viewBox="0 0 24 24" fill="none" xmlns="http://www.w3.org/2000/svg">
<path d="M19.9514 5.65279C18.0469 4.12221 15.0352 3.86293 14.9079 3.85193C14.7068 3.83464 14.5159 3.94857 14.4334 4.13243C14.4302 4.13871 14.2621 4.62664 14.0994 5.09729C16.3128 5.48464 17.8166 6.34421 17.8968 6.39136C18.2724 6.60979 18.3981 7.09143 18.1789 7.46621C18.0335 7.71607 17.7703 7.85593 17.5 7.85593C17.3656 7.85593 17.2305 7.82214 17.1064 7.74986C17.0844 7.7365 14.8781 6.48093 12.0016 6.48093C9.12429 6.48093 6.91721 7.73729 6.89521 7.74986C6.52043 7.9675 6.03957 7.83943 5.82193 7.46386C5.60429 7.08986 5.73079 6.60979 6.10479 6.39136C6.18493 6.34421 7.69429 5.4815 9.91393 5.09493C9.74264 4.61879 9.56979 4.13871 9.56664 4.13243C9.48414 3.94779 9.29321 3.8315 9.09207 3.85193C8.96479 3.86214 5.95314 4.12143 4.02343 5.67321C3.01457 6.60507 1 12.0532 1 16.7636C1 16.8469 1.02121 16.9278 1.06286 17.0001C2.45436 19.4436 6.24779 20.0832 7.11207 20.1107C7.11757 20.1115 7.12229 20.1115 7.127 20.1115C7.27943 20.1115 7.42321 20.0384 7.51357 19.9151L8.44857 18.6485C6.39786 18.1543 5.31357 17.3772 5.24836 17.3293C4.8995 17.0724 4.82407 16.5805 5.081 16.2309C5.33714 15.8828 5.82743 15.8058 6.17629 16.0611C6.20536 16.08 8.20657 17.4809 12 17.4809C15.8084 17.4809 17.8041 16.0745 17.8237 16.0604C18.1726 15.8074 18.6644 15.8836 18.9198 16.234C19.1744 16.5829 19.1005 17.0716 18.7532 17.3277C18.688 17.3756 17.6092 18.1511 15.5632 18.6454L16.4864 19.9143C16.5768 20.0384 16.7206 20.1107 16.873 20.1107C16.8785 20.1107 16.8832 20.1107 16.8879 20.1099C17.753 20.0824 21.5464 19.4429 22.9371 16.9993C22.9788 16.927 23 16.8461 23 16.7628C23 12.0532 20.9854 6.60507 19.9514 5.65279ZM8.85714 15.1238C7.98893 15.1238 7.28571 14.2446 7.28571 13.1595C7.28571 12.0744 7.98893 11.1952 8.85714 11.1952C9.72536 11.1952 10.4286 12.0744 10.4286 13.1595C10.4286 14.2446 9.72536 15.1238 8.85714 15.1238ZM15.1429 15.1238C14.2746 15.1238 13.5714 14.2446 13.5714 13.1595C13.5714 12.0744 14.2746 11.1952 15.1429 11.1952C16.0111 11.1952 16.7143 12.0744 16.7143 13.1595C16.7143 14.2446 16.0111 15.1238 15.1429 15.1238Z" fill="#5E6773"/>
</svg>
