<svg width="37" height="14" viewBox="0 0 37 14" fill="none" xmlns="http://www.w3.org/2000/svg">
<path d="M9.72814 6.75792C9.72814 8.78579 9.17355 10.3151 8.06438 11.3458C6.96642 12.3654 5.43151 12.8751 3.45966 12.8751H0.115356V0.875977H3.81258C5.01138 0.875977 6.05332 1.10005 6.93841 1.5482C7.83471 1.99635 8.52374 2.65737 9.0055 3.53125C9.48726 4.40514 9.72814 5.4807 9.72814 6.75792ZM8.13161 6.80834C8.13161 5.20621 7.73387 4.03542 6.93841 3.29598C6.15415 2.54533 5.03938 2.17 3.59411 2.17H1.62786V11.5811H3.258C6.50707 11.5811 8.13161 9.99019 8.13161 6.80834Z" fill="#868991"/>
<path d="M20.021 8.35445C20.021 9.84454 19.6401 10.9985 18.8782 11.8164C18.1276 12.6343 17.108 13.0432 15.8196 13.0432C15.0242 13.0432 14.3127 12.8639 13.6853 12.5054C13.0691 12.1357 12.5818 11.6035 12.2232 10.9089C11.8647 10.2031 11.6855 9.35158 11.6855 8.35445C11.6855 6.86436 12.0552 5.71598 12.7946 4.90931C13.5453 4.10264 14.5704 3.69931 15.87 3.69931C16.6767 3.69931 17.3937 3.88417 18.0212 4.25389C18.6486 4.61241 19.1359 5.13899 19.4832 5.83362C19.8418 6.51704 20.021 7.35732 20.021 8.35445ZM13.2148 8.35445C13.2148 9.4188 13.422 10.2647 13.8366 10.8921C14.2623 11.5083 14.9345 11.8164 15.8532 11.8164C16.7607 11.8164 17.4274 11.5083 17.8531 10.8921C18.2788 10.2647 18.4917 9.4188 18.4917 8.35445C18.4917 7.2901 18.2788 6.45542 17.8531 5.85042C17.4274 5.24542 16.7551 4.94292 15.8364 4.94292C14.9177 4.94292 14.2511 5.24542 13.8366 5.85042C13.422 6.45542 13.2148 7.2901 13.2148 8.35445Z" fill="#868991"/>
<path d="M25.9781 13.0432C25.1714 13.0432 24.46 12.8807 23.8438 12.5558C23.2275 12.2309 22.7402 11.7268 22.3817 11.0433C22.0344 10.3599 21.8607 9.48602 21.8607 8.42167C21.8607 7.31251 22.04 6.41061 22.3985 5.71598C22.7682 5.02135 23.2724 4.51158 23.911 4.18667C24.5496 3.86176 25.2722 3.69931 26.0789 3.69931C26.527 3.69931 26.964 3.74973 27.3897 3.85056C27.8267 3.94019 28.1796 4.05223 28.4485 4.18667L27.9947 5.41348C27.7258 5.31264 27.4121 5.21741 27.0536 5.12778C26.6951 5.03815 26.359 4.99334 26.0453 4.99334C24.2751 4.99334 23.39 6.13051 23.39 8.40487C23.39 9.49163 23.6029 10.3263 24.0286 10.9089C24.4656 11.4803 25.1098 11.766 25.9613 11.766C26.443 11.766 26.8744 11.7156 27.2553 11.6147C27.6362 11.5139 27.9835 11.3907 28.2972 11.245V12.5558C27.9947 12.7127 27.6586 12.8303 27.2889 12.9088C26.9304 12.9984 26.4934 13.0432 25.9781 13.0432Z" fill="#868991"/>
<path d="M36.3045 10.3879C36.3045 11.2618 35.9796 11.9228 35.3298 12.371C34.68 12.8191 33.8061 13.0432 32.7082 13.0432C32.0807 13.0432 31.5374 12.9928 31.078 12.8919C30.6299 12.7911 30.2321 12.6511 29.8848 12.4718V11.1274C30.2433 11.3066 30.6747 11.4747 31.1789 11.6315C31.6942 11.7772 32.2152 11.85 32.7418 11.85C33.4924 11.85 34.0358 11.7324 34.3719 11.4971C34.708 11.2506 34.8761 10.9257 34.8761 10.5224C34.8761 10.2983 34.8145 10.0966 34.6912 9.91737C34.568 9.73811 34.3439 9.55885 34.019 9.37959C33.7053 9.20033 33.2515 8.99866 32.6577 8.77459C32.0751 8.55051 31.5766 8.32644 31.162 8.10237C30.7475 7.87829 30.4282 7.6094 30.2041 7.2957C29.9801 6.982 29.868 6.57866 29.868 6.0857C29.868 5.32385 30.1761 4.73565 30.7923 4.32112C31.4197 3.90658 32.2376 3.69931 33.2459 3.69931C33.7949 3.69931 34.3047 3.75533 34.7752 3.86737C35.257 3.9794 35.7051 4.12505 36.1197 4.30431L35.6155 5.4807C35.2346 5.32385 34.8369 5.1894 34.4223 5.07737C34.0078 4.96533 33.582 4.90931 33.1451 4.90931C32.5401 4.90931 32.0751 5.01014 31.7502 5.21181C31.4365 5.40227 31.2797 5.66556 31.2797 6.00167C31.2797 6.25936 31.3525 6.47223 31.4982 6.64028C31.6438 6.80834 31.8847 6.97639 32.2208 7.14445C32.5681 7.3125 33.0275 7.50297 33.5989 7.71584C34.1702 7.92871 34.6576 8.14718 35.0609 8.37126C35.4643 8.59533 35.7724 8.86982 35.9852 9.19473C36.1981 9.50843 36.3045 9.90616 36.3045 10.3879Z" fill="#868991"/>
</svg>
