<svg width="56" height="56" viewBox="0 0 56 56" fill="none" xmlns="http://www.w3.org/2000/svg">
<rect width="56" height="56" rx="12" fill="#ED4E33"/>
<path d="M23.9692 16.5837C17.013 19.2584 16.3757 26.1083 14.3811 29.3073C12.3628 32.5444 7.7391 34.3305 8.37139 35.9802C9.00364 37.6297 13.6329 35.8579 17.2953 36.9105C20.9144 37.9506 25.9638 42.6144 32.9201 39.9396C36.4638 38.5771 39.0297 35.7726 40.2098 32.4509C40.3367 32.0943 40.0994 31.713 39.723 31.6778C39.489 31.6558 39.2644 31.7785 39.1589 31.9887C38.0916 34.1181 36.2606 35.8717 33.8644 36.7928C29.9086 38.3138 25.5804 37.1196 22.9222 34.1247C22.3184 33.4446 21.8021 32.6704 21.3945 31.8148C21.2824 31.5793 21.1758 31.3399 21.0813 31.0923C20.9863 30.8447 20.9055 30.5955 20.8314 30.3451C22.9222 29.369 25.3348 28.3351 28.07 27.2836C30.7518 26.2524 33.1925 25.4161 35.3657 24.747C36.8359 24.2947 38.1833 23.9183 39.3999 23.6107C39.488 23.5887 39.5747 23.5667 39.6609 23.5453C39.845 23.4996 40.034 23.5981 40.102 23.7753L40.1033 23.7786C40.1434 23.8836 40.1779 23.9893 40.2151 24.0949C40.4557 24.7767 40.6362 25.4656 40.7552 26.1561C40.8074 26.4582 41.1371 26.6228 41.4074 26.4775C42.406 25.9404 43.3195 25.4166 44.1357 24.9126C47.1777 23.0363 48.864 21.445 48.5179 20.5432C48.1724 19.6408 45.8562 19.5891 42.3422 20.2328C41.2256 20.4375 39.9873 20.7126 38.653 21.0532C38.4223 21.1121 38.1889 21.1732 37.9525 21.2359C36.8296 21.5342 35.6453 21.8758 34.4121 22.2583C32.1186 22.9697 29.6581 23.822 27.118 24.7987C24.7416 25.7126 22.4893 26.6602 20.4238 27.6044C20.3985 23.597 22.8172 19.8086 26.773 18.2877C29.1687 17.3666 31.7011 17.442 33.9171 18.3098C34.1357 18.3956 34.3846 18.3362 34.5445 18.1629C34.8004 17.885 34.7219 17.4426 34.3895 17.2621C31.2935 15.5855 27.513 15.2213 23.9692 16.5837Z" fill="white"/>
</svg>
