<svg width="56" height="56" viewBox="0 0 56 56" fill="none" xmlns="http://www.w3.org/2000/svg">
<g filter="url(#filter0_bi_9882_27864)">
<rect width="56" height="56" rx="28" fill="url(#paint0_linear_9882_27864)"/>
<path fill-rule="evenodd" clip-rule="evenodd" d="M35.989 14.1396H20.0098C16.387 14.2646 13.5408 17.284 13.6296 20.9078V30.2769C13.5637 32.0424 14.2074 33.7608 15.4169 35.0486C16.6264 36.3364 18.3011 37.0864 20.0673 37.1313H33.7473C34.6876 37.1397 35.5844 37.5284 36.2333 38.209L39.6389 41.8446C40.1043 42.3182 40.8143 42.4539 41.4216 42.1855C42.0288 41.917 42.4063 41.3004 42.3692 40.6375V20.9078C42.458 17.284 39.6117 14.2646 35.989 14.1396ZM28.0001 18.2793C27.0334 18.2781 26.076 18.4679 25.1828 18.8378C24.2897 19.2078 23.4784 19.7505 22.7957 20.4349L25.3993 23.0385C25.9138 22.5234 26.5695 22.1726 27.2834 22.0303C27.9974 21.888 28.7375 21.9606 29.4101 22.2391C30.0828 22.5175 30.6577 22.9892 31.0623 23.5944C31.4668 24.1997 31.6827 24.9113 31.6827 25.6393C31.6827 26.3673 31.4668 27.0789 31.0623 27.6842C30.6577 28.2894 30.0828 28.7611 29.4101 29.0395C28.7375 29.318 27.9974 29.3906 27.2834 29.2483C26.5695 29.106 25.9138 28.7552 25.3993 28.2401L22.7957 30.8437C23.6515 31.6996 24.7052 32.3311 25.8635 32.6824C27.0217 33.0337 28.2487 33.094 29.4358 32.8579C30.6228 32.6217 31.7334 32.0965 32.669 31.3286C33.6046 30.5608 34.3364 29.5741 34.7996 28.4559C35.2627 27.3377 35.443 26.1225 35.3244 24.918C35.2058 23.7135 34.7919 22.5568 34.1195 21.5504C33.4471 20.5441 32.5369 19.719 31.4695 19.1485C30.4021 18.5779 29.2104 18.2793 28.0001 18.2793ZM28.0002 23.7998C27.6362 23.7998 27.2805 23.9077 26.9779 24.1099C26.6753 24.3121 26.4395 24.5995 26.3002 24.9357C26.161 25.2719 26.1245 25.6418 26.1955 25.9988C26.2665 26.3557 26.4418 26.6836 26.6991 26.9409C26.9564 27.1982 27.2843 27.3735 27.6412 27.4445C27.9981 27.5154 28.3681 27.479 28.7043 27.3397C29.0405 27.2005 29.3279 26.9646 29.5301 26.6621C29.7322 26.3595 29.8402 26.0037 29.8402 25.6398C29.8402 25.1518 29.6463 24.6838 29.3012 24.3387C28.9562 23.9937 28.4882 23.7998 28.0002 23.7998Z" fill="#EEEEEE"/>
</g>
<defs>
<filter id="filter0_bi_9882_27864" x="-10" y="-10" width="76" height="76" filterUnits="userSpaceOnUse" color-interpolation-filters="sRGB">
<feFlood flood-opacity="0" result="BackgroundImageFix"/>
<feGaussianBlur in="BackgroundImageFix" stdDeviation="5"/>
<feComposite in2="SourceAlpha" operator="in" result="effect1_backgroundBlur_9882_27864"/>
<feBlend mode="normal" in="SourceGraphic" in2="effect1_backgroundBlur_9882_27864" result="shape"/>
<feColorMatrix in="SourceAlpha" type="matrix" values="0 0 0 0 0 0 0 0 0 0 0 0 0 0 0 0 0 0 127 0" result="hardAlpha"/>
<feOffset dx="2"/>
<feGaussianBlur stdDeviation="4"/>
<feComposite in2="hardAlpha" operator="arithmetic" k2="-1" k3="1"/>
<feColorMatrix type="matrix" values="0 0 0 0 0 0 0 0 0 0 0 0 0 0 0 0 0 0 0.16 0"/>
<feBlend mode="normal" in2="shape" result="effect2_innerShadow_9882_27864"/>
</filter>
<linearGradient id="paint0_linear_9882_27864" x1="0" y1="0" x2="2.16062e-10" y2="56" gradientUnits="userSpaceOnUse">
<stop stop-color="#25D695"/>
<stop offset="1" stop-color="#046C44"/>
</linearGradient>
</defs>
</svg>
