<svg width="36" height="36" viewBox="0 0 36 36" fill="none" xmlns="http://www.w3.org/2000/svg">
<rect width="36" height="36" rx="18" fill="#25D695"/>
<path d="M17.9991 15.1201C17.4295 15.1201 16.8727 15.289 16.3991 15.6055C15.9255 15.9219 15.5563 16.3717 15.3384 16.898C15.1204 17.4242 15.0634 18.0033 15.1745 18.562C15.2856 19.1206 15.5599 19.6338 15.9627 20.0366C16.3654 20.4394 16.8786 20.7137 17.4373 20.8248C17.9959 20.9359 18.575 20.8789 19.1013 20.6609C19.6275 20.4429 20.0773 20.0738 20.3938 19.6002C20.7102 19.1265 20.8791 18.5697 20.8791 18.0001C20.8791 17.2363 20.5757 16.5038 20.0356 15.9636C19.4955 15.4235 18.763 15.1201 17.9991 15.1201Z" fill="white"/>
<path d="M17.9996 6.47999C16.4865 6.47813 14.9879 6.77523 13.5899 7.35423C12.192 7.93323 10.9222 8.78272 9.85352 9.85391L13.9287 13.9291C14.734 13.123 15.7604 12.5738 16.8778 12.3511C17.9953 12.1284 19.1538 12.2421 20.2066 12.6779C21.2595 13.1137 22.1594 13.8519 22.7926 14.7993C23.4257 15.7467 23.7637 16.8605 23.7637 18C23.7637 19.1395 23.4257 20.2533 22.7926 21.2007C22.1594 22.148 21.2595 22.8863 20.2066 23.3221C19.1538 23.7579 17.9953 23.8716 16.8778 23.6489C15.7604 23.4262 14.734 22.877 13.9287 22.0709L9.85352 26.1461C11.1931 27.4856 12.8424 28.4741 14.6553 29.024C16.4682 29.5739 18.3887 29.6682 20.2467 29.2986C22.1048 28.929 23.843 28.1069 25.3074 26.9051C26.7718 25.7032 27.9173 24.1588 28.6422 22.4086C29.3672 20.6583 29.6494 18.7563 29.4637 16.871C29.2781 14.9857 28.6303 13.1752 27.5778 11.6C26.5254 10.0248 25.1007 8.73349 23.43 7.84041C21.7592 6.94733 19.894 6.48006 17.9996 6.47999Z" fill="white"/>
</svg>
