<svg width="32" height="32" viewBox="0 0 32 32" fill="none" xmlns="http://www.w3.org/2000/svg">
<path fill-rule="evenodd" clip-rule="evenodd" d="M16.0073 7.11133C11.0879 7.11133 7.11108 11.1175 7.11108 16.0737C7.11108 20.0354 9.65919 23.3889 13.1941 24.5759C13.636 24.6651 13.7979 24.383 13.7979 24.1457C13.7979 23.938 13.7834 23.2258 13.7834 22.4837C11.3086 23.018 10.7933 21.4154 10.7933 21.4154C10.3956 20.3767 9.80632 20.1097 9.80632 20.1097C8.99635 19.5607 9.86532 19.5607 9.86532 19.5607C10.7638 19.62 11.2353 20.4806 11.2353 20.4806C12.0305 21.8457 13.3119 21.46 13.8274 21.2225C13.901 20.6438 14.1368 20.2432 14.3872 20.0207C12.4134 19.8129 10.3368 19.0413 10.3368 15.5988C10.3368 14.6194 10.69 13.8182 11.2498 13.1951C11.1615 12.9725 10.8521 12.0524 11.3383 10.8209C11.3383 10.8209 12.0895 10.5834 13.7832 11.7408C14.5083 11.5446 15.2561 11.4448 16.0073 11.444C16.7585 11.444 17.5242 11.548 18.2313 11.7408C19.9252 10.5834 20.6763 10.8209 20.6763 10.8209C21.1625 12.0524 20.853 12.9725 20.7647 13.1951C21.3392 13.8182 21.6779 14.6194 21.6779 15.5988C21.6779 19.0413 19.6012 19.798 17.6127 20.0207C17.9368 20.3025 18.2165 20.8366 18.2165 21.6825C18.2165 22.8843 18.202 23.8489 18.202 24.1456C18.202 24.383 18.364 24.6651 18.8058 24.576C22.3407 23.3888 24.8888 20.0354 24.8888 16.0737C24.9034 11.1175 20.912 7.11133 16.0073 7.11133Z" fill="#5E6773"/>
</svg>
