<svg width="56" height="56" viewBox="0 0 56 56" fill="none" xmlns="http://www.w3.org/2000/svg">
<rect width="56" height="56" rx="12" fill="#002FA7"/>
<path d="M29.4199 35.2086L28.9869 35.2792H28.9549C28.9229 35.2877 28.8909 35.2877 28.8608 35.2961L28.7478 35.3112C23.0728 36.2412 18.2712 36.3617 14.0796 35.6877C12.9501 35.4995 11.2906 35.1907 9.87205 34.5808C8.19467 33.8607 7.24113 32.8864 7.04064 31.6731C6.53328 28.7156 10.9169 26.3435 12.3637 25.5651C16.1947 23.4942 20.9172 21.9985 26.7927 21.0035C32.6683 20.0086 37.6205 19.858 41.9203 20.5555C44.7225 21.012 48.5093 21.9138 48.9583 24.5682C49.4073 27.2227 46.1345 29.3218 43.6353 30.6763C39.8974 32.6972 35.3312 34.1591 29.6628 35.1578L29.5507 35.1738C29.5197 35.1823 29.4867 35.1823 29.4566 35.1898C29.4265 35.1973 29.4274 35.2086 29.4199 35.2086ZM28.9304 35.0486H28.9455L29.387 34.9686H29.3954C29.4265 34.9601 29.4594 34.9601 29.4896 34.9526L29.6016 34.9356C35.2371 33.9492 39.7826 32.4883 43.5017 30.4795C49.1777 27.409 48.8153 25.309 48.7051 24.62C48.2401 21.83 43.4471 21.0516 41.8751 20.804C37.6044 20.114 32.6824 20.259 26.8313 21.2549C20.9803 22.2508 16.2888 23.7305 12.4738 25.79C6.79779 28.8596 7.15924 30.9605 7.27126 31.6496C7.7419 34.4386 12.5425 35.2086 14.1116 35.4646C18.2806 36.1386 23.0539 36.0181 28.7092 35.0881L28.8222 35.0721C28.8542 35.0646 28.8871 35.0646 28.9163 35.0571L28.9304 35.0486Z" fill="white"/>
<path d="M29 34.0783C28.888 34.0953 28.7675 34.1188 28.6395 34.1348C28.3985 34.1743 28.1265 34.2148 27.829 34.2628L27.797 34.2713C27.669 34.2863 27.5335 34.3118 27.3885 34.3268C27.2605 34.3428 27.124 34.3673 26.98 34.3833H26.9527C26.7371 34.4153 26.5046 34.4388 26.2712 34.4718H26.2401L25.9427 34.5028C25.8627 34.5113 25.7742 34.5198 25.6951 34.5358H25.6838C23.8643 34.7363 22.1323 34.8568 20.5453 34.8803C17.6593 34.9198 15.3428 34.6553 13.6738 34.0953C12.0802 33.5578 11.0618 32.7389 10.6683 31.6658C10.6 31.4827 10.5489 31.2936 10.5158 31.101C10.3746 30.2595 10.5798 29.4264 11.1333 28.6329C11.8995 27.5222 13.3576 26.4642 15.4689 25.4909C17.4456 24.5741 19.9419 23.7504 22.8919 23.0294C24.7595 22.5719 26.2589 22.2999 26.9884 22.1822C27.7179 22.0646 29.2475 21.8217 31.1405 21.6288C33.2245 21.4179 36.2715 21.2278 38.9721 21.4932C41.2886 21.7172 43.0196 22.2387 44.1115 23.0482C44.873 23.613 45.3352 24.3227 45.4736 25.1633C45.5068 25.3648 45.5204 25.5691 45.514 25.7733C45.4811 26.9188 44.8005 28.0173 43.4931 29.0349C42.1037 30.1145 40.0037 31.1321 37.2533 32.047C35.7302 32.5515 34.0528 33.009 32.2644 33.4175C32.2025 33.4349 32.1397 33.4485 32.0761 33.458L31.4596 33.5917C31.2986 33.6227 31.1461 33.6557 30.9889 33.6858L30.8374 33.7187C30.7489 33.7338 30.6689 33.7507 30.5814 33.7667C30.4938 33.7827 30.3931 33.8072 30.299 33.8232L30.1465 33.8543C29.85 33.9108 29.577 33.9588 29.337 34.0068C29.2344 34.0388 29.1176 34.0623 29 34.0783ZM26.226 34.2393H26.2665C26.4905 34.2148 26.7145 34.1828 26.931 34.1508H26.9527C27.0901 34.1348 27.2256 34.1103 27.3621 34.0953C27.4986 34.0802 27.6445 34.0548 27.7707 34.0388L27.8027 34.0312C28.0992 33.9823 28.3674 33.9428 28.6046 33.9098C28.8616 33.8703 29.0612 33.8392 29.3181 33.7903C29.5582 33.7498 29.8311 33.6961 30.1277 33.6378L30.2801 33.6058C30.3686 33.5898 30.4637 33.5738 30.5522 33.5502L30.8016 33.5013L30.9532 33.4693C31.1057 33.4373 31.2582 33.4053 31.4182 33.3752L32.0357 33.2387C32.0997 33.2227 32.1561 33.2142 32.2239 33.1982C34.0124 32.7982 35.6728 32.3332 37.1883 31.8343C39.9181 30.9287 41.9889 29.9263 43.3528 28.8598C44.601 27.8827 45.2505 26.8482 45.2834 25.7733C45.2898 25.5841 45.2763 25.3948 45.243 25.2085C45.1149 24.4329 44.6782 23.773 43.9675 23.244C42.9104 22.4684 41.2264 21.9535 38.9504 21.738C36.2649 21.481 33.2349 21.6674 31.1659 21.8744C29.2748 22.0627 27.7594 22.2971 27.0299 22.4194C26.3004 22.5418 24.8018 22.8195 22.9503 23.2666C20.0586 23.9716 17.4983 24.8132 15.5668 25.714C13.4988 26.6722 12.0746 27.6982 11.3272 28.7722C10.8142 29.5093 10.6222 30.2868 10.7502 31.0643C10.7802 31.2448 10.8274 31.4219 10.8914 31.5933C11.2679 32.6033 12.2308 33.3733 13.7604 33.8863C15.4039 34.4388 17.6885 34.6958 20.55 34.6553C22.138 34.6318 23.8615 34.5198 25.6725 34.3118H25.6885C25.7719 34.3051 25.8548 34.2941 25.937 34.2788L26.226 34.2393Z" fill="white"/>
<path d="M19.6318 31.7293L19.6083 31.7218H19.5857L19.6083 31.9458C19.6789 31.9383 19.7438 31.9383 19.8191 31.9298C20.0071 31.9157 20.1957 31.9129 20.3839 31.9214C20.1296 31.8724 19.8785 31.8083 19.6318 31.7293ZM22.3456 32.1002H22.338V32.1134H22.354M45.46 25.1808C45.3244 24.3336 44.8594 23.6333 44.0979 23.0647C43.0079 22.2552 41.274 21.7347 38.9585 21.5097C36.2579 21.2452 33.2166 21.4391 31.1307 21.6462C29.2387 21.8345 27.7157 22.0688 26.9786 22.1987C26.2416 22.3286 24.7468 22.5931 22.8783 23.0459C19.9293 23.7679 17.4273 24.5934 15.4553 25.5074C13.3459 26.4788 11.8934 27.5368 11.1188 28.6428C10.5653 29.4363 10.3573 30.2713 10.5013 31.1118C10.5257 31.2572 10.5607 31.4007 10.6058 31.5411C10.6218 31.5891 10.6368 31.6352 10.6538 31.6823C10.6651 31.7114 10.6764 31.7406 10.6886 31.7698C11.1112 32.8052 12.1156 33.5884 13.6678 34.1108C15.3358 34.6756 17.6523 34.9363 20.5392 34.8968H20.5872L20.6183 34.8573C21.0344 34.4167 21.4824 33.9611 21.9305 33.5733L21.9578 33.5498L22.2063 33.3333H21.8241C19.6836 33.354 17.9591 33.1629 16.6959 32.7516H16.6846L16.6997 32.7459C17.8076 32.3007 18.7254 32.0541 19.5706 31.9581C20.3076 32.1717 21.0678 32.2952 21.8345 32.3261C21.3133 32.2997 20.7946 32.2368 20.2823 32.1379L20.0102 32.0776L19.9001 32.0456C19.7937 32.0174 19.6892 31.9872 19.5913 31.9515L19.5678 31.9458H19.5593C19.4126 31.9009 19.2687 31.8475 19.1282 31.7858C18.3037 31.9223 17.3944 32.2 16.3213 32.6518L16.0596 32.7638L16.0427 32.7713L16.3251 32.8758C17.5826 33.3465 19.357 33.5893 21.5841 33.5809C21.2075 33.9178 20.8461 34.2944 20.5016 34.6549C17.6673 34.6963 15.4064 34.4327 13.776 33.8868C12.3001 33.3935 11.3531 32.6631 10.9522 31.7011C10.9362 31.6653 10.9211 31.6305 10.9079 31.5928C10.8947 31.5552 10.8787 31.5138 10.8665 31.4742C10.8226 31.3401 10.7883 31.2029 10.7639 31.0638C10.6359 30.2882 10.8279 29.5088 11.3409 28.7708C12.0826 27.6978 13.5059 26.6718 15.5767 25.7173C17.5083 24.8193 20.0658 23.9778 22.9593 23.2699C24.8108 22.8209 26.3103 22.5404 27.0398 22.4228C27.7693 22.3051 29.2838 22.0622 31.1759 21.8778C33.2467 21.666 36.2739 21.4843 38.9594 21.7413C41.2364 21.9578 42.9194 22.4708 43.9774 23.2473C44.6919 23.7763 45.1239 24.4334 45.252 25.2118C45.2858 25.3981 45.2993 25.5874 45.2924 25.7766C45.2604 26.8506 44.6109 27.8841 43.3609 28.8622C42.0064 29.9202 39.9459 30.9226 37.2425 31.8206C36.7935 31.5881 36.3125 31.35 35.8305 31.1391C37.923 30.4021 39.5176 29.6001 40.5756 28.7501L40.8081 28.5619H40.7601L40.5041 28.5478C39.0131 28.4536 37.8986 28.5318 37.009 28.7878L36.9846 28.7963L36.961 28.8123C36.3343 29.2382 35.6614 29.5919 34.9551 29.8665L34.8422 29.906C34.6257 29.9945 34.3932 30.083 34.1616 30.1621L34.0167 30.211L34.0214 30.1847C34.0299 30.1291 34.0383 30.0727 34.0449 30.0171C34.087 29.6957 34.1046 29.3716 34.0976 29.0476C34.0987 28.9964 34.0965 28.9451 34.091 28.8942C34.0844 28.8424 34.0854 28.7916 34.0807 28.7388C34.076 28.6861 34.0722 28.6344 34.0675 28.5816C34.0628 28.5289 34.0562 28.4772 34.0487 28.4245C34.0393 28.3539 34.0289 28.2833 34.0167 28.2127C34.0044 28.1421 33.9875 28.0724 33.9743 28.0018C33.9677 27.966 33.9602 27.9312 33.9527 27.8973C33.8296 27.3514 33.6282 26.826 33.3549 26.3376C33.2614 26.1701 33.1604 26.0078 33.0518 25.851C33.0189 25.8029 32.985 25.7568 32.9502 25.7098C32.9154 25.6627 32.8909 25.6288 32.8561 25.5893C32.8212 25.5497 32.7902 25.5046 32.7563 25.4631C32.3823 25.0017 31.9416 24.5985 31.4488 24.2668C31.0594 24.0048 30.6393 23.7918 30.1978 23.6323C29.2825 23.3015 28.3001 23.1997 27.3363 23.3358C27.2414 23.3454 27.1472 23.3601 27.0539 23.3801H27.0295C26.0745 23.5696 25.1804 23.9897 24.4249 24.6037C24.0768 24.8806 23.7641 25.1993 23.494 25.5526L23.4714 25.5846C23.2881 25.8229 23.1229 26.0746 22.9772 26.3376C22.948 26.3903 22.9207 26.443 22.8934 26.4957C22.8661 26.5485 22.8501 26.5795 22.8303 26.6238C22.8106 26.668 22.7946 26.6944 22.7795 26.732C22.6997 26.9074 22.629 27.0868 22.5677 27.2695C22.5508 27.3184 22.5348 27.3636 22.5188 27.4173C22.5028 27.4709 22.4887 27.5114 22.4745 27.566L22.4425 27.6799C22.4448 27.6869 22.4448 27.6945 22.4425 27.7015C22.4425 27.7138 22.435 27.727 22.4322 27.7401C22.4228 27.7731 22.4152 27.8107 22.4077 27.8418C22.4067 27.8458 22.4067 27.85 22.4077 27.854V27.8644C22.4002 27.8926 22.3955 27.918 22.3898 27.9453C22.3842 27.9726 22.3795 27.9943 22.3738 28.0159C22.3635 28.0677 22.354 28.1204 22.3456 28.1722C22.3259 28.2879 22.3089 28.404 22.2947 28.5205C22.2947 28.56 22.2863 28.6005 22.2825 28.64C22.2787 28.6795 22.274 28.7464 22.2703 28.8C22.2562 29.038 22.2562 29.2765 22.2703 29.5145C22.2759 29.6086 22.2825 29.7027 22.2929 29.7969C22.2918 29.8178 22.2941 29.8387 22.2995 29.859C22.3089 29.9286 22.3183 29.9908 22.3286 30.0538C22.3275 30.0674 22.3298 30.0809 22.3352 30.0934C22.3343 30.0958 22.3343 30.0985 22.3352 30.1009C22.3358 30.1117 22.3374 30.1224 22.3399 30.1329C22.339 30.1353 22.339 30.138 22.3399 30.1404C22.3408 30.1534 22.3427 30.1663 22.3456 30.179C22.3456 30.2073 22.354 30.2346 22.3597 30.2628C22.4111 30.5387 22.4816 30.8108 22.5705 31.077C22.687 31.4362 22.8387 31.783 23.0233 32.1124H23.028C23.0591 32.168 23.092 32.2235 23.1221 32.28L23.1579 32.3365H23.1184L22.8294 32.3506H23.2313L23.4431 32.3421L23.3321 32.168C23.3198 32.1492 23.3085 32.1303 23.2972 32.1096C23.0862 31.7619 22.9151 31.3915 22.787 31.0055C22.6918 30.7231 22.6194 30.4335 22.5705 30.1395C22.5555 30.0359 22.5385 29.9399 22.5301 29.8355C22.5244 29.7799 22.5188 29.7234 22.5141 29.6679C22.4707 29.1805 22.4925 28.6895 22.579 28.208C22.731 27.3021 23.102 26.4471 23.6596 25.7173C23.7368 25.6232 23.8178 25.5224 23.9015 25.4283C24.1066 25.1936 24.3311 24.9767 24.5727 24.7798C25.2979 24.1922 26.1554 23.7899 27.0709 23.6079L27.0944 23.6031L27.2158 23.5824L27.357 23.5589C28.2837 23.4283 29.2282 23.5276 30.1075 23.8479C31.0008 24.1712 31.7982 24.7145 32.426 25.4276C33.0538 26.1406 33.4918 27.0004 33.6995 27.9274C33.7145 28.0216 33.739 28.1157 33.755 28.2249C33.8012 28.4896 33.8283 28.7573 33.8359 29.0259C33.8445 29.446 33.8076 29.8658 33.7258 30.2779C33.7245 30.2957 33.7214 30.3134 33.7164 30.3306L33.6769 30.5386L33.8774 30.4746L33.9593 30.4464L34.2209 30.3522C34.4619 30.2722 34.6869 30.1837 34.9109 30.0962L35.0229 30.0557C35.7387 29.7729 36.4214 29.4128 37.0589 28.9817C37.8609 28.7577 38.8709 28.6767 40.1539 28.7332L40.1445 28.7407C39.0695 29.5474 37.4853 30.307 35.438 30.9998L35.1255 31.1043L35.4267 31.2239L35.4521 31.2333C36.0351 31.4699 36.6045 31.7386 37.1578 32.0381L37.2058 32.0626H37.2378C39.9882 31.1457 42.0883 30.1301 43.4748 29.0504C44.787 28.0319 45.4685 26.9372 45.4976 25.7898C45.5053 25.586 45.4927 25.382 45.46 25.1808ZM22.3418 32.1002H22.3343V32.1134H22.3503M22.2693 32.3515H22.2825L22.4199 32.3562H22.5301C22.4359 32.3562 22.3418 32.3506 22.2543 32.3459H22.146M19.5876 31.7284L19.6102 31.9524C19.6808 31.9449 19.7457 31.9449 19.822 31.9374C20.0098 31.9224 20.1985 31.9193 20.3867 31.9279C20.1322 31.8804 19.8807 31.8176 19.6337 31.7397L19.6092 31.7322L19.5876 31.7284ZM19.6337 31.7359L19.6102 31.7284H19.5876L19.6102 31.9524C19.6808 31.9449 19.7457 31.9449 19.822 31.9374C20.0098 31.9224 20.1985 31.9193 20.3867 31.9279C20.132 31.8769 19.8805 31.8106 19.6337 31.7293V31.7359ZM22.3484 32.0993H22.3409V32.1124H22.3569M22.3484 32.1011H22.3409V32.1124H22.3569M19.6431 31.7284L19.6196 31.7209H19.597L19.6196 31.9449C19.6902 31.9374 19.7551 31.9374 19.8304 31.9289C20.0184 31.9148 20.207 31.9119 20.3952 31.9204C20.1407 31.8728 19.8892 31.8099 19.6422 31.7322L19.6431 31.7284Z" fill="white"/>
<path d="M19.6318 31.7293L19.6083 31.7218H19.5857L19.6083 31.9458C19.6789 31.9383 19.7438 31.9383 19.8191 31.9298C20.0071 31.9157 20.1957 31.9129 20.3839 31.9214C20.1296 31.8724 19.8785 31.8083 19.6318 31.7293ZM22.3456 32.1002H22.338V32.1134H22.354M45.46 25.1808C45.3244 24.3336 44.8594 23.6333 44.0979 23.0647C43.0079 22.2552 41.274 21.7347 38.9585 21.5097C36.2579 21.2452 33.2166 21.4391 31.1307 21.6462C29.2387 21.8345 27.7157 22.0688 26.9786 22.1987C26.2416 22.3286 24.7468 22.5931 22.8783 23.0459C19.9293 23.7679 17.4273 24.5934 15.4553 25.5074C13.3459 26.4788 11.8934 27.5368 11.1188 28.6428C10.5653 29.4363 10.3573 30.2713 10.5013 31.1118C10.5257 31.2572 10.5607 31.4007 10.6058 31.5411C10.6218 31.5891 10.6368 31.6352 10.6538 31.6823C10.6651 31.7114 10.6764 31.7406 10.6886 31.7698C11.1112 32.8052 12.1156 33.5884 13.6678 34.1108C15.3358 34.6756 17.6523 34.9363 20.5392 34.8968H20.5872L20.6183 34.8573C21.0344 34.4167 21.4824 33.9611 21.9305 33.5733L21.9578 33.5498L22.2063 33.3333H21.8241C19.6836 33.354 17.9591 33.1629 16.6959 32.7516H16.6846L16.6997 32.7459C17.8076 32.3007 18.7254 32.0541 19.5706 31.9581C20.3076 32.1717 21.0678 32.2952 21.8345 32.3261C21.3133 32.2997 20.7946 32.2368 20.2823 32.1379L20.0102 32.0776L19.9001 32.0456C19.7937 32.0174 19.6892 31.9872 19.5913 31.9515L19.5678 31.9458H19.5593C19.4126 31.9009 19.2687 31.8475 19.1282 31.7858C18.3037 31.9223 17.3944 32.2 16.3213 32.6518L16.0596 32.7638L16.0427 32.7713L16.3251 32.8758C17.5826 33.3465 19.357 33.5893 21.5841 33.5809C21.2075 33.9178 20.8461 34.2944 20.5016 34.6549C17.6673 34.6963 15.4064 34.4327 13.776 33.8868C12.3001 33.3935 11.3531 32.6631 10.9522 31.7011C10.9362 31.6653 10.9211 31.6305 10.9079 31.5928C10.8947 31.5552 10.8787 31.5138 10.8665 31.4742C10.8226 31.3401 10.7883 31.2029 10.7639 31.0638C10.6359 30.2882 10.8279 29.5088 11.3409 28.7708C12.0826 27.6978 13.5059 26.6718 15.5767 25.7173C17.5083 24.8193 20.0658 23.9778 22.9593 23.2699C24.8108 22.8209 26.3103 22.5404 27.0398 22.4228C27.7693 22.3051 29.2838 22.0622 31.1759 21.8778C33.2467 21.666 36.2739 21.4843 38.9594 21.7413C41.2364 21.9578 42.9194 22.4708 43.9774 23.2473C44.6919 23.7763 45.1239 24.4334 45.252 25.2118C45.2858 25.3981 45.2993 25.5874 45.2924 25.7766C45.2604 26.8506 44.6109 27.8841 43.3609 28.8622C42.0064 29.9202 39.9459 30.9226 37.2425 31.8206C36.7935 31.5881 36.3125 31.35 35.8305 31.1391C37.923 30.4021 39.5176 29.6001 40.5756 28.7501L40.8081 28.5619H40.7601L40.5041 28.5478C39.0131 28.4536 37.8986 28.5318 37.009 28.7878L36.9846 28.7963L36.961 28.8123C36.3343 29.2382 35.6614 29.5919 34.9551 29.8665L34.8422 29.906C34.6257 29.9945 34.3932 30.083 34.1616 30.1621L34.0167 30.211L34.0214 30.1847C34.0299 30.1291 34.0383 30.0727 34.0449 30.0171C34.087 29.6957 34.1046 29.3716 34.0976 29.0476C34.0987 28.9964 34.0965 28.9451 34.091 28.8942C34.0844 28.8424 34.0854 28.7916 34.0807 28.7388C34.076 28.6861 34.0722 28.6344 34.0675 28.5816C34.0628 28.5289 34.0562 28.4772 34.0487 28.4245C34.0393 28.3539 34.0289 28.2833 34.0167 28.2127C34.0044 28.1421 33.9875 28.0724 33.9743 28.0018C33.9677 27.966 33.9602 27.9312 33.9527 27.8973C33.8296 27.3514 33.6282 26.826 33.3549 26.3376C33.2614 26.1701 33.1604 26.0078 33.0518 25.851C33.0189 25.8029 32.985 25.7568 32.9502 25.7098C32.9154 25.6627 32.8909 25.6288 32.8561 25.5893C32.8212 25.5497 32.7902 25.5046 32.7563 25.4631C32.3823 25.0017 31.9416 24.5985 31.4488 24.2668C31.0594 24.0048 30.6393 23.7918 30.1978 23.6323C29.2825 23.3015 28.3001 23.1997 27.3363 23.3358C27.2414 23.3454 27.1472 23.3601 27.0539 23.3801H27.0295C26.0745 23.5696 25.1804 23.9897 24.4249 24.6037C24.0768 24.8806 23.7641 25.1993 23.494 25.5526L23.4714 25.5846C23.2881 25.8229 23.1229 26.0746 22.9772 26.3376C22.948 26.3903 22.9207 26.443 22.8934 26.4957C22.8661 26.5485 22.8501 26.5795 22.8303 26.6238C22.8106 26.668 22.7946 26.6944 22.7795 26.732C22.6997 26.9074 22.629 27.0868 22.5677 27.2695C22.5508 27.3184 22.5348 27.3636 22.5188 27.4173C22.5028 27.4709 22.4887 27.5114 22.4745 27.566L22.4425 27.6799C22.4448 27.6869 22.4448 27.6945 22.4425 27.7015C22.4425 27.7138 22.435 27.727 22.4322 27.7401C22.4228 27.7731 22.4152 27.8107 22.4077 27.8418C22.4067 27.8458 22.4067 27.85 22.4077 27.854V27.8644C22.4002 27.8926 22.3955 27.918 22.3898 27.9453C22.3842 27.9726 22.3795 27.9943 22.3738 28.0159C22.3635 28.0677 22.354 28.1204 22.3456 28.1722C22.3259 28.2879 22.3089 28.404 22.2947 28.5205C22.2947 28.56 22.2863 28.6005 22.2825 28.64C22.2787 28.6795 22.274 28.7464 22.2703 28.8C22.2562 29.038 22.2562 29.2765 22.2703 29.5145C22.2759 29.6086 22.2825 29.7027 22.2929 29.7969C22.2918 29.8178 22.2941 29.8387 22.2995 29.859C22.3089 29.9286 22.3183 29.9908 22.3286 30.0538C22.3275 30.0674 22.3298 30.0809 22.3352 30.0934C22.3343 30.0958 22.3343 30.0985 22.3352 30.1009C22.3358 30.1117 22.3374 30.1224 22.3399 30.1329C22.339 30.1353 22.339 30.138 22.3399 30.1404C22.3408 30.1534 22.3427 30.1663 22.3456 30.179C22.3456 30.2073 22.354 30.2346 22.3597 30.2628C22.4111 30.5387 22.4816 30.8108 22.5705 31.077C22.687 31.4362 22.8387 31.783 23.0233 32.1124H23.028C23.0591 32.168 23.092 32.2235 23.1221 32.28L23.1579 32.3365H23.1184L22.8294 32.3506H23.2313L23.4431 32.3421L23.3321 32.168C23.3198 32.1492 23.3085 32.1303 23.2972 32.1096C23.0862 31.7619 22.9151 31.3915 22.787 31.0055C22.6918 30.7231 22.6194 30.4335 22.5705 30.1395C22.5555 30.0359 22.5385 29.9399 22.5301 29.8355C22.5244 29.7799 22.5188 29.7234 22.5141 29.6679C22.4707 29.1805 22.4925 28.6895 22.579 28.208C22.731 27.3021 23.102 26.4471 23.6596 25.7173C23.7368 25.6232 23.8178 25.5224 23.9015 25.4283C24.1066 25.1936 24.3311 24.9767 24.5727 24.7798C25.2979 24.1922 26.1554 23.7899 27.0709 23.6079L27.0944 23.6031L27.2158 23.5824L27.357 23.5589C28.2837 23.4283 29.2282 23.5276 30.1075 23.8479C31.0008 24.1712 31.7982 24.7145 32.426 25.4276C33.0538 26.1406 33.4918 27.0004 33.6995 27.9274C33.7145 28.0216 33.739 28.1157 33.755 28.2249C33.8012 28.4896 33.8283 28.7573 33.8359 29.0259C33.8445 29.446 33.8076 29.8658 33.7258 30.2779C33.7245 30.2957 33.7214 30.3134 33.7164 30.3306L33.6769 30.5386L33.8774 30.4746L33.9593 30.4464L34.2209 30.3522C34.4619 30.2722 34.6869 30.1837 34.9109 30.0962L35.0229 30.0557C35.7387 29.7729 36.4214 29.4128 37.0589 28.9817C37.8609 28.7577 38.8709 28.6767 40.1539 28.7332L40.1445 28.7407C39.0695 29.5474 37.4853 30.307 35.438 30.9998L35.1255 31.1043L35.4267 31.2239L35.4521 31.2333C36.0351 31.4699 36.6045 31.7386 37.1578 32.0381L37.2058 32.0626H37.2378C39.9882 31.1457 42.0883 30.1301 43.4748 29.0504C44.787 28.0319 45.4685 26.9372 45.4976 25.7898C45.5053 25.586 45.4927 25.382 45.46 25.1808ZM22.3418 32.1002H22.3343V32.1134H22.3503M22.2693 32.3515H22.2825L22.4199 32.3562H22.5301C22.4359 32.3562 22.3418 32.3506 22.2543 32.3459H22.146M19.5876 31.7284L19.6102 31.9524C19.6808 31.9449 19.7457 31.9449 19.822 31.9374C20.0098 31.9224 20.1985 31.9193 20.3867 31.9279C20.1322 31.8804 19.8807 31.8176 19.6337 31.7397L19.6092 31.7322L19.5876 31.7284ZM19.6337 31.7359L19.6102 31.7284H19.5876L19.6102 31.9524C19.6808 31.9449 19.7457 31.9449 19.822 31.9374C20.0098 31.9224 20.1985 31.9193 20.3867 31.9279C20.132 31.8769 19.8805 31.8106 19.6337 31.7293V31.7359ZM19.6346 31.7284L19.6111 31.7209H19.5885L19.6111 31.9449C19.6817 31.9374 19.7467 31.9374 19.822 31.9289C20.0099 31.9148 20.1985 31.9119 20.3867 31.9204C20.1322 31.8728 19.8807 31.8099 19.6337 31.7322L19.6346 31.7284Z" fill="white"/>
<path d="M22.2704 32.092L22.2281 32.0986H22.2196C22.0728 32.0986 21.9269 32.0873 21.7866 32.0788C21.6065 32.0675 21.4324 32.0534 21.2642 32.0365C20.9818 32.0082 20.7182 31.9715 20.4735 31.9254C20.1842 31.8738 19.8987 31.8031 19.6188 31.7136L19.5934 31.7051H19.5699C19.4164 31.7221 19.2592 31.7456 19.0992 31.7757C18.2878 31.9169 17.3983 32.1871 16.3488 32.6229C15.2625 32.2125 14.5791 31.6157 14.3127 30.8514C14.2977 30.809 14.2845 30.7667 14.2723 30.7234C14.26 30.6801 14.2534 30.649 14.245 30.6123C14.2365 30.5756 14.2261 30.5135 14.2167 30.4664C14.1038 29.8075 14.2807 29.1608 14.7373 28.5433L14.7693 28.5029C15.3886 27.683 16.5116 26.8961 18.1156 26.1675C18.9828 25.7792 19.8712 25.4401 20.7766 25.1519C21.764 24.8299 22.8474 24.5268 23.9996 24.251C24.5117 24.1287 24.9804 24.0204 25.404 23.9338C25.4247 23.9282 25.4454 23.9253 25.4671 23.9206C25.0955 24.109 24.7458 24.3375 24.4241 24.6021C24.0719 24.8825 23.7558 25.2053 23.4828 25.5632L23.4706 25.5848C23.3943 25.6846 23.3209 25.7863 23.2522 25.8908C22.9634 26.3179 22.733 26.7816 22.5669 27.2698C22.55 27.3187 22.534 27.3639 22.518 27.4175C22.502 27.4712 22.4879 27.5117 22.4738 27.5663C22.4672 27.5879 22.4615 27.6096 22.4559 27.6322C22.4522 27.6484 22.4475 27.6645 22.4418 27.6802V27.7018C22.4418 27.7084 22.4342 27.7272 22.4314 27.7404C22.422 27.7734 22.4145 27.811 22.4069 27.8421C22.406 27.8461 22.406 27.8503 22.4069 27.8543V27.8647C22.3994 27.8929 22.3947 27.9183 22.389 27.9456C22.3834 27.9729 22.3787 27.9946 22.373 28.0162C22.3721 28.0249 22.3702 28.0334 22.3674 28.0416C22.3589 28.083 22.3514 28.1235 22.3448 28.164C22.3231 28.2826 22.3071 28.4012 22.294 28.5207C22.294 28.5603 22.2855 28.6008 22.2817 28.6403C22.2817 28.6939 22.2733 28.7467 22.2695 28.8003C22.2554 29.0382 22.2554 29.2768 22.2695 29.5147C22.2751 29.6089 22.2827 29.703 22.293 29.7971C22.2921 29.8158 22.294 29.8346 22.2987 29.8527C22.3081 29.9233 22.3184 29.9892 22.3288 30.055C22.3284 30.0623 22.3284 30.0695 22.3288 30.0767L22.3429 30.1708C22.3542 30.2414 22.3664 30.312 22.3824 30.3826C22.3807 30.3894 22.3807 30.3965 22.3824 30.4033C22.3909 30.4429 22.3994 30.4824 22.4088 30.52C22.4446 30.6735 22.485 30.8175 22.5283 30.9559C22.5396 30.9935 22.5519 31.0265 22.5632 31.0669L22.6102 31.1987C22.6262 31.2439 22.6422 31.2872 22.6601 31.3314C22.695 31.419 22.7307 31.5065 22.7684 31.5931C22.7853 31.6298 22.8013 31.6628 22.8192 31.7023C22.8371 31.7418 22.854 31.7729 22.8719 31.8096C22.9199 31.9037 22.9726 32.0064 23.0272 32.1005C23.0583 32.156 23.0912 32.2116 23.1214 32.268L23.1562 32.3245H23.1167L22.8277 32.3377H23.2418L23.4499 32.3292L23.3473 32.1551C23.335 32.1362 23.3237 32.1165 23.3115 32.0967C23.0966 31.7513 22.921 31.3828 22.7881 30.9982C22.6946 30.7157 22.6238 30.4261 22.5764 30.1322C22.5613 30.0287 22.5453 29.9317 22.5368 29.8282C22.5293 29.767 22.5227 29.7068 22.518 29.6456C22.4779 29.1629 22.5016 28.6771 22.5886 28.2007C22.7422 27.2964 23.1145 26.4433 23.673 25.7157C23.7332 25.6394 23.7944 25.5651 23.8612 25.4917C24.6933 24.5154 25.833 23.8514 27.0927 23.6091V23.6081L27.0541 23.3841V23.3794L26.6362 23.4547C26.0187 23.5677 25.0774 23.754 23.9563 24.0195C21.6078 24.5843 19.6198 25.2309 18.0327 25.952C16.425 26.6862 15.2719 27.4797 14.6224 28.3202L14.5895 28.3607C14.0689 29.0507 13.8684 29.7727 13.9965 30.5097C14.0049 30.5586 14.0153 30.6038 14.0266 30.6509C14.0379 30.698 14.0482 30.745 14.0605 30.7864C14.0727 30.8279 14.0812 30.857 14.0915 30.8881C14.3523 31.6825 15.0084 32.3076 16.0419 32.7509L16.0598 32.7594C16.1436 32.7952 16.2311 32.83 16.3215 32.8639L16.3695 32.8789L16.4099 32.8639L16.6923 32.7462L16.7083 32.7406C17.8096 32.2982 18.7218 32.0468 19.5717 31.9508H19.583C19.6847 31.9828 19.7911 32.012 19.9003 32.0449C19.7939 32.0167 19.6885 31.9866 19.5915 31.9508L19.567 31.9452H19.5595C19.4126 31.9001 19.2683 31.8467 19.1275 31.7851C19.2828 31.7588 19.4343 31.7371 19.583 31.7211L19.6056 31.9452C19.6762 31.9376 19.7421 31.9376 19.8174 31.9301C20.0053 31.9152 20.1939 31.912 20.3822 31.9207C20.7115 31.9847 21.0439 32.0318 21.3781 32.0619C21.5183 32.0751 21.6605 32.0854 21.8083 32.0948C21.956 32.1042 22.0982 32.1099 22.2469 32.1146H22.2544L22.2808 32.109H22.3344V32.1212H22.4352C22.566 32.1212 22.6959 32.1287 22.8192 32.1287H23.0206C23.0187 32.1261 23.0171 32.1233 23.0159 32.1202H22.8041C22.6818 32.1202 22.5528 32.1146 22.4229 32.1137H22.3307M22.2789 32.3631L22.4126 32.3678H22.5293C22.4352 32.3678 22.341 32.3622 22.2535 32.3584H22.1594M22.2676 32.109L22.2836 32.1146L22.2676 32.109ZM23.015 32.1315H22.8032C22.6808 32.1315 22.5528 32.1259 22.4267 32.125H22.374L22.3514 32.1193H22.3354V32.1259H22.4352C22.566 32.1259 22.6959 32.1334 22.8201 32.1334H23.0206V32.1259L23.015 32.1315Z" fill="white"/>
<path d="M33.6923 30.5509L33.7328 30.3391C33.8214 29.9094 33.8615 29.4712 33.8523 29.0326C33.8454 28.7652 33.8187 28.4987 33.7723 28.2353C33.7563 28.1308 33.7328 28.0348 33.7168 27.9388C33.3974 26.5116 32.5378 25.2634 31.3183 24.456C30.9459 24.2082 30.5448 24.0066 30.1238 23.8555C29.2445 23.5354 28.2999 23.4365 27.3734 23.5674L27.3301 23.3377C27.8751 23.2493 29.0131 23.0732 30.4561 22.9368C32.0827 22.7758 34.4726 22.6318 36.6206 22.8238H36.6366C38.4317 22.9848 39.7956 23.3613 40.7002 23.9468L40.7407 23.9703C41.4542 24.4409 41.8787 25.0443 41.9992 25.7748C42.0174 25.8805 42.0281 25.9875 42.0312 26.0948C42.0632 27.0163 41.5662 27.9153 40.5505 28.7483L40.5101 28.7803H40.4621C39.036 28.6918 37.9206 28.7643 37.0555 29.0128C36.4177 29.4435 35.7351 29.8036 35.0195 30.0868L34.9075 30.1273C34.6825 30.2148 34.4585 30.3033 34.2175 30.3833C34.1055 30.4229 33.9935 30.4633 33.873 30.5038L33.6923 30.5509ZM29.0009 23.3255C29.4094 23.3831 29.8109 23.4824 30.1991 23.622C30.6406 23.7814 31.0607 23.9945 31.4501 24.2565C32.242 24.7846 32.8959 25.4947 33.3572 26.3273C33.6294 26.8163 33.8289 27.3423 33.9493 27.8889C33.9728 27.9934 33.9888 28.1007 34.0123 28.2014C34.059 28.4771 34.0861 28.7558 34.0933 29.0354C34.1026 29.4246 34.0755 29.8138 34.0123 30.1979L34.1573 30.1499C34.3898 30.0699 34.6223 29.9814 34.8388 29.8929L34.9508 29.8534C35.6568 29.5736 36.329 29.2152 36.9548 28.785L36.9783 28.769L37.0028 28.7605C37.8848 28.5045 38.9795 28.4311 40.4498 28.5196C41.3798 27.7439 41.8373 26.9194 41.8043 26.091C41.8017 25.9915 41.791 25.8923 41.7723 25.7945C41.6603 25.145 41.2838 24.6 40.6503 24.167L40.6183 24.1435C39.7523 23.5787 38.4138 23.2022 36.6423 23.0365H36.6263C34.4943 22.8483 32.1128 22.9885 30.4862 23.1495C29.9412 23.2078 29.4433 23.2643 29.0009 23.3255Z" fill="white"/>
<path d="M22.3476 32.1069V32.1135H22.3712L22.3476 32.1069ZM23.0169 32.1144H22.8051C22.6827 32.1144 22.5538 32.1088 22.4239 32.1069L22.4361 32.1153C22.567 32.1153 22.6969 32.1219 22.8202 32.1219H23.0216C23.0197 32.1193 23.0181 32.1165 23.0169 32.1135V32.1144ZM22.2855 32.0975L22.2337 32.1059C22.086 32.1059 21.9429 32.0946 21.8026 32.0852C21.6407 32.0768 21.4854 32.0655 21.332 32.0495C21.0251 32.0222 20.7211 31.9789 20.4189 31.9214C20.1495 31.8716 19.8835 31.8046 19.6226 31.7209L19.5981 31.7134H19.5906L19.5737 31.7078C18.7378 31.4254 18.1702 31.0065 17.885 30.4455C17.8573 30.3919 17.8325 30.3369 17.8106 30.2808C17.7993 30.2525 17.788 30.2233 17.7777 30.1942C17.7427 30.0946 17.7159 29.9922 17.6977 29.8882C17.6271 29.5033 17.7541 29.1126 18.0742 28.7097C18.3506 28.3789 18.6733 28.0898 19.0324 27.8513C19.5112 27.5237 20.0147 27.2338 20.5385 26.9844C21.4134 26.5647 22.3138 26.2003 23.2343 25.8934L23.2522 25.8868C23.1531 26.0336 23.0615 26.1843 22.9774 26.3386C22.9482 26.3913 22.9209 26.444 22.8936 26.4968C22.8663 26.5495 22.8512 26.5805 22.8305 26.6238C22.8098 26.6671 22.7948 26.6944 22.7797 26.733C22.7006 26.9081 22.63 27.0879 22.5679 27.2705C22.551 27.3195 22.535 27.3646 22.519 27.4183C22.503 27.4719 22.4888 27.5124 22.4747 27.5661C22.4606 27.6197 22.4531 27.6423 22.4437 27.6809C22.4446 27.6886 22.4426 27.6963 22.438 27.7026C22.438 27.7148 22.4305 27.728 22.4277 27.7402C22.4182 27.7741 22.4107 27.8108 22.4032 27.8428C22.4023 27.8468 22.4023 27.851 22.4032 27.855V27.8654C22.3957 27.8927 22.3909 27.9191 22.3853 27.9464C22.3797 27.9737 22.3702 28.0122 22.3646 28.0405C22.3589 28.0687 22.3476 28.1214 22.3411 28.1629C22.3203 28.2815 22.3034 28.4001 22.2902 28.5196C22.2902 28.5591 22.2818 28.5987 22.278 28.6391C22.2742 28.6796 22.2695 28.7455 22.2667 28.7982C22.2526 29.0362 22.2526 29.2747 22.2667 29.5127C22.2723 29.6068 22.2789 29.7009 22.2893 29.7951C22.2883 29.8137 22.2902 29.8325 22.2949 29.8506C22.3043 29.9212 22.3147 29.9871 22.3251 30.052C22.3246 30.0596 22.3246 30.0671 22.3251 30.0746L22.3392 30.1687C22.3505 30.2397 22.3636 30.3103 22.3787 30.3805C22.377 30.3873 22.377 30.3945 22.3787 30.4012C22.3881 30.4398 22.3966 30.4794 22.4051 30.518C22.4418 30.6714 22.4813 30.8154 22.5246 30.9538C22.5359 30.9905 22.5481 31.0244 22.5594 31.0649L22.6065 31.1966C22.6225 31.2409 22.6385 31.2851 22.6564 31.3294C22.6912 31.4169 22.727 31.5044 22.7656 31.5901C22.7816 31.6278 22.7985 31.6607 22.8155 31.7002C22.8324 31.7398 22.8503 31.7708 22.8691 31.8075C22.9171 31.9017 22.9689 32.0033 23.0235 32.0984C23.0546 32.1539 23.0884 32.2085 23.1176 32.265L23.1525 32.3224H23.1129L22.8239 32.3356H23.2391L23.4471 32.3271L23.3529 32.1615C23.3381 32.1387 23.3246 32.1151 23.3125 32.0909C23.1043 31.7454 22.9351 31.378 22.8079 30.9952C22.7119 30.7134 22.6395 30.424 22.5914 30.1302C22.5754 30.0257 22.5594 29.9297 22.551 29.8252C22.4869 29.2833 22.5031 28.7349 22.599 28.1977C22.7549 27.2929 23.1294 26.4399 23.6899 25.7127L23.8772 25.4905L23.9328 25.4199L23.9102 25.4265L23.5638 25.5376L23.5064 25.5564H23.4979C23.4943 25.556 23.4907 25.5564 23.4873 25.5576C23.4839 25.5587 23.4808 25.5606 23.4781 25.563C22.9134 25.7513 22.3837 25.9423 21.8892 26.1362C21.374 26.3396 20.8968 26.5479 20.4575 26.7613C19.2395 27.3468 18.3735 27.9482 17.901 28.5497C17.5395 29.0072 17.3955 29.4712 17.4774 29.9202C17.496 30.01 17.5196 30.0986 17.548 30.1857C17.5659 30.245 17.5866 30.3043 17.6092 30.3617C17.6195 30.3852 17.6289 30.4097 17.6402 30.4323C17.8925 31.0027 18.3848 31.4498 19.1115 31.7661H19.1228L19.1416 31.7746C19.296 31.7482 19.4485 31.7266 19.5972 31.7096L19.6198 31.9346C19.6904 31.9261 19.7553 31.9261 19.8306 31.9186C20.0185 31.9042 20.2071 31.901 20.3954 31.9092C20.7243 31.9742 21.0564 32.0213 21.3904 32.0504C21.5315 32.0645 21.6727 32.0749 21.8215 32.0833C21.9702 32.0918 22.1104 32.0984 22.2592 32.1031H22.2667L22.294 32.0975H22.3467M23.0367 32.1191C23.0348 32.1165 23.0332 32.1136 23.032 32.1106H22.8202C22.6978 32.1106 22.5689 32.105 22.4437 32.104L22.455 32.1116C22.5858 32.1116 22.7157 32.1191 22.8399 32.1191H23.0367ZM22.3636 32.1078L22.3862 32.1031H22.3636V32.1078ZM22.2931 32.3441L22.4267 32.3497H22.535C22.4408 32.3497 22.3467 32.3441 22.2592 32.3394H22.1519M23.0094 32.1172H22.7976C22.6752 32.1172 22.5463 32.1116 22.4164 32.1106H22.3222V32.1172H22.4342C22.5651 32.1172 22.695 32.1248 22.8183 32.1248H23.0197C23.0181 32.1212 23.0172 32.1174 23.0169 32.1135L23.0094 32.1172Z" fill="white"/>
<path d="M33.692 30.5511L33.7325 30.3393C33.8212 29.9097 33.8613 29.4714 33.8521 29.0328C33.8452 28.7654 33.8184 28.499 33.772 28.2355C33.756 28.1311 33.7325 28.035 33.7165 27.939C33.3971 26.5118 32.5376 25.2636 31.3181 24.4562L30.998 24.2398L31.383 24.2322C32.4721 24.2143 33.5612 24.2614 34.6446 24.3734C35.9916 24.5334 36.9979 24.8055 37.6568 25.2074C38.1698 25.5114 38.4663 25.8964 38.5387 26.3454C38.5621 26.4992 38.57 26.655 38.5623 26.8104C38.5218 27.586 38.0248 28.3165 37.0873 28.9829L37.0628 28.998C36.5338 29.3745 35.8457 29.7284 35.0353 30.0645L34.9232 30.105C34.6983 30.1925 34.4742 30.281 34.2342 30.361C34.1222 30.4015 34.0092 30.4419 33.8888 30.4815L33.692 30.5511ZM31.7539 24.4675C32.4101 24.9669 32.955 25.5975 33.3541 26.3191C33.6271 26.8087 33.8275 27.3353 33.949 27.8826C33.9725 27.987 33.9885 28.0943 34.0121 28.1951C34.0588 28.4708 34.0858 28.7495 34.093 29.0291C34.1024 29.4182 34.0753 29.8074 34.0121 30.1916L34.157 30.1435C34.3895 30.0635 34.622 29.9751 34.8385 29.8866L34.9505 29.847C35.6562 29.5693 36.3284 29.2132 36.9546 28.7853L36.9781 28.7693C37.8365 28.1518 38.2959 27.4863 38.3251 26.7925C38.3333 26.6556 38.3254 26.5182 38.3015 26.3831C38.2385 26.0066 37.9806 25.6912 37.5334 25.4154C36.9084 25.0389 35.9332 24.7744 34.6154 24.6144C33.6651 24.512 32.7097 24.4629 31.7539 24.4675Z" fill="white"/>
<path d="M23.019 32.1134H22.8072C22.6849 32.1134 22.5559 32.1078 22.426 32.1069L22.4382 32.1144C22.5691 32.1144 22.699 32.121 22.8223 32.121H23.0237C23.0216 32.1188 23.02 32.1163 23.019 32.1134ZM23.4464 32.3356L23.3522 32.1699C23.3371 32.1474 23.3236 32.1238 23.3118 32.0993C23.1037 31.7541 22.9345 31.387 22.8072 31.0046C22.7112 30.7224 22.6388 30.4328 22.5907 30.1386C22.5747 30.0351 22.5587 29.9391 22.5503 29.8346L22.5305 29.6416L22.5088 29.6567L22.3724 29.7451L22.2867 29.8016H22.282C22.0765 29.9405 21.8843 30.098 21.7078 30.2723C21.4094 30.5707 21.2645 30.869 21.2739 31.1533V31.1938C21.2751 31.2618 21.2859 31.3293 21.3059 31.3943C21.3115 31.4159 21.3191 31.4376 21.3256 31.4592C21.3766 31.6044 21.4556 31.738 21.5581 31.8527C21.6289 31.9334 21.7078 32.0065 21.7935 32.0711L21.8048 32.0786C21.8082 32.0811 21.8114 32.0839 21.8142 32.0871C21.9544 32.0956 22.1013 32.1021 22.2519 32.1069H22.2585L22.2415 32.0984L22.2274 32.0908L22.2114 32.0833L22.1794 32.0598H22.1709L22.1013 32.0184C21.932 31.924 21.784 31.7959 21.6664 31.6419C21.6004 31.5525 21.5524 31.4512 21.5252 31.3435C21.5252 31.3237 21.5177 31.3002 21.5148 31.2729C21.512 31.2456 21.5054 31.2107 21.5007 31.1787C21.4762 30.9538 21.6052 30.7081 21.8622 30.4408C22.0032 30.2979 22.1566 30.1678 22.3206 30.052V30.1424C22.3219 30.1528 22.3238 30.1632 22.3262 30.1734C22.3375 30.2443 22.3507 30.3149 22.3658 30.3852C22.3641 30.392 22.3641 30.3991 22.3658 30.4059C22.3752 30.4455 22.3837 30.485 22.3921 30.5227C22.4288 30.6761 22.4684 30.8201 22.5117 30.9585C22.523 30.9961 22.5352 31.0291 22.5474 31.0695L22.5936 31.2023C22.6096 31.2465 22.6256 31.2898 22.6435 31.334C22.6783 31.4216 22.714 31.5091 22.7526 31.5957C22.7696 31.6324 22.7856 31.6654 22.8025 31.7049C22.8195 31.7445 22.8374 31.7755 22.8562 31.8122C22.9042 31.9064 22.956 32.009 23.0106 32.1031C23.0416 32.1586 23.0755 32.2142 23.1047 32.2706L23.1395 32.3271H23.1L22.811 32.3403H23.2261L23.4341 32.3318L23.4464 32.3356ZM23.0237 32.1238C23.0216 32.1217 23.02 32.1191 23.019 32.1163H22.8072C22.6849 32.1163 22.5559 32.1106 22.426 32.1097L22.4382 32.1172C22.5691 32.1172 22.699 32.1238 22.8223 32.1238H23.0237ZM23.019 32.1163H22.8072C22.6849 32.1163 22.5559 32.1106 22.426 32.1097H22.3724L22.3498 32.1144H22.4364C22.5672 32.1144 22.6971 32.121 22.8214 32.121H23.0219C23.0213 32.1185 23.0213 32.1159 23.0219 32.1134L23.019 32.1163Z" fill="white"/>
<path d="M33.6918 30.5513L33.7323 30.3395C33.8209 29.9099 33.861 29.4716 33.8518 29.033C33.8449 28.7656 33.8182 28.4991 33.7718 28.2357C33.7558 28.1312 33.7323 28.0352 33.7163 27.9392L33.6758 27.75L33.8687 27.798C34.1275 27.859 34.3797 27.945 34.6218 28.055C35.0548 28.2555 35.3108 28.5124 35.3833 28.808C35.3918 28.8485 35.3993 28.889 35.4068 28.937C35.4633 29.3295 35.3193 29.7126 34.9663 30.0835L34.9503 30.0985L34.9258 30.107C34.7018 30.1955 34.4778 30.284 34.2368 30.364C34.1248 30.4035 34.0118 30.444 33.8923 30.4835L33.6918 30.5513ZM33.9883 28.0747L34.0118 28.1943C34.0585 28.47 34.0856 28.7487 34.0928 29.0283C34.1021 29.4175 34.075 29.8066 34.0118 30.1908L34.1568 30.1428C34.3808 30.0628 34.5973 29.9818 34.8157 29.8943C35.0981 29.5818 35.2176 29.2692 35.1771 28.9643C35.1687 28.9323 35.1687 28.9003 35.1611 28.8598C35.1047 28.6358 34.8882 28.4371 34.5258 28.2668C34.352 28.1886 34.1723 28.1244 33.9883 28.0747Z" fill="white"/>
<path d="M38.6874 32.7962C38.3259 32.6437 37.8929 32.4196 37.4364 32.1862L37.1719 32.0507L37.2839 31.8389L37.5484 31.9754C38.0059 32.2079 38.4304 32.4328 38.7834 32.5768L38.6874 32.7962Z" fill="white"/>
<path d="M35.0666 30.0465L34.9141 29.8583C35.5066 29.3747 36.1871 29.0103 36.9181 28.7852C36.9418 28.7785 36.965 28.7703 36.9877 28.7607L37.0442 28.9932C37.0282 29.0008 37.0037 29.0008 36.9877 29.0092C36.2871 29.2294 35.635 29.5815 35.0666 30.0465Z" fill="white"/>
<path d="M45.813 29.3172C45.107 29.2767 44.3069 29.1807 43.4146 29.0602L43.344 29.0527C42.4027 28.9407 41.436 28.8202 40.4824 28.7562L40.4956 28.5171C41.4576 28.5736 42.4271 28.6941 43.3731 28.8145L43.4437 28.8221C44.3333 28.9341 45.1268 29.0339 45.8327 29.0706L45.813 29.3172Z" fill="white"/>
<path d="M34.2859 30.327L34.0977 30.1858C34.5062 29.6568 34.8592 29.2445 35.1952 28.868C36.2212 27.7545 37.2322 27.0654 38.3777 26.6965L38.4022 26.688C39.545 26.339 40.718 26.0973 41.9057 25.966C43.0682 25.8258 44.2542 25.7345 45.3885 25.6544L45.509 25.646C46.6715 25.5622 47.7596 25.4822 48.8035 25.3457L48.8355 25.5867C47.785 25.7222 46.6875 25.8032 45.525 25.8832L45.4045 25.8907C44.2665 25.9717 43.088 26.0592 41.9217 26.2032C40.5587 26.3717 39.4207 26.6052 38.4587 26.9167L38.4351 26.9252C37.3404 27.2791 36.3671 27.954 35.3599 29.0365C35.0389 29.3886 34.6954 29.8056 34.2859 30.327Z" fill="white"/>
<path d="M34.0696 29.1008L33.8672 28.9737C34.0837 28.6367 34.2766 28.3477 34.4602 28.0917C35.426 26.7513 36.3767 25.8458 37.4827 25.2368L37.4987 25.2292C37.513 25.2225 37.5266 25.2143 37.5392 25.2048C38.3807 24.7398 39.3982 24.3303 40.6332 23.9349H40.6407C41.6912 23.6064 42.7408 23.3419 44.0002 23.0294L44.0708 23.0134C45.1062 22.7574 46.0824 22.5192 47.0124 22.2378L47.0829 22.4618C46.1539 22.7442 45.1674 22.9908 44.1329 23.2478L44.0623 23.2638C42.8076 23.581 41.7571 23.8418 40.7076 24.1703H40.6972C39.4792 24.5553 38.4767 24.9638 37.6427 25.4212C37.6267 25.4297 37.6192 25.4372 37.6107 25.4372L37.5957 25.4448C36.5292 26.0387 35.5907 26.9198 34.6532 28.2348C34.479 28.4833 34.2861 28.7723 34.0696 29.1008Z" fill="white"/>
<path d="M33.3545 26.4319L33.1465 26.3114C33.5009 25.6732 33.9286 25.0787 34.421 24.5399C34.4615 24.4994 34.501 24.4514 34.5415 24.4119C35.151 23.806 35.8289 23.2731 36.5615 22.8239L36.585 22.8088C37.3155 22.3429 38.1005 21.9268 38.9016 21.5023L39.022 21.4374C39.6715 21.0929 40.2918 20.7719 40.8557 20.4434L40.979 20.6542C40.402 20.9903 39.7845 21.3131 39.135 21.6557L39.0155 21.7207C38.205 22.1433 37.42 22.5613 36.6886 23.0272L36.6641 23.0423C35.9516 23.4742 35.2936 23.9903 34.7043 24.5794L34.5848 24.6989C34.1183 25.2344 33.7062 25.8149 33.3545 26.4319Z" fill="white"/>
<path d="M30.2689 23.7774L30.0449 23.6889C30.1334 23.4724 30.2379 23.2559 30.365 22.9839C30.5815 22.5434 30.8224 22.1019 31.0474 21.6934L31.1265 21.5569C31.3279 21.1888 31.5435 20.8114 31.728 20.4424L31.9416 20.5478C31.7534 20.9168 31.5397 21.3008 31.3401 21.6708L31.2601 21.8073C31.0352 22.2158 30.7951 22.6488 30.5786 23.0902C30.4525 23.3529 30.349 23.5694 30.2689 23.7774Z" fill="white"/>
<path d="M24.4162 24.7716C24.2561 24.5833 24.0801 24.411 23.8872 24.2181C23.5586 23.8896 23.2141 23.5836 22.8291 23.241L22.7237 23.1469C22.3867 22.8438 22.0648 22.5623 21.7617 22.2658L21.9321 22.1021C22.2286 22.391 22.5486 22.6791 22.8856 22.9756L22.9901 23.0641C23.3751 23.4086 23.7196 23.723 24.0566 24.0505C24.2449 24.2388 24.4246 24.427 24.5931 24.6153L24.4162 24.7716Z" fill="white"/>
<path d="M37.0589 28.9885C36.4213 29.4196 35.7386 29.7797 35.0229 30.0626L34.9108 30.103C34.6868 30.1906 34.4619 30.2791 34.2209 30.3591L33.9592 30.4532L33.8773 30.4814L33.6768 30.5454L33.7163 30.3374C33.7204 30.32 33.7235 30.3024 33.7258 30.2847C33.4791 30.3666 33.2118 30.4485 32.9228 30.5379C32.4098 30.6895 31.8563 30.8335 31.2473 30.9784C30.6383 31.1234 30.0048 31.2608 29.3478 31.3785C29.051 31.435 28.7865 31.482 28.5543 31.5197C28.3303 31.5517 28.0573 31.6006 27.7523 31.6477C27.0633 31.7607 26.4458 31.8482 25.8612 31.9122C25.2353 31.9828 24.6423 32.0412 24.0813 32.0732C23.8252 32.0873 23.5626 32.0948 23.3113 32.1014H23.283C23.2943 32.1221 23.3066 32.1409 23.3188 32.1598L23.4289 32.3339H23.4449C23.5946 32.3339 23.7433 32.3236 23.8902 32.317L24.1133 32.3047C24.678 32.2727 25.2758 32.2162 25.9017 32.1447C26.4872 32.0807 27.1038 31.9922 27.8013 31.8793C27.9302 31.8633 28.0535 31.8444 28.1712 31.8256L28.3736 31.7917L28.4442 31.7785L28.6014 31.7522C28.8339 31.7117 29.1059 31.6637 29.4024 31.6072C30.0446 31.4904 30.6836 31.357 31.3189 31.2072C31.59 31.1444 31.8501 31.0792 32.0992 31.0114H32.1133C32.4249 30.9286 32.7223 30.8438 33.0104 30.7601C33.3219 30.6725 33.6119 30.5765 33.8839 30.488C33.9074 30.4796 33.9319 30.472 33.9545 30.4626C34.0486 30.4316 34.138 30.3995 34.2275 30.3685C34.4684 30.2885 34.6925 30.2 34.9165 30.1115L35.0295 30.072C35.745 29.7888 36.4277 29.4287 37.0655 28.998C37.8627 28.7739 38.8671 28.6939 40.1426 28.7485L40.152 28.7419C38.8746 28.6836 37.8609 28.7645 37.0589 28.9885ZM22.2872 32.0948L22.2354 32.1033C22.0876 32.1033 21.9445 32.092 21.8043 32.0826C21.6424 32.0741 21.4871 32.0628 21.3336 32.0468C21.0268 32.0195 20.7227 31.9762 20.4206 31.9188C20.1511 31.869 19.8851 31.802 19.6242 31.7183L19.5998 31.7108H19.5753C19.4256 31.7277 19.2741 31.7475 19.1178 31.7748C18.2942 31.9122 17.3868 32.188 16.3137 32.6398L16.0511 32.7518L16.0332 32.7603L16.0511 32.7678L16.3099 32.862C17.6334 33.3552 19.5103 33.599 21.889 33.567H21.9342C22.627 33.5576 23.3734 33.5265 24.1424 33.4729L24.2789 33.4653C24.326 33.4578 24.3825 33.4578 24.439 33.4493L24.503 33.4409C24.8239 33.4173 25.1374 33.3929 25.4443 33.3609C25.6325 33.3458 25.8057 33.3213 25.9733 33.3053L26.3178 33.2648C26.4703 33.2488 26.6228 33.2244 26.7677 33.2084L26.8073 33.2008C27.2879 33.1444 27.7529 33.08 28.2022 33.0079C28.4423 32.9768 28.6437 32.9439 28.8113 32.9137C28.9788 32.8836 29.1878 32.8488 29.3883 32.8008C29.8589 32.7132 30.3296 32.6125 30.7917 32.5118C30.9518 32.4807 31.1118 32.4478 31.2803 32.4083L31.6088 32.3283C31.7613 32.2878 31.9138 32.2577 32.0738 32.2162C32.3628 32.1513 32.6593 32.0713 32.9633 31.9913L33.1516 31.9433C33.2222 31.9273 33.2881 31.9037 33.3596 31.8868L33.385 31.8783C34.1107 31.6731 34.813 31.4604 35.47 31.2401L35.5001 31.2298H35.5086C37.7564 30.4673 39.4488 29.6296 40.5492 28.725L40.7657 28.5471L40.7808 28.533L40.4758 28.517C38.9857 28.4228 37.8712 28.501 36.9808 28.7579L36.9572 28.7655L36.9337 28.7815C36.3075 29.2088 35.6349 29.5637 34.9287 29.8395L34.8167 29.88C34.6002 29.9675 34.3687 30.056 34.1362 30.136L34.0279 30.1746L33.8029 30.2536L33.7399 30.2762C33.4933 30.3581 33.2259 30.44 32.937 30.5294C32.4239 30.681 31.8705 30.825 31.2615 30.97C30.6524 31.1149 30.0189 31.2524 29.3619 31.37C29.0651 31.4265 28.8006 31.4736 28.5684 31.5112C28.3444 31.5432 28.0714 31.5922 27.7664 31.6392C27.0774 31.7522 26.4599 31.8397 25.8754 31.9037C25.2494 31.9743 24.6564 32.0327 24.0954 32.0647C23.8394 32.0788 23.5767 32.0863 23.3254 32.0929H23.2313C23.1663 32.0929 23.1023 32.0986 23.043 32.1005H22.8275C22.7051 32.1005 22.5771 32.0948 22.4509 32.0929H22.3568V32.1099H22.4359C22.5658 32.1099 22.6957 32.1174 22.8199 32.1174H23.0204L23.0157 32.1089H23.0204C23.0515 32.1654 23.0854 32.22 23.1146 32.2765L23.1494 32.3339H23.4421C23.5918 32.3292 23.7405 32.3226 23.8874 32.316L24.1104 32.3038C24.6752 32.2718 25.272 32.2162 25.8989 32.1438C26.4834 32.0798 27.1038 31.995 27.8013 31.8821C27.9302 31.8661 28.0535 31.8473 28.1702 31.8284L28.3726 31.7945L28.4432 31.7814L28.6004 31.755C28.8339 31.7145 29.1059 31.6665 29.4024 31.6101C30.0446 31.4936 30.6837 31.3602 31.3189 31.21C31.59 31.1472 31.8501 31.082 32.0992 31.0142H32.1124C32.4249 30.9323 32.7223 30.8476 33.0094 30.7638C33.3219 30.6753 33.6109 30.5756 33.8839 30.4909C33.9074 30.4824 33.931 30.4749 33.9536 30.4654C34.0477 30.4344 34.1418 30.4033 34.2275 30.3713C34.4684 30.2913 34.6925 30.2028 34.9165 30.1143L35.0295 30.0748C35.7451 29.7918 36.4278 29.4317 37.0655 29.0008C37.8627 28.7768 38.8671 28.6967 40.1426 28.7513H40.1595C39.0855 29.5609 37.506 30.3148 35.453 31.0104H35.4455L35.1283 31.1168C34.5569 31.3051 33.9583 31.483 33.3398 31.6524L33.3154 31.6599C33.2448 31.6769 33.1798 31.7004 33.1036 31.7164L32.8795 31.7729C32.5915 31.8529 32.3025 31.9244 32.0324 31.9894C31.8724 32.0289 31.7208 32.06 31.5683 32.1014L31.2398 32.1814C31.0713 32.2134 30.9104 32.252 30.7503 32.2859C30.2853 32.38 29.8203 32.4789 29.3553 32.5683C29.1304 32.6078 28.9327 32.6389 28.7538 32.6718C28.575 32.7048 28.3858 32.7358 28.1533 32.766C27.7071 32.8328 27.2365 32.9043 26.7658 32.9608L26.7263 32.9683C26.5851 32.9928 26.4298 33.0088 26.2773 33.0248L25.9328 33.0644C25.7643 33.0888 25.5883 33.1048 25.4113 33.1208C25.1073 33.1453 24.7948 33.1773 24.4813 33.2008L24.4258 33.2093C24.3693 33.2168 24.3213 33.2168 24.2658 33.2253L24.1283 33.2328C23.4337 33.2827 22.7625 33.3138 22.1281 33.327L21.8843 33.3317H21.8287C19.692 33.3524 17.9694 33.1613 16.7081 32.7518H16.6902C17.7962 32.3066 18.7055 32.0572 19.5678 31.9612H19.5593C19.4127 31.9158 19.2688 31.8624 19.1282 31.8011C19.2835 31.7748 19.435 31.7531 19.5838 31.7362L19.6064 31.9612C19.677 31.9527 19.7419 31.9527 19.8181 31.9452C20.006 31.9307 20.1946 31.9275 20.3829 31.9357C20.7118 32.0006 21.0439 32.0478 21.3779 32.0769C21.5191 32.0901 21.6603 32.1014 21.809 32.1099C21.9577 32.1183 22.098 32.1249 22.2467 32.1296H22.2476L22.2749 32.124H22.3286" fill="white"/>
<path d="M22.3822 28.2753C21.847 27.8105 21.2605 27.4081 20.6342 27.0761L20.446 26.982C19.6796 26.625 18.8754 26.356 18.0485 26.18C17.2305 25.9918 16.373 25.859 15.4985 25.7235L15.3583 25.699C14.6231 25.5851 13.935 25.4806 13.2695 25.3526L13.3185 25.1201C13.983 25.2481 14.673 25.3526 15.3893 25.4646L15.5305 25.4891C16.4125 25.6256 17.27 25.7527 18.0965 25.9456C18.9404 26.1255 19.7614 26.3999 20.5438 26.7636L20.7368 26.8577C21.3821 27.1971 21.985 27.6116 22.5328 28.0927L22.3822 28.2753Z" fill="white"/>
<path d="M22.6055 31.1259C22.2845 30.8774 21.9889 30.6553 21.6999 30.4529C20.3934 29.538 19.2347 28.9939 18.0364 28.7529L17.9564 28.7369C17.0396 28.5609 15.9797 28.4969 14.6854 28.5487H14.6779C13.5154 28.5882 12.3049 28.7087 11.2384 28.8132H11.2139C10.1088 28.9214 9.06872 29.0259 8.09636 29.0673L8.08789 28.8273C9.04989 28.7878 10.0928 28.6861 11.1942 28.5713H11.2177C12.2814 28.4649 13.4928 28.3444 14.6619 28.3049H14.6704C15.9769 28.2559 17.0688 28.3199 17.9969 28.5054L18.0778 28.5204C19.3015 28.7699 20.4988 29.3224 21.8289 30.26C22.1179 30.4717 22.4219 30.6835 22.7457 30.9414L22.6055 31.1259Z" fill="white"/>
<path d="M22.8949 32.122H22.8243C22.7 32.122 22.5701 32.1163 22.4393 32.1154L22.428 32.1069C22.1522 31.9328 21.9009 31.784 21.6627 31.6513C21.5563 31.592 21.4509 31.5346 21.3502 31.4809L21.322 31.4668C20.0842 30.8079 18.9894 30.486 17.8815 30.4446H17.6255C16.6842 30.4446 15.597 30.582 14.3112 30.8531L14.1907 30.8776L14.0966 30.8992C13.0122 31.1308 11.9203 31.4339 10.9404 31.7069L10.8086 31.7426L10.691 31.7737C9.55202 32.0947 8.47801 32.3912 7.47553 32.5992L7.42188 32.362C8.40835 32.154 9.47954 31.8603 10.6044 31.5412L10.6204 31.5365L10.7399 31.5045L10.851 31.4734C11.8337 31.2014 12.9379 30.8983 14.0241 30.6545L14.1305 30.63L14.2406 30.6074C15.5142 30.3344 16.5938 30.197 17.5351 30.1904H17.7714C18.9113 30.2149 20.0305 30.5227 21.2655 31.1581L21.4537 31.2522L21.5074 31.2814C21.914 31.4988 22.3593 31.768 22.8845 32.1097L22.8949 32.122Z" fill="white"/>
<path d="M22.31 32.1039H22.279L22.2526 32.1096H22.247C22.0983 32.1049 21.9524 32.0983 21.8083 32.0898C21.6643 32.0813 21.5175 32.0701 21.3782 32.0569L21.3302 32.0456C21.309 32.04 21.2877 32.0353 21.2661 32.0315C21.006 31.9733 20.7416 31.9361 20.4755 31.9204H20.3851C20.1968 31.9122 20.0082 31.9153 19.8203 31.9298C19.7497 31.9373 19.6848 31.9373 19.6085 31.9458L19.5859 31.7208V31.7029C19.6578 31.6942 19.7301 31.6892 19.8024 31.6879C20.3918 31.6473 20.9837 31.7049 21.5542 31.8583C21.7324 31.9053 21.9134 31.9602 22.0973 32.023L22.167 32.0484H22.1839L22.2074 32.0644L22.2733 32.0898L22.2893 32.0955C22.2963 32.0983 22.3035 32.1002 22.311 32.1011L22.31 32.1039Z" fill="white"/>
<path d="M11.5679 35.121L11.4785 34.9036C12.1685 34.6146 12.8905 34.2616 13.652 33.8851L13.7084 33.8606C14.5556 33.4446 15.431 33.0134 16.313 32.6426L16.4015 32.8591C15.528 33.2281 14.6535 33.6526 13.812 34.0696L13.7564 34.1016C12.9865 34.479 12.2692 34.832 11.5679 35.121Z" fill="white"/>
<path d="M29.0007 34.0784C28.8887 34.0954 28.7682 34.1189 28.6402 34.1349C28.3992 34.1745 28.1272 34.2149 27.8297 34.2629L27.7591 34.2714L27.3901 34.3194C27.2621 34.3354 27.1266 34.3599 26.9826 34.375H26.9534C26.7378 34.4079 26.5053 34.4314 26.2719 34.4691H26.2483L25.9518 34.5001C24.1566 34.7139 22.3517 34.837 20.5441 34.8691L20.2617 34.8767L20.45 34.6658C20.8789 34.2021 21.331 33.7604 21.8045 33.3424L21.8365 33.3103H21.876C22.6695 33.3019 23.528 33.2623 24.4175 33.1899L24.4825 33.1823C24.8025 33.1588 25.1169 33.1259 25.4125 33.1023C25.6007 33.0854 25.7815 33.0618 25.9575 33.0458L26.2785 33.0063C26.431 32.9894 26.574 32.9734 26.7105 32.9498L26.7595 32.9423C27.2405 32.8858 27.7008 32.8133 28.146 32.7493C28.3788 32.7173 28.5793 32.686 28.7475 32.6552C28.9235 32.6232 29.124 32.5912 29.348 32.5507C29.813 32.4632 30.278 32.3625 30.743 32.2683C30.903 32.2354 31.064 32.1977 31.2316 32.1639L31.593 32.0754C31.737 32.0434 31.881 32.0114 32.026 31.9709C32.298 31.9069 32.5785 31.8353 32.8666 31.7544L33.0916 31.6989C33.9095 31.4748 34.6917 31.2414 35.4241 30.9938L35.473 30.9854L35.5041 30.9938C36.103 31.2392 36.6892 31.5144 37.2605 31.8184L37.5166 31.9474L37.2474 32.0415C35.5153 32.6074 33.7561 33.0862 31.9761 33.476L31.4961 33.5805C31.3191 33.621 31.1506 33.6511 30.9906 33.685L30.8381 33.717L30.5821 33.765C30.4936 33.781 30.3938 33.8045 30.3091 33.8215L30.1575 33.8525C29.8601 33.909 29.5928 33.957 29.3471 34.005C29.2344 34.0412 29.1183 34.0658 29.0007 34.0784ZM26.2267 34.2394H26.2587C26.4837 34.2149 26.7077 34.1829 26.9242 34.1509H26.9534C27.0889 34.1349 27.2264 34.1104 27.3534 34.0954C27.4805 34.0803 27.6104 34.0624 27.7224 34.0464L27.7864 34.0389C28.0839 33.9912 28.3512 33.9511 28.5884 33.9184C28.7074 33.893 28.8278 33.8741 28.9489 33.8619C29.0619 33.8459 29.1814 33.8224 29.3019 33.7979C29.5419 33.7584 29.814 33.7038 30.1114 33.6454L30.263 33.6144C30.3514 33.5984 30.4399 33.5814 30.5359 33.5579L30.7844 33.5099L30.9369 33.477C31.097 33.4459 31.2654 33.4064 31.4415 33.3734L31.9121 33.2689C33.7006 32.8679 35.3761 32.4218 36.8906 31.9295C36.4256 31.6885 35.9371 31.4588 35.4561 31.264C34.735 31.5049 33.9566 31.745 33.1471 31.9615L32.9588 32.0095C32.6538 32.0904 32.3583 32.1704 32.0693 32.2344C31.9253 32.2665 31.7803 32.3041 31.6363 32.338L31.2673 32.4265C31.0988 32.4669 30.9388 32.4971 30.7788 32.531C30.3138 32.6354 29.8375 32.7315 29.3753 32.819C29.1513 32.8595 28.9527 32.8999 28.7748 32.9235C28.5969 32.947 28.4058 32.9875 28.1658 33.0176C27.7158 33.0904 27.2508 33.1547 26.7708 33.2106L26.7228 33.219C26.5778 33.2341 26.4338 33.2501 26.2813 33.2746L25.9613 33.3151C25.7843 33.3311 25.5998 33.3546 25.4078 33.3715C25.1037 33.4026 24.7903 33.4271 24.4665 33.4506L24.4025 33.4591C23.5195 33.5231 22.679 33.5626 21.893 33.5796C21.5165 33.9081 21.1399 34.2846 20.787 34.6536C22.3655 34.6216 24.0815 34.4926 25.885 34.2846L26.222 34.2366L26.2267 34.2394Z" fill="white"/>
<path d="M19.4393 36.0584L19.2793 35.8814C19.5683 35.6254 19.9043 35.2649 20.2573 34.8884L20.4578 34.6719L20.6338 34.8404L20.4343 35.0512C20.0728 35.4334 19.7368 35.793 19.4393 36.0584Z" fill="white"/>
<path d="M33.9591 30.2412L35.5355 31.0138L35.4299 31.2294L33.8535 30.4568L33.9591 30.2412Z" fill="white"/>
<path d="M23.1257 32.3408L23.1172 32.3493C23.0381 32.4255 22.5007 32.9498 22.1298 33.3207L22.1185 33.3329L21.9895 33.4619L21.8145 33.3405L21.8305 33.3254L21.8465 33.3085C21.8465 33.3085 22.6343 32.4613 22.8235 32.3549L23.1134 32.3408H23.1257Z" fill="white"/>
<path d="M23.2237 32.3388H23.1146L22.8246 32.3519H22.53C22.4359 32.3519 22.3418 32.3463 22.2552 32.3425H21.9445C21.9314 32.3435 21.9182 32.3435 21.905 32.3425H21.841C21.3199 32.3156 20.8012 32.2527 20.2888 32.1543C20.1947 32.1354 20.1062 32.1147 20.0168 32.094L19.9066 32.0469C19.8003 32.0187 19.6958 31.9886 19.5979 31.9528L19.5744 31.9472H19.5659C19.4192 31.9023 19.2752 31.8488 19.1348 31.7872C19.2901 31.7608 19.4416 31.7391 19.5904 31.7231L19.6129 31.9472C19.6835 31.9396 19.7485 31.9396 19.8247 31.9321C20.0126 31.9172 20.2012 31.914 20.3895 31.9227C20.7185 31.9867 21.0506 32.0338 21.3845 32.0639C21.5257 32.0771 21.6668 32.0874 21.8156 32.0968C21.9643 32.1063 22.1045 32.1119 22.2533 32.1166H22.2608L22.2881 32.111H22.3418V32.1204H22.4462C22.5761 32.1204 22.706 32.1279 22.8303 32.1279H23.0308L23.0261 32.1194H23.0308C23.0618 32.1759 23.0957 32.2305 23.1249 32.287L23.1597 32.3444L23.2237 32.3388Z" fill="white"/>
<path d="M34.0413 30.009C34.0328 30.0655 34.0243 30.1229 34.014 30.1794C34.0017 30.25 33.9867 30.3244 33.9707 30.3969L33.9594 30.4477V30.4637L33.8954 30.4853C33.5819 30.5898 33.2751 30.6821 33.0171 30.7602C32.7348 30.843 32.4383 30.9249 32.1182 31.0068H32.1041C31.8594 31.0708 31.6005 31.1339 31.3285 31.1951C30.6404 31.3607 30.0022 31.4869 29.4158 31.597C29.1682 31.6441 28.9122 31.6911 28.6119 31.742L28.45 31.7711L28.3794 31.7834L28.177 31.8173C28.0622 31.8352 27.937 31.853 27.8071 31.8709C27.1294 31.9811 26.5053 32.0677 25.9038 32.1354C25.2863 32.206 24.6801 32.2587 24.1097 32.2964L23.8988 32.3086C23.752 32.3162 23.6033 32.3218 23.4536 32.3265H23.1571L23.1213 32.2691C23.0884 32.2126 23.0554 32.158 23.0272 32.1025C22.9717 32.0084 22.9199 31.9086 22.8719 31.8116C22.8531 31.7759 22.8361 31.741 22.8192 31.7043C22.8022 31.6676 22.7853 31.6337 22.7683 31.5942C22.7279 31.5066 22.6921 31.42 22.6592 31.3334C22.6422 31.2892 22.6253 31.245 22.6093 31.2007C22.5933 31.1565 22.5773 31.1066 22.5613 31.0595L22.5274 30.9597C22.485 30.8186 22.4445 30.6774 22.4088 30.5239C22.3994 30.4863 22.3909 30.4467 22.3815 30.4072C22.3834 30.4004 22.3834 30.3933 22.3815 30.3865C22.373 30.346 22.3645 30.3065 22.3561 30.2641C22.3476 30.2218 22.3429 30.1973 22.3372 30.1625L22.3203 30.057L22.2883 29.8453C22.2883 29.8302 22.2883 29.8151 22.2836 29.8001C22.2223 29.2491 22.2404 28.6921 22.3372 28.1462C22.4778 27.3364 22.7869 26.5651 23.2446 25.8824C23.3152 25.7723 23.3943 25.6659 23.4743 25.5605C23.7526 25.2021 24.0681 24.8743 24.4156 24.5825C25.0685 24.0502 25.8265 23.6617 26.6399 23.4426C26.7651 23.4087 26.8912 23.3795 27.0164 23.355L27.3082 23.3052C28.3251 23.1566 29.3631 23.2762 30.3195 23.6521C31.2759 24.028 32.1176 24.6473 32.7611 25.4485C32.795 25.4899 32.8308 25.5323 32.8609 25.5746C32.891 25.617 32.9221 25.6556 32.955 25.6951C32.988 25.7346 33.0256 25.7892 33.0567 25.8363C33.1565 25.9831 33.2506 26.1341 33.3391 26.2891C33.6099 26.7775 33.8108 27.3016 33.9359 27.846C33.9509 27.8949 33.966 27.9401 33.9773 27.9909C33.9942 28.0559 34.0083 28.1208 34.0187 28.1867V28.1989C34.03 28.2695 34.0413 28.3401 34.0497 28.4107C34.0582 28.4625 34.0639 28.5152 34.0695 28.5679C34.0752 28.6206 34.078 28.6724 34.0827 28.7251C34.0874 28.7778 34.0893 28.8268 34.0921 28.8804C34.0949 28.9341 34.0968 28.9746 34.0987 29.0207V29.0329C34.109 29.3594 34.0898 29.6861 34.0413 30.009Z" fill="white"/>
</svg>
