<svg width="16" height="20" viewBox="0 0 16 20" fill="none" xmlns="http://www.w3.org/2000/svg">
<path d="M6.48112 7.7085C6.02787 7.7085 5.5848 7.8429 5.20794 8.09471C4.83108 8.34652 4.53735 8.70443 4.3639 9.12318C4.19045 9.54193 4.14506 10.0027 4.23349 10.4472C4.32191 10.8918 4.54017 11.3001 4.86067 11.6206C5.18116 11.9411 5.5895 12.1594 6.03404 12.2478C6.47858 12.3362 6.93936 12.2908 7.3581 12.1174C7.77685 11.9439 8.13476 11.6502 8.38657 11.2733C8.63838 10.8965 8.77279 10.4534 8.77279 10.0002C8.77279 9.39237 8.53134 8.80948 8.10157 8.37971C7.6718 7.94994 7.08891 7.7085 6.48112 7.7085Z" fill="#25D695"/>
<path d="M6.48198 0.833503C5.27796 0.832021 4.08552 1.06843 2.97314 1.52915C1.86076 1.98987 0.850371 2.66583 0 3.51819L3.24271 6.7609C3.88351 6.11944 4.70018 5.68246 5.58938 5.50524C6.47859 5.32802 7.40038 5.41851 8.23814 5.76528C9.07591 6.11204 9.792 6.6995 10.2958 7.45332C10.7997 8.20715 11.0686 9.09347 11.0686 10.0002C11.0686 10.9069 10.7997 11.7932 10.2958 12.547C9.792 13.3008 9.07591 13.8883 8.23814 14.2351C7.40038 14.5818 6.47859 14.6723 5.58938 14.4951C4.70018 14.3179 3.88351 13.8809 3.24271 13.2394L0 16.4821C1.06595 17.548 2.37832 18.3346 3.82086 18.7722C5.2634 19.2097 6.79159 19.2848 8.27006 18.9907C9.74854 18.6966 11.1317 18.0424 12.2969 17.0861C13.4622 16.1298 14.3736 14.9008 14.9505 13.5081C15.5274 12.1154 15.7519 10.602 15.6042 9.1018C15.4564 7.60161 14.941 6.16101 14.1036 4.9076C13.2661 3.65419 12.1324 2.62666 10.803 1.91601C9.47358 1.20537 7.98942 0.833558 6.48198 0.833503Z" fill="#25D695"/>
</svg>
