<svg width="56" height="57" viewBox="0 0 56 57" fill="none" xmlns="http://www.w3.org/2000/svg">
<path d="M51.4513 29.7427C51.4513 36.5347 48.6981 42.6839 44.247 47.1351C39.7958 51.5863 33.6466 54.3395 26.8546 54.3395C20.0626 54.3395 13.9134 51.5863 9.46219 47.1351C5.011 42.6839 2.25781 36.5347 2.25781 29.7427C2.25781 22.9507 5.011 16.8016 9.46219 12.3504C13.9134 7.89918 20.0608 5.146 26.8528 5.146" stroke="#2B3138" stroke-width="3.49515" stroke-miterlimit="10"/>
<g filter="url(#filter0_d_10467_41859)">
<path fill-rule="evenodd" clip-rule="evenodd" d="M24.2305 5.14577C24.2305 3.69804 25.4041 2.52441 26.8518 2.52441C34.367 2.52441 41.1751 5.57391 46.0978 10.4966C51.0205 15.4192 54.07 22.2273 54.07 29.7425C54.07 31.1902 52.8963 32.3639 51.4486 32.3639C50.0009 32.3639 48.8272 31.1902 48.8272 29.7425C48.8272 23.6737 46.3703 18.1834 42.3906 14.2037C38.4109 10.224 32.9206 7.76713 26.8518 7.76713C25.4041 7.76713 24.2305 6.59351 24.2305 5.14577Z" fill="url(#paint0_linear_10467_41859)"/>
</g>
<path d="M26.8516 5.146C33.6436 5.146 39.7928 7.89918 44.2439 12.3504C48.6951 16.8016 51.4483 22.9507 51.4483 29.7427" stroke="url(#paint1_linear_10467_41859)" stroke-width="5.24272" stroke-miterlimit="10" stroke-linecap="round"/>
<defs>
<filter id="filter0_d_10467_41859" x="22.4829" y="0.776841" width="33.335" height="33.3345" filterUnits="userSpaceOnUse" color-interpolation-filters="sRGB">
<feFlood flood-opacity="0" result="BackgroundImageFix"/>
<feColorMatrix in="SourceAlpha" type="matrix" values="0 0 0 0 0 0 0 0 0 0 0 0 0 0 0 0 0 0 127 0" result="hardAlpha"/>
<feOffset/>
<feGaussianBlur stdDeviation="0.873787"/>
<feComposite in2="hardAlpha" operator="out"/>
<feColorMatrix type="matrix" values="0 0 0 0 0.145098 0 0 0 0 0.839216 0 0 0 0 0.584314 0 0 0 0.48 0"/>
<feBlend mode="normal" in2="BackgroundImageFix" result="effect1_dropShadow_10467_41859"/>
<feBlend mode="normal" in="SourceGraphic" in2="effect1_dropShadow_10467_41859" result="shape"/>
</filter>
<linearGradient id="paint0_linear_10467_41859" x1="54.07" y1="2.52441" x2="24.2305" y2="32.3639" gradientUnits="userSpaceOnUse">
<stop stop-color="#25D695"/>
<stop offset="1" stop-color="#179B69"/>
</linearGradient>
<linearGradient id="paint1_linear_10467_41859" x1="51.4483" y1="5.146" x2="26.8516" y2="29.7428" gradientUnits="userSpaceOnUse">
<stop stop-color="#25D695"/>
<stop offset="1" stop-color="#179B69"/>
</linearGradient>
</defs>
</svg>
