<svg width="36" height="36" viewBox="0 0 36 36" fill="none" xmlns="http://www.w3.org/2000/svg">
<path d="M18 36C27.9411 36 36 27.9411 36 18C36 8.05888 27.9411 0 18 0C8.05888 0 0 8.05888 0 18C0 27.9411 8.05888 36 18 36Z" fill="url(#paint0_linear_9976_29723)"/>
<path d="M12.6016 14.3097C13.005 14.0249 13.4559 13.8113 13.9305 13.6689C14.3339 11.0823 15.829 8.79221 18.036 7.36835C20.7413 9.48041 22.2126 11.8535 22.2126 15.0216C22.2245 17.9761 20.7888 20.7527 18.3801 22.4613C18.9733 22.7698 19.5785 23.0783 19.5785 23.0783C22.0465 21.1324 23.4704 18.1541 23.4704 15.0216C23.4466 11.2365 21.3702 7.75991 18.0478 5.93262C14.856 7.55819 12.7914 10.75 12.6016 14.3097Z" fill="white"/>
<path d="M17.5848 24.384C17.1339 24.1704 16.7305 23.8975 16.3626 23.5653C13.9184 24.5026 11.1893 24.3602 8.85177 23.1618C9.3264 19.7564 10.6435 17.3121 13.3963 15.7221C15.9592 14.239 19.0799 14.0847 21.7615 15.3187C21.7377 14.6543 21.7021 13.9779 21.7021 13.9779C18.7832 12.8151 15.4965 13.0643 12.7793 14.6305C9.50438 16.5409 7.5347 20.0768 7.61776 23.8738C10.6079 25.8078 14.4048 26.0096 17.5848 24.384Z" fill="white"/>
<path d="M23.7424 14.9863C23.778 15.4728 23.7424 15.9712 23.6356 16.4577C25.6765 18.107 26.9105 20.5394 27.041 23.1617C23.8611 24.455 21.0727 24.5381 18.3317 22.9481C15.7688 21.4768 14.072 18.8426 13.7991 15.9C13.2414 16.2559 12.6719 16.6238 12.6719 16.6238C13.1228 19.7325 14.9857 22.4616 17.7029 24.0279C21.0015 25.9026 25.0476 25.8433 28.2869 23.8736C28.4649 20.314 26.7444 16.9204 23.7424 14.9863Z" fill="white"/>
<path d="M18.0235 20.1948C17.7268 20.1948 17.4302 20.1354 17.1454 20.0286C16.8725 19.9218 16.6233 19.7557 16.3979 19.554C15.947 19.1387 15.686 18.5573 15.686 17.9522C15.6741 17.3352 15.9114 16.7419 16.3386 16.3029C16.7776 15.852 17.3827 15.6147 18.0116 15.6147C18.6405 15.6028 19.2338 15.852 19.6728 16.3029C20.0881 16.7419 20.3254 17.3352 20.3135 17.9403C20.3135 18.5454 20.0643 19.1269 19.6135 19.5421C19.3999 19.7439 19.1507 19.91 18.8778 20.0168C18.6286 20.1354 18.332 20.1948 18.0235 20.1948ZM18.0353 16.8368C17.4539 16.8249 16.9674 17.2877 16.9556 17.881C16.9556 17.8928 16.9556 17.9047 16.9556 17.9284C16.9556 18.5217 17.4421 19.0082 18.0353 19.0082C18.6286 19.0082 19.1151 18.5217 19.1151 17.9284C19.127 17.347 18.6761 16.8605 18.0947 16.8487C18.0709 16.8368 18.0472 16.8368 18.0353 16.8368Z" fill="white"/>
<defs>
<linearGradient id="paint0_linear_9976_29723" x1="0" y1="0" x2="36" y2="36" gradientUnits="userSpaceOnUse">
<stop offset="0.140131" stop-color="#6CCB3B"/>
<stop offset="0.750543" stop-color="#1D8728"/>
</linearGradient>
</defs>
</svg>
