<svg width="40" height="40" viewBox="0 0 40 40" fill="none" xmlns="http://www.w3.org/2000/svg">
<g filter="url(#filter0_b_9772_8551)">
<path fill-rule="evenodd" clip-rule="evenodd" d="M23.6045 3.33916L23.7306 3.3335C30.8739 3.3335 36.6665 9.14004 36.6665 16.2907C36.6665 16.6875 36.3452 17.0719 35.8909 17.0719C35.658 17.0719 35.4637 16.9667 35.3358 16.8354C35.2123 16.7086 35.1088 16.5137 35.1154 16.2784C35.1088 9.9908 30.0237 4.8974 23.7541 4.88522C23.3848 4.90396 22.9935 4.64905 22.9347 4.21476M23.6045 7.18333L23.7306 7.17767C28.7536 7.17767 32.8308 11.2591 32.8308 16.2907C32.8308 16.6864 32.5107 17.0719 32.0554 17.0719C31.8225 17.0719 31.6283 16.9667 31.5003 16.8354C31.3768 16.7086 31.2733 16.5138 31.28 16.2785C31.2734 12.1157 27.904 8.74147 23.7539 8.7294C23.3846 8.74803 22.9935 8.49313 22.9347 8.05893M23.6945 10.9625H23.7311C26.6668 10.9625 29.0493 13.352 29.0493 16.2909C29.0493 16.6866 28.7291 17.0721 28.2738 17.0721C28.0409 17.0721 27.8468 16.9669 27.7189 16.8357C27.5954 16.7091 27.4919 16.5145 27.4982 16.2795C27.492 14.2047 25.8104 12.521 23.7438 12.5142C23.5219 12.5207 23.3346 12.4298 23.2076 12.3171C23.0769 12.2012 22.9627 12.0203 22.9466 11.7936L22.9463 11.7892C22.918 11.3462 23.268 10.9909 23.6738 10.9639L23.6945 10.9625ZM23.6045 3.33916C23.1998 3.39405 22.8755 3.77506 22.9347 4.21476L23.6045 3.33916ZM23.6045 7.18333C23.1998 7.23822 22.8755 7.61923 22.9347 8.05893L23.6045 7.18333Z" fill="url(#paint0_linear_9772_8551)"/>
</g>
<g filter="url(#filter1_b_9772_8551)">
<path d="M19.2495 13.9015C18.83 13.7285 18.4458 14.1939 18.6291 14.609C19.6497 16.919 20.2441 20.1057 20.3899 23.4037C20.4018 23.6736 20.6227 23.8883 20.8929 23.8883H26.115C26.4105 23.8883 26.6424 23.6332 26.6001 23.3408C26.2833 21.1478 25.3685 19.0804 23.9514 17.3679C22.6873 15.8402 21.0709 14.6523 19.2495 13.9015ZM26.6001 26.7204C26.6424 26.428 26.4105 26.1729 26.115 26.1729H20.8929C20.6227 26.1729 20.4018 26.3876 20.3899 26.6575C20.2441 29.9555 19.6497 33.1422 18.6291 35.4522C18.4458 35.8672 18.83 36.3327 19.2495 36.1597C21.0709 35.4088 22.6873 34.221 23.9514 32.6933C25.3685 30.9808 26.2833 28.9133 26.6001 26.7204ZM2.73289 23.3177C2.69064 23.6102 2.92254 23.8652 3.21798 23.8652H8.44012C8.71027 23.8652 8.9312 23.6505 8.94313 23.3806C9.08889 20.0826 9.68336 16.8959 10.7039 14.5859C10.8872 14.1709 10.503 13.7055 10.0835 13.8784C8.26215 14.6293 6.64575 15.8171 5.3816 17.3448C3.96449 19.0573 3.04974 21.1248 2.73289 23.3177ZM3.21798 26.1729C2.92254 26.1729 2.69064 26.428 2.73289 26.7204C3.04974 28.9133 3.96449 30.9808 5.3816 32.6933C6.64575 34.221 8.26215 35.4088 10.0835 36.1597C10.503 36.3327 10.8872 35.8673 10.7039 35.4522C9.68336 33.1422 9.08889 29.9555 8.94313 26.6575C8.9312 26.3876 8.71027 26.1729 8.44012 26.1729H3.21798Z" fill="url(#paint1_linear_9772_8551)" fill-opacity="0.5"/>
</g>
<path d="M11.491 23.8658H17.8425C17.9837 23.8658 18.0969 23.7474 18.0913 23.6063C17.8449 17.3793 15.946 13.3335 14.6668 13.3335C13.3875 13.3335 11.4886 17.3793 11.2422 23.6063C11.2366 23.7474 11.3498 23.8658 11.491 23.8658Z" fill="url(#paint2_linear_9772_8551)"/>
<path d="M18.0913 26.433C17.8449 32.6644 15.946 36.7058 14.6668 36.7058C13.3875 36.7058 11.4886 32.66 11.2422 26.433C11.2366 26.2919 11.3498 26.1735 11.491 26.1735H17.8425C17.9837 26.1735 18.0969 26.2919 18.0913 26.433Z" fill="url(#paint3_linear_9772_8551)"/>
<defs>
<filter id="filter0_b_9772_8551" x="-9.07227" y="-28.6665" width="77.7388" height="77.7388" filterUnits="userSpaceOnUse" color-interpolation-filters="sRGB">
<feFlood flood-opacity="0" result="BackgroundImageFix"/>
<feGaussianBlur in="BackgroundImageFix" stdDeviation="16"/>
<feComposite in2="SourceAlpha" operator="in" result="effect1_backgroundBlur_9772_8551"/>
<feBlend mode="normal" in="SourceGraphic" in2="effect1_backgroundBlur_9772_8551" result="shape"/>
</filter>
<filter id="filter1_b_9772_8551" x="-29.272" y="-18.1587" width="87.877" height="86.3555" filterUnits="userSpaceOnUse" color-interpolation-filters="sRGB">
<feFlood flood-opacity="0" result="BackgroundImageFix"/>
<feGaussianBlur in="BackgroundImageFix" stdDeviation="16"/>
<feComposite in2="SourceAlpha" operator="in" result="effect1_backgroundBlur_9772_8551"/>
<feBlend mode="normal" in="SourceGraphic" in2="effect1_backgroundBlur_9772_8551" result="shape"/>
</filter>
<linearGradient id="paint0_linear_9772_8551" x1="37.4914" y1="38.4798" x2="12.6325" y2="28.179" gradientUnits="userSpaceOnUse">
<stop stop-color="#767676" stop-opacity="0.25"/>
<stop offset="1" stop-color="#767676" stop-opacity="0.65"/>
</linearGradient>
<linearGradient id="paint1_linear_9772_8551" x1="26.6658" y1="36.5805" x2="-1.13634" y2="-7.48907" gradientUnits="userSpaceOnUse">
<stop stop-color="#767676" stop-opacity="0.25"/>
<stop offset="1" stop-color="#767676" stop-opacity="0.65"/>
</linearGradient>
<linearGradient id="paint2_linear_9772_8551" x1="18.1006" y1="13.3335" x2="5.45689" y2="17.0487" gradientUnits="userSpaceOnUse">
<stop stop-color="#25D695"/>
<stop offset="1" stop-color="#179B69"/>
</linearGradient>
<linearGradient id="paint3_linear_9772_8551" x1="18.1006" y1="13.3335" x2="5.45689" y2="17.0487" gradientUnits="userSpaceOnUse">
<stop stop-color="#25D695"/>
<stop offset="1" stop-color="#179B69"/>
</linearGradient>
</defs>
</svg>
