<svg width="40" height="40" viewBox="0 0 40 40" fill="none" xmlns="http://www.w3.org/2000/svg">
<path d="M15.7291 29.3533C15.6602 29.0981 15.3976 28.9471 15.1424 29.0156L13.89 29.3508H13.8902C13.5927 29.4131 13.2829 29.3725 13.0113 29.2359L11.1628 28.156C11.0611 28.1203 10.9931 28.0243 10.9931 27.9165C10.9931 27.8088 11.0611 27.7128 11.1628 27.677L13.0113 26.609V26.6092C13.2829 26.4726 13.5927 26.432 13.8902 26.4941L15.1425 26.8293H15.1424C15.3976 26.898 15.6601 26.747 15.7291 26.4918L15.9687 25.5651H15.9685C16.0371 25.3099 15.886 25.0474 15.6309 24.9785L14.9126 24.7893C14.6593 24.7183 14.5109 24.4564 14.5797 24.2027L14.7689 23.4843C14.8376 23.2291 14.6864 22.9665 14.4314 22.8977L13.5047 22.6582C13.2495 22.5895 12.9869 22.7407 12.9179 22.9959L12.5827 24.2482V24.2481C12.489 24.5369 12.2988 24.7847 12.044 24.9497L10.1956 26.0177C9.96809 26.1493 9.78135 26.0416 9.78135 25.7782L9.78118 23.6448C9.79822 23.3414 9.91731 23.053 10.1187 22.8259L11.0359 21.9087C11.2216 21.722 11.2216 21.4203 11.0359 21.2334L10.3582 20.5558C10.1715 20.3701 9.86984 20.3701 9.68295 20.5558L9.16099 21.0754C8.97426 21.2611 8.6726 21.2611 8.48571 21.0754L7.96375 20.5558C7.77702 20.3701 7.47536 20.3701 7.28847 20.5558L6.61083 21.2334C6.42527 21.4203 6.42527 21.722 6.61083 21.9087L7.52796 22.8259C7.73307 23.0517 7.85532 23.3403 7.8752 23.6448V25.7782C7.8752 26.0416 7.68847 26.1493 7.46098 26.0177L5.61253 24.9497H5.61236C5.35748 24.7847 5.16724 24.5369 5.07352 24.2481L4.7383 22.9957V22.9959C4.7074 22.8714 4.6279 22.7649 4.51766 22.6996C4.40742 22.6343 4.27563 22.6159 4.1517 22.6486L3.22504 22.8882V22.888C2.96999 22.957 2.81883 23.2195 2.88748 23.4748L3.07672 24.1932H3.07656C3.1452 24.4482 2.99404 24.7107 2.739 24.7798L2.02061 24.969V24.9688C1.76557 25.0378 1.61441 25.3004 1.68305 25.5556L1.92257 26.4823H1.9224C1.99139 26.7373 2.25395 26.8885 2.50918 26.8198L3.76153 26.4846H3.76137C4.05884 26.4225 4.36867 26.4629 4.64027 26.5995L6.50309 27.677C6.60481 27.7127 6.67279 27.8088 6.67279 27.9165C6.67279 28.0242 6.60481 28.1203 6.50309 28.156L4.65464 29.224V29.2238C4.38305 29.3605 4.07321 29.401 3.77573 29.3389L2.52338 29.0037H2.52355C2.39928 28.9711 2.26716 28.9897 2.15693 29.0555C2.04652 29.1213 1.96735 29.2285 1.93679 29.3533L1.69727 30.2799H1.69744C1.62879 30.5352 1.77995 30.7975 2.035 30.8665L2.75338 31.0558V31.0556C3.00075 31.1268 3.14773 31.3805 3.08627 31.6303L2.89703 32.3487C2.82838 32.6039 2.97954 32.8665 3.23458 32.9353L4.16125 33.1748C4.41646 33.2435 4.67901 33.0923 4.74802 32.8371L5.08324 31.5848V31.5849C5.17694 31.2961 5.36718 31.0483 5.62191 30.8833L7.47037 29.8153C7.69785 29.6837 7.88459 29.7914 7.88459 30.0548V32.1882H7.88476C7.86772 32.4916 7.74863 32.78 7.5472 33.0072L6.63007 33.9243C6.44433 34.111 6.44433 34.4127 6.63007 34.5996L7.30771 35.2772C7.49444 35.4629 7.79609 35.4629 7.98299 35.2772L8.50495 34.7576C8.69168 34.5719 8.99333 34.5719 9.18023 34.7576L9.70219 35.2772C9.88892 35.4629 10.1906 35.4629 10.3775 35.2772L11.0551 34.5996C11.2407 34.4127 11.2407 34.111 11.0551 33.9243L10.138 33.0072C9.93287 32.7813 9.81061 32.4927 9.79074 32.1882V30.0548C9.79074 29.7914 9.97747 29.6837 10.205 29.8153L12.0534 30.8833H12.0536C12.3085 31.0483 12.4987 31.2962 12.5924 31.5849L12.9276 32.8373V32.8371C12.9585 32.9616 13.038 33.0681 13.1483 33.1334C13.2585 33.1987 13.3903 33.2171 13.5142 33.1844L14.4409 32.9449V32.945C14.6959 32.876 14.8471 32.6135 14.7785 32.3582L14.5892 31.6399H14.5894C14.5207 31.3848 14.6719 31.1223 14.9269 31.0533L15.6453 30.864V30.8642C15.9004 30.7952 16.0515 30.5326 15.9829 30.2774L15.7291 29.3533Z" fill="url(#paint0_linear_9772_8510)"/>
<g filter="url(#filter0_b_9772_8510)">
<path fill-rule="evenodd" clip-rule="evenodd" d="M23.4165 35.4165C31.7017 35.4165 38.4165 28.7002 38.4165 20.4165C38.4165 12.1328 31.7017 5.4165 23.4165 5.4165C15.5737 5.4165 9.13428 11.437 8.47217 19.1084C8.59229 19.1655 8.71533 19.2358 8.82373 19.3193C9.59717 18.7305 10.7075 18.7876 11.4194 19.4951L12.0991 20.1763C12.4097 20.4868 12.5942 20.8765 12.6528 21.2793C13.0337 21.1299 13.4614 21.0947 13.8862 21.2075L14.8062 21.4448C15.7905 21.7114 16.397 22.6475 16.2681 23.6143C17.1587 23.9849 17.6626 24.9561 17.4282 25.9126L17.4224 25.9404L17.1821 26.8677C17.062 27.3115 16.813 27.6689 16.4907 27.9224C16.813 28.1758 17.0591 28.5317 17.1763 28.9624L17.4312 29.8882C17.6919 30.8594 17.1851 31.8555 16.2798 32.2305C16.3384 32.6729 16.2417 33.1064 16.0278 33.4741C18.2075 34.7104 20.73 35.4165 23.4165 35.4165Z" fill="url(#paint1_linear_9772_8510)" fill-opacity="0.5"/>
</g>
<g filter="url(#filter1_b_9772_8510)">
<path d="M27.9026 20.9293C28.3087 20.672 28.3087 20.0411 27.9004 19.7838C26.4172 18.8446 25.1577 17.5862 24.2196 16.1019C24.1197 15.9445 23.9633 15.8478 23.7961 15.812C23.529 15.7566 23.2315 15.8533 23.073 16.1019C22.1349 17.5862 20.8754 18.8446 19.39 19.7838C18.9839 20.0411 18.9839 20.672 19.39 20.9293C20.4584 21.6047 21.4096 22.4451 22.2065 23.4158C22.5193 23.7958 22.8081 24.1954 23.073 24.6134C23.3314 25.0195 23.9612 25.0195 24.2196 24.6134C25.1577 23.128 26.4172 21.8696 27.9026 20.9293Z" fill="url(#paint2_linear_9772_8510)"/>
</g>
<defs>
<filter id="filter0_b_9772_8510" x="-23.5278" y="-26.5835" width="93.9443" height="94" filterUnits="userSpaceOnUse" color-interpolation-filters="sRGB">
<feFlood flood-opacity="0" result="BackgroundImageFix"/>
<feGaussianBlur in="BackgroundImageFix" stdDeviation="16"/>
<feComposite in2="SourceAlpha" operator="in" result="effect1_backgroundBlur_9772_8510"/>
<feBlend mode="normal" in="SourceGraphic" in2="effect1_backgroundBlur_9772_8510" result="shape"/>
</filter>
<filter id="filter1_b_9772_8510" x="-12.9146" y="-16.2031" width="73.1216" height="73.1211" filterUnits="userSpaceOnUse" color-interpolation-filters="sRGB">
<feFlood flood-opacity="0" result="BackgroundImageFix"/>
<feGaussianBlur in="BackgroundImageFix" stdDeviation="16"/>
<feComposite in2="SourceAlpha" operator="in" result="effect1_backgroundBlur_9772_8510"/>
<feBlend mode="normal" in="SourceGraphic" in2="effect1_backgroundBlur_9772_8510" result="shape"/>
</filter>
<linearGradient id="paint0_linear_9772_8510" x1="1.6665" y1="20.4165" x2="1.6665" y2="35.4165" gradientUnits="userSpaceOnUse">
<stop stop-color="#25D695"/>
<stop offset="1" stop-color="#046C44"/>
</linearGradient>
<linearGradient id="paint1_linear_9772_8510" x1="38.4157" y1="35.4163" x2="1.78305" y2="-20.5288" gradientUnits="userSpaceOnUse">
<stop stop-color="#767676" stop-opacity="0.25"/>
<stop offset="1" stop-color="#767676" stop-opacity="0.65"/>
</linearGradient>
<linearGradient id="paint2_linear_9772_8510" x1="31.8805" y1="43.7235" x2="10.0407" y2="34.6733" gradientUnits="userSpaceOnUse">
<stop stop-color="#767676" stop-opacity="0.25"/>
<stop offset="1" stop-color="#767676" stop-opacity="0.65"/>
</linearGradient>
</defs>
</svg>
