<svg width="40" height="40" viewBox="0 0 40 40" fill="none" xmlns="http://www.w3.org/2000/svg">
<path fill-rule="evenodd" clip-rule="evenodd" d="M15.2743 22.6794C16.1805 19.5672 16.3775 19.5276 15.5895 17.7942C15.5895 17.7942 17.4412 18.8187 17.52 20.5914C19.093 18.7614 19.3334 14.434 17.5986 13.5C17.5986 13.5 22.5236 15.7851 22.1688 20.237C22.1688 20.237 23.0554 19.2129 22.7798 17.5977C28.0924 25.093 23.5265 29.646 19.4915 29.4964C16.6704 29.3919 14.149 26.5447 15.2742 22.6795L15.2743 22.6794Z" fill="url(#paint0_linear_9772_8531)"/>
<g filter="url(#filter0_b_9772_8531)">
<path fill-rule="evenodd" clip-rule="evenodd" d="M18.503 2.26741C18.1465 1.91086 17.5684 1.91086 17.2118 2.26741C16.8553 2.62396 16.8553 3.20204 17.2118 3.55859L19.3507 5.69745C11.0031 6.03681 4.33984 12.9114 4.33984 21.3423C4.33984 29.99 11.3502 37.0003 19.9979 37.0003C28.6455 37.0003 35.6559 29.99 35.6559 21.3423C35.6559 20.7624 35.1858 20.2923 34.6059 20.2923C34.026 20.2923 33.556 20.7624 33.556 21.3423C33.556 28.8302 27.4858 34.9004 19.9979 34.9004C12.5099 34.9004 6.43975 28.8302 6.43975 21.3423C6.43975 14.0445 12.2057 8.0933 19.4304 7.79588L17.2118 10.0145C16.8553 10.371 16.8553 10.9491 17.2118 11.3057C17.5684 11.6622 18.1465 11.6622 18.503 11.3057L21.731 8.07772C22.4441 7.36462 22.4441 6.20846 21.731 5.49536L18.503 2.26741Z" fill="url(#paint1_linear_9772_8531)" fill-opacity="0.5"/>
</g>
<defs>
<filter id="filter0_b_9772_8531" x="-27.6602" y="-30" width="95.3159" height="99.0005" filterUnits="userSpaceOnUse" color-interpolation-filters="sRGB">
<feFlood flood-opacity="0" result="BackgroundImageFix"/>
<feGaussianBlur in="BackgroundImageFix" stdDeviation="16"/>
<feComposite in2="SourceAlpha" operator="in" result="effect1_backgroundBlur_9772_8531"/>
<feBlend mode="normal" in="SourceGraphic" in2="effect1_backgroundBlur_9772_8531" result="shape"/>
</filter>
<linearGradient id="paint0_linear_9772_8531" x1="15" y1="13.5" x2="15" y2="29.5" gradientUnits="userSpaceOnUse">
<stop stop-color="#25D695"/>
<stop offset="1" stop-color="#046C44"/>
</linearGradient>
<linearGradient id="paint1_linear_9772_8531" x1="35.655" y1="37.0001" x2="-8.59197" y2="-24.335" gradientUnits="userSpaceOnUse">
<stop stop-color="#767676" stop-opacity="0.25"/>
<stop offset="1" stop-color="#767676" stop-opacity="0.65"/>
</linearGradient>
</defs>
</svg>
