<svg width="40" height="40" viewBox="0 0 40 40" fill="none" xmlns="http://www.w3.org/2000/svg">
<g filter="url(#filter0_b_9772_8518)">
<path fill-rule="evenodd" clip-rule="evenodd" d="M19.8381 37.4578C5.24648 28.9933 3.21504 22.3167 3.18359 9.19589C3.18318 9.02257 3.32484 8.87869 3.49813 8.87594C11.7001 8.74576 18.5379 3.57799 19.7923 2.57239C19.9127 2.47587 20.0834 2.47587 20.2038 2.57238C21.4581 3.57799 28.296 8.74576 36.4979 8.87594C36.6712 8.87869 36.8129 9.02257 36.8125 9.19588C36.781 22.3167 34.7496 28.9933 20.1579 37.4578C20.0609 37.5141 19.9351 37.5141 19.8381 37.4578Z" fill="url(#paint0_linear_9772_8518)" fill-opacity="0.5"/>
</g>
<path fill-rule="evenodd" clip-rule="evenodd" d="M19.9978 13.3135C21.8141 13.3135 23.2867 14.8193 23.2867 16.6777C23.2867 17.6758 22.8618 18.5721 22.1871 19.188C22.0284 19.3328 21.9413 19.5454 21.9823 19.7562L22.8992 24.4736C23.0326 25.1595 22.5072 25.7968 21.8085 25.7968H18.1867C17.488 25.7968 16.9627 25.1595 17.0961 24.4736L18.0133 19.7563C18.0543 19.5454 17.9672 19.3327 17.8085 19.1879C17.1339 18.5721 16.709 17.6758 16.709 16.6777C16.709 14.8193 18.1815 13.3135 19.9978 13.3135Z" fill="url(#paint1_linear_9772_8518)"/>
<defs>
<filter id="filter0_b_9772_8518" x="-28.8164" y="-29.5" width="97.6289" height="99" filterUnits="userSpaceOnUse" color-interpolation-filters="sRGB">
<feFlood flood-opacity="0" result="BackgroundImageFix"/>
<feGaussianBlur in="BackgroundImageFix" stdDeviation="16"/>
<feComposite in2="SourceAlpha" operator="in" result="effect1_backgroundBlur_9772_8518"/>
<feBlend mode="normal" in="SourceGraphic" in2="effect1_backgroundBlur_9772_8518" result="shape"/>
</filter>
<linearGradient id="paint0_linear_9772_8518" x1="36.8115" y1="37.4998" x2="-6.58545" y2="-26.1794" gradientUnits="userSpaceOnUse">
<stop stop-color="#767676" stop-opacity="0.25"/>
<stop offset="1" stop-color="#767676" stop-opacity="0.65"/>
</linearGradient>
<linearGradient id="paint1_linear_9772_8518" x1="16.709" y1="13.3135" x2="16.709" y2="25.7968" gradientUnits="userSpaceOnUse">
<stop stop-color="#25D695"/>
<stop offset="1" stop-color="#046C44"/>
</linearGradient>
</defs>
</svg>
