<svg width="40" height="40" viewBox="0 0 40 40" fill="none" xmlns="http://www.w3.org/2000/svg">
<g filter="url(#filter0_b_9772_8538)">
<path fill-rule="evenodd" clip-rule="evenodd" d="M3.3335 10.1962V9.21585C3.3335 5.96712 5.96712 3.3335 9.21585 3.3335H24.9021H26.8629H30.7845C34.0332 3.3335 36.6668 5.96712 36.6668 9.21585V30.7845C36.6668 34.0332 34.0332 36.6668 30.7845 36.6668H9.21585C5.96712 36.6668 3.3335 34.0332 3.3335 30.7845V10.1962Z" fill="url(#paint0_linear_9772_8538)" fill-opacity="0.5"/>
</g>
<path d="M15.8894 26.1826L14.8 25.2975L24.1106 13.8252L25.2 14.7103L15.8894 26.1826ZM23.2596 26.1486C22.4199 26.1486 21.756 25.916 21.2681 25.4507C20.7801 24.9741 20.5362 24.333 20.5362 23.5273V23.4252C20.5362 22.6082 20.7801 21.967 21.2681 21.5018C21.756 21.0252 22.4199 20.7869 23.2596 20.7869C24.0879 20.7869 24.7518 21.0252 25.2511 21.5018C25.7504 21.967 26 22.6082 26 23.4252V23.5273C26 24.333 25.7504 24.9741 25.2511 25.4507C24.7631 25.916 24.0993 26.1486 23.2596 26.1486ZM23.2596 24.9571C23.6681 24.9571 23.9858 24.8323 24.2128 24.5826C24.4511 24.333 24.5702 24.0039 24.5702 23.5954V23.3571C24.5702 22.9373 24.4511 22.6025 24.2128 22.3529C23.9858 22.1032 23.6681 21.9784 23.2596 21.9784C22.8624 21.9784 22.5447 22.1032 22.3064 22.3529C22.0794 22.6025 21.966 22.9373 21.966 23.3571V23.5954C21.966 24.0039 22.0794 24.333 22.3064 24.5826C22.5447 24.8323 22.8624 24.9571 23.2596 24.9571ZM16.7404 19.2209C15.9007 19.2209 15.2312 18.9883 14.7319 18.5231C14.244 18.0465 14 17.4053 14 16.5997V16.4805C14 15.6635 14.244 15.0224 14.7319 14.5571C15.2312 14.0919 15.9007 13.8592 16.7404 13.8592C17.5688 13.8592 18.227 14.0919 18.7149 14.5571C19.2142 15.0224 19.4638 15.6635 19.4638 16.4805V16.5997C19.4638 17.4053 19.2199 18.0465 18.7319 18.5231C18.244 18.9883 17.5801 19.2209 16.7404 19.2209ZM16.7404 18.0295C17.1376 18.0295 17.4496 17.9046 17.6766 17.655C17.9149 17.394 18.034 17.0592 18.034 16.6507V16.4124C18.034 16.0039 17.9149 15.6748 17.6766 15.4252C17.4496 15.1756 17.1376 15.0507 16.7404 15.0507C16.3319 15.0507 16.0085 15.1756 15.7702 15.4252C15.5433 15.6748 15.4298 16.0039 15.4298 16.4124V16.6507C15.4298 17.0592 15.5433 17.394 15.7702 17.655C16.0085 17.9046 16.3319 18.0295 16.7404 18.0295Z" fill="url(#paint1_linear_9772_8538)"/>
<defs>
<filter id="filter0_b_9772_8538" x="-28.6665" y="-28.6665" width="97.3335" height="97.3335" filterUnits="userSpaceOnUse" color-interpolation-filters="sRGB">
<feFlood flood-opacity="0" result="BackgroundImageFix"/>
<feGaussianBlur in="BackgroundImageFix" stdDeviation="16"/>
<feComposite in2="SourceAlpha" operator="in" result="effect1_backgroundBlur_9772_8538"/>
<feBlend mode="normal" in="SourceGraphic" in2="effect1_backgroundBlur_9772_8538" result="shape"/>
</filter>
<linearGradient id="paint0_linear_9772_8538" x1="36.6659" y1="36.8846" x2="16.0231" y2="-11.8367" gradientUnits="userSpaceOnUse">
<stop stop-color="#767676" stop-opacity="0.25"/>
<stop offset="1" stop-color="#767676" stop-opacity="0.65"/>
</linearGradient>
<linearGradient id="paint1_linear_9772_8538" x1="14" y1="13.8252" x2="14" y2="26.1826" gradientUnits="userSpaceOnUse">
<stop stop-color="#25D695"/>
<stop offset="1" stop-color="#046C44"/>
</linearGradient>
</defs>
</svg>
