<svg width="20" height="20" viewBox="0 0 20 20" fill="none" xmlns="http://www.w3.org/2000/svg">
<g clip-path="url(#clip0_9882_27711)">
<path d="M18.8359 17.7707L14.3392 13.2739C15.5646 11.7752 16.1671 9.86284 16.022 7.93236C15.877 6.00188 14.9955 4.201 13.5599 2.90221C12.1243 1.60343 10.2444 0.906119 8.30909 0.954508C6.37378 1.0029 4.53109 1.79329 3.16219 3.16219C1.79329 4.53109 1.0029 6.37378 0.954508 8.30909C0.906119 10.2444 1.60343 12.1243 2.90221 13.5599C4.201 14.9955 6.00188 15.877 7.93236 16.022C9.86284 16.1671 11.7752 15.5646 13.2739 14.3392L17.7707 18.8359C17.9128 18.9731 18.1031 19.0491 18.3006 19.0474C18.4981 19.0456 18.6871 18.9664 18.8267 18.8267C18.9664 18.6871 19.0456 18.4981 19.0474 18.3006C19.0491 18.1031 18.9731 17.9128 18.8359 17.7707ZM8.50975 14.5365C7.31777 14.5365 6.15255 14.1831 5.16145 13.5209C4.17035 12.8586 3.39788 11.9174 2.94172 10.8161C2.48557 9.71486 2.36622 8.50307 2.59876 7.33399C2.83131 6.1649 3.40531 5.09103 4.24817 4.24817C5.09103 3.40531 6.1649 2.83131 7.33399 2.59876C8.50307 2.36622 9.71486 2.48557 10.8161 2.94172C11.9174 3.39788 12.8586 4.17035 13.5209 5.16145C14.1831 6.15255 14.5365 7.31777 14.5365 8.50975C14.5348 10.1076 13.8992 11.6395 12.7694 12.7694C11.6395 13.8992 10.1076 14.5348 8.50975 14.5365Z" fill="#5E6773"/>
</g>
<defs>
<clipPath id="clip0_9882_27711">
<rect width="20" height="20" fill="white"/>
</clipPath>
</defs>
</svg>
