<svg width="40" height="40" viewBox="0 0 40 40" fill="none" xmlns="http://www.w3.org/2000/svg">
<g filter="url(#filter0_b_9772_8524)">
<path fill-rule="evenodd" clip-rule="evenodd" d="M5.8925 9.40507C5.48847 9.57823 5.48845 10.151 5.89247 10.3242L19.8004 16.2861C19.9262 16.34 20.0686 16.34 20.1944 16.2861L34.1023 10.3242C34.5064 10.151 34.5063 9.57823 34.1023 9.40507L20.1944 3.44428C20.0686 3.39037 19.9262 3.39037 19.8004 3.44428L5.8925 9.40507Z" fill="url(#paint0_linear_9772_8524)"/>
</g>
<g filter="url(#filter1_b_9772_8524)">
<path d="M23.9734 35.4472L35.7887 30.3834C36.524 30.0683 37.0008 29.3452 37.0008 28.5452V14.6908C37.0008 13.255 35.5327 12.2869 34.213 12.8525L22.3977 17.9163C21.6623 18.2314 21.1855 18.9545 21.1855 19.7546V33.6089C21.1855 35.0448 22.6537 36.0128 23.9734 35.4472Z" fill="url(#paint1_linear_9772_8524)" fill-opacity="0.5"/>
</g>
<path d="M3.60608 30.1237L17.4214 36.0446C18.0812 36.3274 18.8153 35.8434 18.8153 35.1255V19.0955C18.8153 18.6954 18.5769 18.3339 18.2092 18.1763L4.39394 12.2552C3.73407 11.9723 3 12.4564 3 13.1743V29.2046C3 29.6046 3.2384 29.9661 3.60608 30.1237Z" fill="url(#paint2_linear_9772_8524)"/>
<defs>
<filter id="filter0_b_9772_8524" x="-26.4106" y="-28.5962" width="92.8159" height="76.9229" filterUnits="userSpaceOnUse" color-interpolation-filters="sRGB">
<feFlood flood-opacity="0" result="BackgroundImageFix"/>
<feGaussianBlur in="BackgroundImageFix" stdDeviation="16"/>
<feComposite in2="SourceAlpha" operator="in" result="effect1_backgroundBlur_9772_8524"/>
<feBlend mode="normal" in="SourceGraphic" in2="effect1_backgroundBlur_9772_8524" result="shape"/>
</filter>
<filter id="filter1_b_9772_8524" x="-10.8145" y="-19.3115" width="79.8154" height="86.9224" filterUnits="userSpaceOnUse" color-interpolation-filters="sRGB">
<feFlood flood-opacity="0" result="BackgroundImageFix"/>
<feGaussianBlur in="BackgroundImageFix" stdDeviation="16"/>
<feComposite in2="SourceAlpha" operator="in" result="effect1_backgroundBlur_9772_8524"/>
<feBlend mode="normal" in="SourceGraphic" in2="effect1_backgroundBlur_9772_8524" result="shape"/>
</filter>
<linearGradient id="paint0_linear_9772_8524" x1="36.9969" y1="36.6439" x2="3.7319" y2="4.48574" gradientUnits="userSpaceOnUse">
<stop stop-color="#767676" stop-opacity="0.25"/>
<stop offset="1" stop-color="#767676" stop-opacity="0.65"/>
</linearGradient>
<linearGradient id="paint1_linear_9772_8524" x1="37.0004" y1="36.6419" x2="3.73538" y2="4.48365" gradientUnits="userSpaceOnUse">
<stop stop-color="#767676" stop-opacity="0.25"/>
<stop offset="1" stop-color="#767676" stop-opacity="0.65"/>
</linearGradient>
<linearGradient id="paint2_linear_9772_8524" x1="3" y1="11.6577" x2="3" y2="36.642" gradientUnits="userSpaceOnUse">
<stop stop-color="#25D695"/>
<stop offset="1" stop-color="#046C44"/>
</linearGradient>
</defs>
</svg>
