<svg width="16" height="16" viewBox="0 0 16 16" fill="none" xmlns="http://www.w3.org/2000/svg">
<path fill-rule="evenodd" clip-rule="evenodd" d="M8 1.31982L9.49903 4.26902L12.5689 2.93084L11.6025 6.21635L15 7.00985L11.8737 8.86718L14.1556 11.6483L10.5283 11.1245L10.4311 14.6759L8 12.0159L5.56895 14.6759L5.47156 11.1245L1.84438 11.6483L4.07529 8.86718L1 7.00985L4.40421 6.20208L3.43105 2.93084L6.50836 4.26566L8 1.31982V1.31982ZM9.61891 10.8018C8.07035 11.6958 6.09012 11.1653 5.19621 9.61687C4.30213 8.06831 4.8327 6.08807 6.38109 5.19416C7.92965 4.30008 9.90989 4.83065 10.8038 6.37905C11.6979 7.92761 11.1673 9.90784 9.61891 10.8018Z" fill="#5E6773"/>
</svg>
