<svg width="7" height="7" viewBox="0 0 7 7" fill="none" xmlns="http://www.w3.org/2000/svg">
<g clip-path="url(#clip0_10500_4262)">
<path fill-rule="evenodd" clip-rule="evenodd" d="M1.1323 0.559177C1.16966 0.521499 1.22046 0.500249 1.27354 0.500071L3.97372 0.5C4.0331 0.500134 4.0894 0.526651 4.1273 0.57232L5.62728 2.37207C5.6571 2.40818 5.67331 2.45362 5.67304 2.5005V6.30068C5.67286 6.35348 5.65179 6.40406 5.61447 6.44143C5.57711 6.47875 5.52653 6.49982 5.47371 6.5H1.27354C1.22074 6.49982 1.17016 6.47875 1.13279 6.44143C1.09547 6.40407 1.0744 6.35349 1.07422 6.30068V0.700867C1.07404 0.647792 1.09489 0.596811 1.1323 0.559177ZM3.77305 0.900157H1.47434V6.10134H5.27303V2.70135H3.97385C3.86278 2.70175 3.7726 2.61163 3.77305 2.50056V0.900157ZM4.17316 1.25279V2.30123H5.04674L4.17316 1.25279Z" fill="#6C6F78"/>
<path d="M2.37108 3.49902C2.31804 3.49925 2.26724 3.52054 2.22991 3.55817C2.19255 3.59581 2.17165 3.64679 2.17188 3.69983C2.17206 3.7526 2.19313 3.80313 2.23045 3.84046C2.26777 3.87778 2.3183 3.89885 2.37107 3.89903H4.37185C4.42461 3.89885 4.47515 3.87778 4.51247 3.84046C4.54979 3.80314 4.57087 3.7526 4.57104 3.69983C4.57127 3.6468 4.55037 3.59581 4.51301 3.55817C4.47569 3.52054 4.42489 3.49925 4.37185 3.49902H2.37108ZM2.37108 4.29941C2.31804 4.29964 2.26724 4.32089 2.22991 4.35856C2.19255 4.3962 2.17165 4.44718 2.17188 4.50022C2.17206 4.55299 2.19313 4.60352 2.23045 4.64085C2.26777 4.67817 2.3183 4.69924 2.37107 4.69942H4.37185C4.42461 4.69924 4.47515 4.67817 4.51247 4.64085C4.5498 4.60353 4.57087 4.55299 4.57104 4.50022C4.57127 4.44718 4.55037 4.3962 4.51301 4.35856C4.47569 4.32089 4.42489 4.29964 4.37185 4.29941H2.37108Z" fill="#6C6F78"/>
</g>
<defs>
<clipPath id="clip0_10500_4262">
<rect width="6" height="6" fill="white" transform="translate(0.375 0.5)"/>
</clipPath>
</defs>
</svg>
