<svg width="40" height="40" viewBox="0 0 40 40" fill="none" xmlns="http://www.w3.org/2000/svg">
<g filter="url(#filter0_b_9772_8486)">
<circle cx="20.0002" cy="20.0002" r="16.6667" fill="url(#paint0_linear_9772_8486)" fill-opacity="0.5"/>
</g>
<g filter="url(#filter1_b_9772_8486)">
<circle cx="19.998" cy="20.0004" r="14.0351" fill="url(#paint1_linear_9772_8486)" fill-opacity="0.5"/>
</g>
<path d="M24.9995 19.9982C22.8394 21.086 21.0867 22.8396 20.0002 25C18.9131 22.8398 17.1601 21.0862 15 19.9982C17.1596 18.9111 18.9125 17.1589 20.0002 15C21.0873 17.159 22.84 18.9113 24.9995 19.9982ZM24.9995 19.9982C22.8394 21.086 21.0867 22.8396 20.0002 25C18.9131 22.8398 17.1601 21.0862 15 19.9982C17.1596 18.9111 18.9125 17.1589 20.0002 15C21.0873 17.159 22.84 18.9113 24.9995 19.9982ZM24.9995 19.9982C22.8394 21.086 21.0867 22.8396 20.0002 25C18.9131 22.8398 17.1601 21.0862 15 19.9982C17.1596 18.9111 18.9125 17.1589 20.0002 15C21.0873 17.159 22.84 18.9113 24.9995 19.9982Z" fill="url(#paint2_linear_9772_8486)"/>
<defs>
<filter id="filter0_b_9772_8486" x="-28.6665" y="-28.6665" width="97.3335" height="97.3335" filterUnits="userSpaceOnUse" color-interpolation-filters="sRGB">
<feFlood flood-opacity="0" result="BackgroundImageFix"/>
<feGaussianBlur in="BackgroundImageFix" stdDeviation="16"/>
<feComposite in2="SourceAlpha" operator="in" result="effect1_backgroundBlur_9772_8486"/>
<feBlend mode="normal" in="SourceGraphic" in2="effect1_backgroundBlur_9772_8486" result="shape"/>
</filter>
<filter id="filter1_b_9772_8486" x="-26.0371" y="-26.0347" width="92.0703" height="92.0703" filterUnits="userSpaceOnUse" color-interpolation-filters="sRGB">
<feFlood flood-opacity="0" result="BackgroundImageFix"/>
<feGaussianBlur in="BackgroundImageFix" stdDeviation="16"/>
<feComposite in2="SourceAlpha" operator="in" result="effect1_backgroundBlur_9772_8486"/>
<feBlend mode="normal" in="SourceGraphic" in2="effect1_backgroundBlur_9772_8486" result="shape"/>
</filter>
<linearGradient id="paint0_linear_9772_8486" x1="36.6659" y1="36.8846" x2="16.0231" y2="-11.8367" gradientUnits="userSpaceOnUse">
<stop stop-color="#767676" stop-opacity="0.25"/>
<stop offset="1" stop-color="#767676" stop-opacity="0.65"/>
</linearGradient>
<linearGradient id="paint1_linear_9772_8486" x1="34.0323" y1="34.2189" x2="16.6489" y2="-6.80958" gradientUnits="userSpaceOnUse">
<stop stop-color="#767676" stop-opacity="0.25"/>
<stop offset="1" stop-color="#767676" stop-opacity="0.65"/>
</linearGradient>
<linearGradient id="paint2_linear_9772_8486" x1="15" y1="15" x2="15" y2="25" gradientUnits="userSpaceOnUse">
<stop stop-color="#25D695"/>
<stop offset="1" stop-color="#046C44"/>
</linearGradient>
</defs>
</svg>
