<svg width="7" height="7" viewBox="0 0 7 7" fill="none" xmlns="http://www.w3.org/2000/svg">
<path opacity="0.15" d="M0.40625 3.61649C0.40625 5.37085 1.82844 6.79305 3.5828 6.79305C5.33716 6.79305 6.75935 5.37085 6.75935 3.61649C6.75935 1.86213 5.33716 0.439941 3.5828 0.439941C1.82844 0.439941 0.40625 1.86213 0.40625 3.61649Z" fill="#25D695"/>
<path d="M2.38156 1.92897C2.2814 1.92897 2.19997 2.01044 2.19997 2.11053C2.19997 2.21073 2.2814 2.29212 2.38156 2.29212C3.77435 2.29212 4.90745 3.42529 4.90745 4.81808C4.90745 4.91825 4.98889 4.99964 5.08908 4.99964C5.18923 4.99964 5.27067 4.91825 5.27067 4.81808C5.27063 3.22501 3.97463 1.92897 2.38156 1.92897Z" fill="#25D695" stroke="#25D695" stroke-width="0.0453793"/>
<path d="M2.57045 3.09499C2.45013 3.09499 2.35231 3.19281 2.35231 3.31312C2.35231 3.43339 2.45013 3.53126 2.57045 3.53126C3.24399 3.53126 3.79189 4.0792 3.79189 4.75263C3.79189 4.87293 3.88967 4.97076 4.01002 4.97076C4.13034 4.97076 4.22812 4.87293 4.22812 4.75263C4.22808 3.83861 3.4845 3.09499 2.57045 3.09499Z" fill="#25D695" stroke="#25D695" stroke-width="0.0453793"/>
<path d="M3.13135 4.87891C3.13135 4.46118 2.79265 4.12256 2.375 4.12256V4.87891H3.13135Z" fill="#25D695"/>
</svg>
