<svg width="32" height="32" viewBox="0 0 32 32" fill="none" xmlns="http://www.w3.org/2000/svg">
<path d="M16 8C18.1736 8 18.4448 8.008 19.2976 8.048C20.1496 8.088 20.7296 8.2216 21.24 8.42C21.768 8.6232 22.2128 8.8984 22.6576 9.3424C23.0644 9.74232 23.3792 10.2261 23.58 10.76C23.7776 11.2696 23.912 11.8504 23.952 12.7024C23.9896 13.5552 24 13.8264 24 16C24 18.1736 23.992 18.4448 23.952 19.2976C23.912 20.1496 23.7776 20.7296 23.58 21.24C23.3797 21.7742 23.0649 22.2581 22.6576 22.6576C22.2576 23.0643 21.7738 23.379 21.24 23.58C20.7304 23.7776 20.1496 23.912 19.2976 23.952C18.4448 23.9896 18.1736 24 16 24C13.8264 24 13.5552 23.992 12.7024 23.952C11.8504 23.912 11.2704 23.7776 10.76 23.58C10.2259 23.3796 9.74202 23.0648 9.3424 22.6576C8.93553 22.2577 8.62075 21.774 8.42 21.24C8.2216 20.7304 8.088 20.1496 8.048 19.2976C8.0104 18.4448 8 18.1736 8 16C8 13.8264 8.008 13.5552 8.048 12.7024C8.088 11.8496 8.2216 11.2704 8.42 10.76C8.62019 10.2257 8.93504 9.74186 9.3424 9.3424C9.74214 8.93538 10.2259 8.62058 10.76 8.42C11.2704 8.2216 11.8496 8.088 12.7024 8.048C13.5552 8.0104 13.8264 8 16 8ZM16 12C14.9391 12 13.9217 12.4214 13.1716 13.1716C12.4214 13.9217 12 14.9391 12 16C12 17.0609 12.4214 18.0783 13.1716 18.8284C13.9217 19.5786 14.9391 20 16 20C17.0609 20 18.0783 19.5786 18.8284 18.8284C19.5786 18.0783 20 17.0609 20 16C20 14.9391 19.5786 13.9217 18.8284 13.1716C18.0783 12.4214 17.0609 12 16 12ZM21.2 11.8C21.2 11.5348 21.0946 11.2804 20.9071 11.0929C20.7196 10.9054 20.4652 10.8 20.2 10.8C19.9348 10.8 19.6804 10.9054 19.4929 11.0929C19.3054 11.2804 19.2 11.5348 19.2 11.8C19.2 12.0652 19.3054 12.3196 19.4929 12.5071C19.6804 12.6946 19.9348 12.8 20.2 12.8C20.4652 12.8 20.7196 12.6946 20.9071 12.5071C21.0946 12.3196 21.2 12.0652 21.2 11.8ZM16 13.6C16.6365 13.6 17.247 13.8529 17.6971 14.3029C18.1471 14.753 18.4 15.3635 18.4 16C18.4 16.6365 18.1471 17.247 17.6971 17.6971C17.247 18.1471 16.6365 18.4 16 18.4C15.3635 18.4 14.753 18.1471 14.3029 17.6971C13.8529 17.247 13.6 16.6365 13.6 16C13.6 15.3635 13.8529 14.753 14.3029 14.3029C14.753 13.8529 15.3635 13.6 16 13.6Z" fill="#5E6773"/>
</svg>
