<svg width="40" height="498" viewBox="0 0 40 498" fill="none" xmlns="http://www.w3.org/2000/svg">
<g filter="url(#filter0_i_10467_41740)">
<rect x="1" y="1" width="33.6408" height="495.874" rx="3" fill="url(#paint0_linear_10467_41740)"/>
</g>
<rect x="0.71875" y="0.71875" width="34.2033" height="496.436" rx="3.28125" stroke="url(#paint1_linear_10467_41740)" stroke-opacity="0.1" stroke-width="0.5625"/>
<rect opacity="0.15" x="6.24219" y="39.4468" width="23.1554" height="23.1553" rx="1.74757" fill="#25D695"/>
<path d="M20.6476 188.123L20.5465 188.249L20.6186 188.393C20.7301 188.616 20.8277 188.848 20.9004 189.091L20.9487 189.251L21.1155 189.268L22.1579 189.375L22.1578 190.564L21.1154 190.671L20.9423 190.688L20.898 190.857C20.8394 191.079 20.7446 191.306 20.6237 191.523L20.5411 191.672L20.6484 191.804L21.2948 192.598L20.4628 193.43L19.6421 192.769L19.5104 192.663L19.3626 192.746C19.1494 192.864 18.934 192.948 18.6877 193.022L18.527 193.07L18.51 193.237L18.4036 194.28H17.2269L17.1205 193.237L17.1028 193.064L16.9345 193.02C16.7119 192.961 16.4855 192.866 16.268 192.746L16.1202 192.663L15.9884 192.769L15.1677 193.43L14.335 192.598L14.9958 191.777L15.1018 191.645L15.0197 191.497C14.9013 191.284 14.817 191.069 14.7431 190.823L14.6949 190.662L14.528 190.645L13.4856 190.538V189.362L14.528 189.255L14.7011 189.238L14.7454 189.069C14.804 188.847 14.8988 188.62 15.0197 188.403L15.1019 188.255L14.9958 188.123L14.335 187.302L15.1677 186.47L15.9884 187.131L16.1201 187.237L16.2679 187.154C16.4811 187.036 16.6965 186.952 16.9428 186.878L17.1035 186.83L17.1205 186.663L17.2269 185.62H18.4166L18.523 186.663L18.5407 186.836L18.709 186.88C18.9316 186.939 19.158 187.034 19.3755 187.154L19.5233 187.237L19.6551 187.131L20.4757 186.47L21.3084 187.302L20.6476 188.123Z" stroke="#5E6773" stroke-width="0.502427"/>
<mask id="path-5-inside-1_10467_41740" fill="white">
<path d="M16.6239 191.168C17.2838 191.828 18.3579 191.828 19.0178 191.168C19.6778 190.508 19.6778 189.421 19.0178 188.774C18.3578 188.114 17.2838 188.114 16.6239 188.774C15.9639 189.434 15.9639 190.508 16.6239 191.168Z"/>
</mask>
<path d="M19.0178 191.168L18.6626 190.812L18.6625 190.812L19.0178 191.168ZM16.6239 191.168L16.2686 191.523L16.2686 191.523L16.6239 191.168ZM16.6239 188.774L16.2686 188.418L16.2686 188.419L16.6239 188.774ZM19.0178 188.774L18.6625 189.129L18.6661 189.133L19.0178 188.774ZM18.6625 190.812C18.1988 191.276 17.4429 191.276 16.9791 190.812L16.2686 191.523C17.1248 192.379 18.5169 192.379 19.3731 191.523L18.6625 190.812ZM16.9791 190.812C16.5154 190.349 16.5154 189.593 16.9791 189.129L16.2686 188.419C15.4125 189.275 15.4124 190.667 16.2686 191.523L16.9791 190.812ZM16.9791 189.129C17.4428 188.665 18.1988 188.665 18.6626 189.129L19.3731 188.418C18.5169 187.562 17.1247 187.562 16.2686 188.418L16.9791 189.129ZM18.6661 189.133C19.1232 189.581 19.1283 190.347 18.6626 190.812L19.3731 191.523C20.2274 190.669 20.2324 189.261 19.3695 188.415L18.6661 189.133Z" fill="#868991" mask="url(#path-5-inside-1_10467_41740)"/>
<g clip-path="url(#clip0_10467_41740)">
<path fill-rule="evenodd" clip-rule="evenodd" d="M15.2713 167.403H20.3684C21.442 167.403 22.3155 168.277 22.3155 169.35C22.3155 170.424 21.442 171.297 20.3684 171.297H15.2713C14.1977 171.297 13.3242 170.424 13.3242 169.35C13.3242 168.277 14.1977 167.403 15.2713 167.403ZM15.2713 170.801H20.3684C21.1686 170.801 21.8193 170.15 21.8193 169.35C21.8193 168.55 21.1686 167.899 20.3684 167.899H15.2713C14.4711 167.899 13.8204 168.55 13.8204 169.35C13.8204 170.15 14.4711 170.801 15.2713 170.801Z" fill="#5E6773"/>
<path fill-rule="evenodd" clip-rule="evenodd" d="M15.2752 166.199H20.3723C21.4459 166.199 22.3194 165.325 22.3194 164.252C22.3194 163.178 21.4459 162.305 20.3723 162.305H15.2752C14.2016 162.305 13.3281 163.178 13.3281 164.252C13.3281 165.325 14.2016 166.199 15.2752 166.199ZM15.2754 162.801H20.3725C21.1727 162.801 21.8234 163.452 21.8234 164.252C21.8234 165.052 21.1727 165.703 20.3725 165.703H15.2754C14.4753 165.703 13.8245 165.052 13.8245 164.252C13.8245 163.452 14.4753 162.801 15.2754 162.801Z" fill="#868991"/>
<path fill-rule="evenodd" clip-rule="evenodd" d="M15.2753 165.18C15.7868 165.18 16.203 164.764 16.203 164.252C16.203 163.741 15.7868 163.325 15.2753 163.325C14.7639 163.325 14.3477 163.741 14.3477 164.252C14.3477 164.764 14.7639 165.18 15.2753 165.18ZM15.2755 163.821C15.5136 163.821 15.707 164.014 15.707 164.252C15.707 164.49 15.5136 164.684 15.2755 164.684C15.0375 164.684 14.844 164.49 14.844 164.252C14.844 164.014 15.0375 163.821 15.2755 163.821Z" fill="#868991"/>
<path fill-rule="evenodd" clip-rule="evenodd" d="M20.3691 168.422C19.8576 168.422 19.4414 168.839 19.4414 169.35C19.4414 169.862 19.8576 170.278 20.3691 170.278C20.8806 170.278 21.2967 169.862 21.2967 169.35C21.2967 168.839 20.8806 168.422 20.3691 168.422ZM20.3693 169.782C20.1312 169.782 19.9378 169.588 19.9378 169.35C19.9378 169.112 20.1312 168.919 20.3693 168.919C20.6073 168.919 20.8008 169.112 20.8008 169.35C20.8008 169.588 20.6073 169.782 20.3693 169.782Z" fill="#5E6773"/>
</g>
<g clip-path="url(#clip1_10467_41740)">
<path fill-rule="evenodd" clip-rule="evenodd" d="M14.3974 139.149C14.4545 139.091 14.5322 139.059 14.6134 139.059L18.7423 139.059C18.8331 139.059 18.9192 139.099 18.9771 139.169L21.2708 141.921C21.3164 141.976 21.3412 142.046 21.3408 142.118V147.929C21.3405 148.009 21.3083 148.087 21.2512 148.144C21.1941 148.201 21.1167 148.233 21.036 148.233H14.6134C14.5326 148.233 14.4553 148.201 14.3982 148.144C14.3411 148.087 14.3089 148.009 14.3086 147.929V139.366C14.3083 139.285 14.3402 139.207 14.3974 139.149ZM18.4354 139.67H14.9204V147.624H20.7291V142.425H18.7425C18.5727 142.425 18.4348 142.288 18.4354 142.118V139.67ZM19.0473 140.21V141.813H20.3831L19.0473 140.21Z" fill="#5E6773"/>
<path d="M16.2929 143.646C16.2118 143.646 16.1341 143.678 16.077 143.736C16.0199 143.794 15.9879 143.871 15.9883 143.953C15.9886 144.033 16.0208 144.111 16.0778 144.168C16.1349 144.225 16.2122 144.257 16.2929 144.257H19.3523C19.433 144.257 19.5103 144.225 19.5674 144.168C19.6244 144.111 19.6566 144.033 19.6569 143.953C19.6573 143.871 19.6253 143.794 19.5682 143.736C19.5111 143.678 19.4334 143.646 19.3523 143.646H16.2929ZM16.2929 144.869C16.2118 144.87 16.1341 144.902 16.077 144.96C16.0199 145.017 15.9879 145.095 15.9883 145.176C15.9886 145.257 16.0208 145.334 16.0778 145.391C16.1349 145.449 16.2122 145.481 16.2929 145.481H19.3523C19.433 145.481 19.5103 145.449 19.5674 145.391C19.6244 145.334 19.6566 145.257 19.6569 145.176C19.6573 145.095 19.6253 145.017 19.5682 144.96C19.5111 144.902 19.4334 144.87 19.3523 144.869H16.2929Z" fill="#868991"/>
</g>
<g clip-path="url(#clip2_10467_41740)">
<path d="M19.7248 117.838C19.7721 117.791 19.7986 117.727 19.7984 117.66C19.7982 117.593 19.7713 117.529 19.7237 117.482L18.8713 116.64C18.773 116.543 18.6148 116.544 18.5171 116.641L15.4512 119.707L14.3106 118.782C14.2354 118.721 14.1318 118.708 14.0443 118.75C13.9568 118.792 13.9011 118.88 13.9011 118.977V123.055C13.9011 123.157 13.9623 123.249 14.0562 123.288C14.1501 123.326 14.2581 123.305 14.33 123.233L19.7248 117.838Z" stroke="#868991" stroke-width="0.502427" stroke-linejoin="round"/>
<path d="M16.0452 123.129C15.998 123.176 15.9715 123.24 15.9714 123.306C15.9714 123.373 15.9979 123.437 16.045 123.484L16.8974 124.337C16.9445 124.384 17.0084 124.41 17.0751 124.41C17.1417 124.41 17.2056 124.384 17.2527 124.337L20.3003 121.289L21.3096 122.307C21.3813 122.379 21.4895 122.401 21.5836 122.363C21.6778 122.324 21.7392 122.232 21.7392 122.13V118.052C21.7392 117.95 21.6781 117.859 21.5843 117.82C21.4905 117.781 21.3825 117.802 21.3106 117.874L16.0452 123.129Z" stroke="#5E6773" stroke-width="0.502427" stroke-linejoin="round"/>
</g>
<g clip-path="url(#clip3_10467_41740)">
<path d="M17.7778 94.9627C17.7778 95.7353 17.1667 96.352 16.4247 96.352C15.6826 96.352 15.0715 95.7353 15.0715 94.9627C15.0715 94.1902 15.6826 93.5735 16.4247 93.5735C17.1667 93.5735 17.7778 94.1902 17.7778 94.9627Z" stroke="#868991" stroke-width="0.502427" stroke-linejoin="round"/>
<path d="M20.9693 95.3359C20.9693 95.878 20.541 96.3079 20.0243 96.3079C19.5077 96.3079 19.0793 95.878 19.0793 95.3359C19.0793 94.7939 19.5077 94.364 20.0243 94.364C20.541 94.364 20.9693 94.7939 20.9693 95.3359Z" stroke="#5E6773" stroke-width="0.502427" stroke-linejoin="round"/>
<path d="M22.1553 99.491L22.1553 99.491L22.1556 99.4928C22.1644 99.5468 22.1527 99.5919 22.0946 99.648C22.0265 99.7137 21.9021 99.7832 21.7095 99.844C21.3501 99.9573 20.8348 100.015 20.2572 100.021C20.071 98.9464 19.6943 98.068 19.1353 97.4275C19.3838 97.3066 19.6747 97.2429 20.0252 97.2429C20.6379 97.2429 21.104 97.449 21.4479 97.8163C21.7979 98.1901 22.0404 98.7516 22.1553 99.491Z" stroke="#5E6773" stroke-width="0.502427" stroke-linejoin="round"/>
<path d="M16.4222 101.101C15.5522 101.101 14.7538 101.022 14.1972 100.854C13.917 100.77 13.7216 100.67 13.6069 100.565C13.5024 100.47 13.4739 100.383 13.4896 100.284C13.6537 99.2779 13.9875 98.5112 14.4711 97.9987C14.9486 97.4925 15.5909 97.2141 16.4222 97.2141C17.2526 97.2141 17.895 97.4955 18.373 98.0038C18.857 98.5183 19.1908 99.2854 19.3547 100.284C19.3704 100.383 19.3419 100.47 19.2374 100.565C19.1227 100.67 18.9273 100.77 18.6472 100.854C18.0906 101.022 17.2922 101.101 16.4222 101.101Z" stroke="#868991" stroke-width="0.502427" stroke-linejoin="round"/>
</g>
<g clip-path="url(#clip4_10467_41740)">
<path d="M22.2238 71.453L17.9444 69.618C17.8674 69.585 17.7803 69.585 17.7034 69.618L13.4239 71.453H13.424C13.3697 71.4779 13.3232 71.5173 13.2898 71.5669C13.2564 71.6165 13.2372 71.6743 13.2344 71.734V76.6273C13.2344 76.6871 13.2519 76.7456 13.2849 76.7956C13.3179 76.8456 13.3647 76.8848 13.4197 76.9083L17.7013 78.7433C17.7779 78.7763 17.8647 78.7763 17.9414 78.7433L22.2229 76.9083C22.2781 76.8849 22.3251 76.8457 22.3582 76.7958C22.3914 76.7459 22.4091 76.6872 22.4091 76.6273V71.734C22.4085 71.6743 22.3906 71.616 22.3578 71.5662C22.3249 71.5164 22.2784 71.4771 22.2238 71.453L22.2238 71.453ZM17.5161 77.9986L13.8461 76.4257V72.1976L17.5161 73.7705V77.9986ZM17.8219 73.2366L14.3168 71.734L17.8219 70.2318L21.327 71.734L17.8219 73.2366ZM21.7976 76.4257L18.1277 77.9986V73.7704L21.7976 72.1976V76.4257Z" fill="#868991"/>
</g>
<path d="M13.3672 54.4975V50.6129C13.3672 49.9118 13.6973 49.2517 14.2582 48.831L17.1538 46.6592C17.3466 46.5146 17.581 46.4365 17.822 46.4365C18.063 46.4365 18.2974 46.5146 18.4902 46.6592L21.3858 48.831C21.9467 49.2517 22.2768 49.9118 22.2768 50.6129V54.4975C22.2768 54.793 22.1594 55.0762 21.9506 55.2851C21.7417 55.4939 21.4584 55.6113 21.1631 55.6113H19.8823C19.7346 55.6113 19.593 55.5526 19.4886 55.4481C19.3841 55.3437 19.3255 55.2021 19.3255 55.0545V53.1054C19.3255 52.6927 19.1558 52.2979 18.8561 52.0141C18.5564 51.7301 18.1533 51.5818 17.741 51.6041C17.3471 51.639 16.981 51.8223 16.7169 52.1168C16.4529 52.4113 16.3104 52.795 16.3184 53.1905V55.0545C16.3184 55.2021 16.2598 55.3437 16.1553 55.4481C16.0509 55.5526 15.9093 55.6113 15.7616 55.6113H14.4808C14.1855 55.6113 13.9022 55.4939 13.6933 55.2851C13.4845 55.0762 13.3672 54.793 13.3672 54.4975Z" fill="url(#paint2_linear_10467_41740)"/>
<path d="M16.9435 15.4194C16.6843 15.4194 16.4309 15.4963 16.2153 15.6403C15.9998 15.7843 15.8318 15.989 15.7326 16.2285C15.6334 16.468 15.6074 16.7316 15.658 16.9858C15.7086 17.2401 15.8334 17.4736 16.0167 17.6569C16.2 17.8402 16.4335 17.965 16.6878 18.0156C16.942 18.0662 17.2056 18.0402 17.4451 17.941C17.6846 17.8418 17.8893 17.6738 18.0333 17.4583C18.1773 17.2427 18.2542 16.9893 18.2542 16.7301C18.2542 16.3825 18.1161 16.0491 17.8703 15.8033C17.6245 15.5575 17.2911 15.4194 16.9435 15.4194Z" fill="#25D695"/>
<path d="M16.9455 11.4873C16.2569 11.4865 15.5749 11.6217 14.9387 11.8852C14.3025 12.1487 13.7246 12.5353 13.2383 13.0228L15.0929 14.8774C15.4594 14.5105 15.9265 14.2606 16.435 14.1592C16.9436 14.0579 17.4708 14.1096 17.95 14.308C18.4291 14.5063 18.8387 14.8423 19.1268 15.2734C19.415 15.7045 19.5688 16.2115 19.5688 16.73C19.5688 17.2486 19.415 17.7555 19.1268 18.1866C18.8387 18.6178 18.4291 18.9538 17.95 19.1521C17.4708 19.3504 16.9436 19.4022 16.435 19.3008C15.9265 19.1995 15.4594 18.9495 15.0929 18.5827L13.2383 20.4373C13.8479 21.0469 14.5985 21.4968 15.4236 21.747C16.2486 21.9973 17.1226 22.0402 17.9682 21.872C18.8138 21.7038 19.6049 21.3296 20.2713 20.7827C20.9378 20.2357 21.459 19.5329 21.789 18.7364C22.1189 17.9398 22.2473 17.0742 22.1628 16.2162C22.0783 15.3582 21.7835 14.5343 21.3046 13.8174C20.8256 13.1006 20.1772 12.5129 19.4169 12.1064C18.6565 11.7 17.8077 11.4873 16.9455 11.4873Z" fill="#25D695"/>
<rect x="39.8828" y="21.9712" width="10.4854" height="10.4854" rx="5.24272" transform="rotate(-180 39.8828 21.9712)" fill="#373E48"/>
<path d="M33.8672 14.8784L35.7176 16.7288L33.8672 18.5792" stroke="#C3C3C3" stroke-width="0.65534"/>
<defs>
<filter id="filter0_i_10467_41740" x="-0.395834" y="0.4375" width="35.599" height="496.999" filterUnits="userSpaceOnUse" color-interpolation-filters="sRGB">
<feFlood flood-opacity="0" result="BackgroundImageFix"/>
<feBlend mode="normal" in="SourceGraphic" in2="BackgroundImageFix" result="shape"/>
<feColorMatrix in="SourceAlpha" type="matrix" values="0 0 0 0 0 0 0 0 0 0 0 0 0 0 0 0 0 0 127 0" result="hardAlpha"/>
<feOffset dx="-0.833334"/>
<feGaussianBlur stdDeviation="1.66667"/>
<feComposite in2="hardAlpha" operator="arithmetic" k2="-1" k3="1"/>
<feColorMatrix type="matrix" values="0 0 0 0 0 0 0 0 0 0 0 0 0 0 0 0 0 0 0.16 0"/>
<feBlend mode="normal" in2="shape" result="effect1_innerShadow_10467_41740"/>
</filter>
<linearGradient id="paint0_linear_10467_41740" x1="1" y1="228.275" x2="34.6408" y2="228.275" gradientUnits="userSpaceOnUse">
<stop stop-color="#1D222C"/>
<stop offset="0.693115" stop-color="#16191F"/>
</linearGradient>
<linearGradient id="paint1_linear_10467_41740" x1="33.109" y1="390.883" x2="-7.49186" y2="389.997" gradientUnits="userSpaceOnUse">
<stop offset="0.277679" stop-color="white"/>
<stop offset="1" stop-color="white" stop-opacity="0"/>
</linearGradient>
<linearGradient id="paint2_linear_10467_41740" x1="22.2768" y1="46.4365" x2="13.106" y2="55.3423" gradientUnits="userSpaceOnUse">
<stop stop-color="#25D695"/>
<stop offset="1" stop-color="#179B69"/>
</linearGradient>
<clipPath id="clip0_10467_41740">
<rect width="9.17476" height="9.17476" fill="white" transform="translate(13.2344 162.214)"/>
</clipPath>
<clipPath id="clip1_10467_41740">
<rect width="9.17476" height="9.17476" fill="white" transform="translate(13.2344 139.059)"/>
</clipPath>
<clipPath id="clip2_10467_41740">
<rect width="9.17476" height="9.17476" fill="white" transform="translate(13.2344 115.903)"/>
</clipPath>
<clipPath id="clip3_10467_41740">
<rect width="9.17476" height="9.17476" fill="white" transform="translate(13.2344 92.748)"/>
</clipPath>
<clipPath id="clip4_10467_41740">
<rect width="9.17476" height="9.17476" fill="white" transform="translate(13.2344 69.5928)"/>
</clipPath>
</defs>
</svg>
