<svg width="38" height="14" viewBox="0 0 38 14" fill="none" xmlns="http://www.w3.org/2000/svg">
<path opacity="0.25" d="M26.2383 10.3748C26.2383 9.93426 26.5954 9.57715 27.0359 9.57715H36.3323C36.7728 9.57715 37.1299 9.93426 37.1299 10.3748V12.7677C37.1299 13.2082 36.7728 13.5653 36.3323 13.5653H27.0359C26.5954 13.5653 26.2383 13.2082 26.2383 12.7677V10.3748Z" fill="#868991"/>
<path d="M35.5385 11.5728C35.5385 11.7736 35.5051 11.949 35.4382 12.0992C35.3712 12.2475 35.2709 12.3632 35.137 12.4464C35.0032 12.5296 34.8368 12.5712 34.6378 12.5712C34.4334 12.5712 34.2643 12.5296 34.1305 12.4464C33.9966 12.3632 33.8972 12.2466 33.832 12.0964C33.7669 11.9463 33.7344 11.7709 33.7344 11.5701C33.7344 11.3712 33.7669 11.1975 33.832 11.0492C33.899 10.9009 33.9993 10.7851 34.1332 10.7019C34.267 10.6187 34.4361 10.5771 34.6405 10.5771C34.8395 10.5771 35.005 10.6187 35.137 10.7019C35.2709 10.7833 35.3712 10.8991 35.4382 11.0492C35.5051 11.1975 35.5385 11.3721 35.5385 11.5728ZM34.0437 11.5728C34.0437 11.8043 34.0916 11.987 34.1875 12.1209C34.2833 12.2547 34.4334 12.3216 34.6378 12.3216C34.844 12.3216 34.9941 12.2547 35.0882 12.1209C35.1822 11.987 35.2293 11.8043 35.2293 11.5728C35.2293 11.3413 35.1822 11.1595 35.0882 11.0275C34.9959 10.8955 34.8467 10.8295 34.6405 10.8295C34.4343 10.8295 34.2833 10.8955 34.1875 11.0275C34.0916 11.1595 34.0437 11.3413 34.0437 11.5728Z" fill="#A5A8B2"/>
<path d="M32.1836 12.5435L31.5976 10.8967H31.5867C31.5885 10.9347 31.5913 10.9845 31.5949 11.046C31.5985 11.1056 31.6012 11.1708 31.603 11.2413C31.6048 11.3118 31.6057 11.3815 31.6057 11.4502V12.5435H31.3398V10.6064H31.7577L32.3138 12.161H32.3247L32.8971 10.6064H33.3149V12.5435H33.0301V11.4339C33.0301 11.3724 33.031 11.3082 33.0328 11.2413C33.0364 11.1726 33.0391 11.1084 33.0409 11.0487C33.0445 10.989 33.0472 10.9392 33.0491 10.8995H33.0382L32.4359 12.5435H32.1836Z" fill="#A5A8B2"/>
<path d="M30.9188 12.5435H29.8281V10.6064H30.9188V10.856H30.1211V11.4095H30.8699V11.6564H30.1211V12.2912H30.9188V12.5435Z" fill="#A5A8B2"/>
<path d="M29.408 11.556C29.408 11.8834 29.3175 12.1303 29.1367 12.2967C28.9576 12.4613 28.7062 12.5435 28.3824 12.5435H27.8398V10.6064H28.4394C28.6366 10.6064 28.8075 10.6426 28.9522 10.715C29.0969 10.7873 29.209 10.894 29.2886 11.0351C29.3682 11.1744 29.408 11.348 29.408 11.556ZM29.1014 11.5641C29.1014 11.32 29.0417 11.1409 28.9223 11.027C28.8048 10.9112 28.6375 10.8533 28.4204 10.8533H28.1329V12.2967H28.3689C28.8572 12.2967 29.1014 12.0525 29.1014 11.5641Z" fill="#A5A8B2"/>
<path d="M24.3596 12.734H22.7969V12.4671L23.3959 11.8583C23.5131 11.7389 23.6108 11.6358 23.6889 11.549C23.7671 11.46 23.8257 11.3753 23.8647 11.295C23.9038 11.2126 23.9233 11.1236 23.9233 11.0281C23.9233 10.9109 23.8886 10.8219 23.8191 10.7611C23.7497 10.7003 23.6596 10.67 23.5489 10.67C23.4426 10.67 23.3471 10.6895 23.2624 10.7286C23.1778 10.7676 23.0899 10.8241 22.9987 10.8979L22.8132 10.6667C22.9065 10.5886 23.0128 10.5213 23.1322 10.4649C23.2516 10.4063 23.3937 10.377 23.5587 10.377C23.7801 10.377 23.9537 10.4334 24.0796 10.5462C24.2076 10.6591 24.2717 10.81 24.2717 10.9988C24.2717 11.1225 24.2467 11.2375 24.1968 11.3439C24.1469 11.4481 24.0763 11.5522 23.9852 11.6564C23.894 11.7606 23.7866 11.8724 23.6629 11.9917L23.2299 12.4117V12.428H24.3596V12.734Z" fill="#868991"/>
<path d="M22.5002 12.734H20.9375V12.4671L21.5365 11.8583C21.6537 11.7389 21.7514 11.6358 21.8295 11.549C21.9077 11.46 21.9663 11.3753 22.0053 11.295C22.0444 11.2126 22.0639 11.1236 22.0639 11.0281C22.0639 10.9109 22.0292 10.8219 21.9598 10.7611C21.8903 10.7003 21.8002 10.67 21.6896 10.67C21.5832 10.67 21.4877 10.6895 21.4031 10.7286C21.3184 10.7676 21.2305 10.8241 21.1393 10.8979L20.9538 10.6667C21.0471 10.5886 21.1535 10.5213 21.2728 10.4649C21.3922 10.4063 21.5344 10.377 21.6993 10.377C21.9207 10.377 22.0943 10.4334 22.2202 10.5462C22.3483 10.6591 22.4123 10.81 22.4123 10.9988C22.4123 11.1225 22.3873 11.2375 22.3374 11.3439C22.2875 11.4481 22.217 11.5522 22.1258 11.6564C22.0346 11.7606 21.9272 11.8724 21.8035 11.9917L21.3705 12.4117V12.428H22.5002V12.734Z" fill="#868991"/>
<path d="M20.6356 11.5688C20.6356 11.8206 20.6085 12.0355 20.5542 12.2135C20.5021 12.3914 20.4186 12.5282 20.3035 12.6237C20.1885 12.7192 20.0366 12.7669 19.8478 12.7669C19.5808 12.7669 19.3833 12.6616 19.2552 12.4511C19.1293 12.2384 19.0664 11.9443 19.0664 11.5688C19.0664 11.3192 19.0914 11.1055 19.1413 10.9275C19.1934 10.7473 19.2769 10.6106 19.392 10.5173C19.507 10.4218 19.6589 10.374 19.8478 10.374C20.1126 10.374 20.3101 10.4793 20.4403 10.6898C20.5705 10.8982 20.6356 11.1912 20.6356 11.5688ZM19.4115 11.5688C19.4115 11.8727 19.4441 12.1006 19.5092 12.2525C19.5743 12.4023 19.6871 12.4772 19.8478 12.4772C20.0062 12.4772 20.1191 12.4023 20.1863 12.2525C20.2536 12.1028 20.2873 11.8749 20.2873 11.5688C20.2873 11.2672 20.2536 11.0414 20.1863 10.8917C20.1191 10.7397 20.0062 10.6638 19.8478 10.6638C19.6871 10.6638 19.5743 10.7397 19.5092 10.8917C19.4441 11.0414 19.4115 11.2672 19.4115 11.5688Z" fill="#868991"/>
<path d="M18.7723 11.5688C18.7723 11.8206 18.7452 12.0355 18.691 12.2135C18.6389 12.3914 18.5553 12.5282 18.4403 12.6237C18.3252 12.7192 18.1733 12.7669 17.9845 12.7669C17.7175 12.7669 17.52 12.6616 17.392 12.4511C17.2661 12.2384 17.2031 11.9443 17.2031 11.5688C17.2031 11.3192 17.2281 11.1055 17.278 10.9275C17.3301 10.7473 17.4137 10.6106 17.5287 10.5173C17.6437 10.4218 17.7957 10.374 17.9845 10.374C18.2493 10.374 18.4468 10.4793 18.577 10.6898C18.7072 10.8982 18.7723 11.1912 18.7723 11.5688ZM17.5482 11.5688C17.5482 11.8727 17.5808 12.1006 17.6459 12.2525C17.711 12.4023 17.8239 12.4772 17.9845 12.4772C18.1429 12.4772 18.2558 12.4023 18.3231 12.2525C18.3903 12.1028 18.424 11.8749 18.424 11.5688C18.424 11.2672 18.3903 11.0414 18.3231 10.8917C18.2558 10.7397 18.1429 10.6638 17.9845 10.6638C17.8239 10.6638 17.711 10.7397 17.6459 10.8917C17.5808 11.0414 17.5482 11.2672 17.5482 11.5688Z" fill="#868991"/>
<path d="M16.9065 12.734H15.3438V12.4671L15.9428 11.8583C16.06 11.7389 16.1577 11.6358 16.2358 11.549C16.3139 11.46 16.3725 11.3753 16.4116 11.295C16.4507 11.2126 16.4702 11.1236 16.4702 11.0281C16.4702 10.9109 16.4355 10.8219 16.366 10.7611C16.2966 10.7003 16.2065 10.67 16.0958 10.67C15.9895 10.67 15.894 10.6895 15.8093 10.7286C15.7247 10.7676 15.6368 10.8241 15.5456 10.8979L15.36 10.6667C15.4534 10.5886 15.5597 10.5213 15.6791 10.4649C15.7985 10.4063 15.9406 10.377 16.1056 10.377C16.327 10.377 16.5006 10.4334 16.6265 10.5462C16.7545 10.6591 16.8186 10.81 16.8186 10.9988C16.8186 11.1225 16.7936 11.2375 16.7437 11.3439C16.6938 11.4481 16.6232 11.5522 16.5321 11.6564C16.4409 11.7606 16.3335 11.8724 16.2097 11.9917L15.7767 12.4117V12.428H16.9065V12.734Z" fill="#868991"/>
<path d="M14.1533 11.5688C14.1533 11.8098 14.1131 12.0203 14.0328 12.2004C13.9525 12.3784 13.8321 12.5173 13.6714 12.6172C13.5108 12.717 13.3112 12.7669 13.0724 12.7669C12.8271 12.7669 12.6242 12.717 12.4636 12.6172C12.303 12.5173 12.1836 12.3773 12.1055 12.1972C12.0273 12.017 11.9883 11.8065 11.9883 11.5656C11.9883 11.3268 12.0273 11.1185 12.1055 10.9405C12.1858 10.7625 12.3062 10.6236 12.4669 10.5238C12.6275 10.4239 12.8304 10.374 13.0757 10.374C13.3144 10.374 13.513 10.4239 13.6714 10.5238C13.8321 10.6215 13.9525 10.7604 14.0328 10.9405C14.1131 11.1185 14.1533 11.3279 14.1533 11.5688ZM12.3594 11.5688C12.3594 11.8467 12.4169 12.0659 12.532 12.2265C12.647 12.3871 12.8271 12.4674 13.0724 12.4674C13.3198 12.4674 13.5 12.3871 13.6128 12.2265C13.7257 12.0659 13.7821 11.8467 13.7821 11.5688C13.7821 11.291 13.7257 11.0729 13.6128 10.9145C13.5022 10.756 13.3231 10.6768 13.0757 10.6768C12.8282 10.6768 12.647 10.756 12.532 10.9145C12.4169 11.0729 12.3594 11.291 12.3594 11.5688Z" fill="#868991"/>
<path d="M11.6454 12.1057C11.6454 12.3119 11.5705 12.4736 11.4207 12.5908C11.271 12.708 11.0659 12.7666 10.8054 12.7666C10.6795 12.7666 10.5602 12.7557 10.4473 12.734C10.3366 12.7145 10.2422 12.6852 10.1641 12.6461V12.3141C10.2509 12.3531 10.3529 12.3889 10.4701 12.4215C10.5873 12.4519 10.7067 12.4671 10.8282 12.4671C10.9845 12.4671 11.1017 12.4367 11.1798 12.3759C11.258 12.3151 11.297 12.2338 11.297 12.1317C11.297 12.0601 11.2786 12.0004 11.2417 11.9527C11.207 11.9028 11.1516 11.8572 11.0756 11.8159C10.9997 11.7747 10.8998 11.7291 10.7761 11.6792C10.6611 11.6358 10.5591 11.5848 10.4701 11.5262C10.3833 11.4676 10.3149 11.3949 10.265 11.3081C10.2151 11.2212 10.1901 11.1149 10.1901 10.989C10.1901 10.798 10.2596 10.6483 10.3985 10.5397C10.5374 10.4312 10.7197 10.377 10.9454 10.377C11.0713 10.377 11.1874 10.39 11.2938 10.416C11.4023 10.4399 11.5054 10.4735 11.6031 10.5169L11.4924 10.8067C11.4034 10.7698 11.3122 10.7394 11.2189 10.7155C11.1277 10.6917 11.0333 10.6797 10.9356 10.6797C10.8076 10.6797 10.7099 10.7079 10.6426 10.7644C10.5754 10.8208 10.5417 10.8946 10.5417 10.9858C10.5417 11.0574 10.558 11.1182 10.5906 11.1681C10.6231 11.2158 10.6752 11.2592 10.7468 11.2983C10.8184 11.3374 10.9129 11.3808 11.0301 11.4285C11.1603 11.4806 11.271 11.536 11.3621 11.5946C11.4555 11.651 11.526 11.7204 11.5738 11.8029C11.6215 11.8832 11.6454 11.9842 11.6454 12.1057Z" fill="#868991"/>
<path d="M9.87837 12.7337H8.97656V12.5319L9.25329 12.4505V10.6957L8.97656 10.611V10.4092H9.87837V10.611L9.6049 10.6957V12.4505L9.87837 12.5319V12.7337Z" fill="#868991"/>
<path d="M11.3278 2.90292C10.8944 2.90292 10.5631 3.06473 10.3339 3.38836C10.1047 3.71199 9.99008 4.1551 9.99008 4.71772C9.99008 5.28531 10.0947 5.72594 10.304 6.03961C10.5182 6.34829 10.8595 6.50264 11.3278 6.50264C11.5421 6.50264 11.7588 6.47775 11.978 6.42796C12.1973 6.37817 12.4339 6.30846 12.688 6.21884V7.16732C12.4538 7.26192 12.2222 7.33162 11.993 7.37643C11.7638 7.42124 11.5072 7.44365 11.2232 7.44365C10.6702 7.44365 10.2168 7.33162 9.86303 7.10757C9.50929 6.87854 9.24772 6.5599 9.07832 6.15163C8.90892 5.73838 8.82422 5.25792 8.82422 4.71025C8.82422 4.17253 8.92137 3.69705 9.11568 3.2838C9.31 2.87056 9.5915 2.54693 9.96019 2.31292C10.3339 2.07892 10.7897 1.96191 11.3278 1.96191C11.5919 1.96191 11.856 1.99677 12.12 2.06647C12.3891 2.1312 12.6457 2.22082 12.8898 2.33533L12.5236 3.25393C12.3243 3.15933 12.1225 3.07718 11.9182 3.00748C11.719 2.93777 11.5221 2.90292 11.3278 2.90292Z" fill="white"/>
<path d="M17.4391 5.32265C17.4391 5.99977 17.2597 6.52255 16.901 6.89099C16.5472 7.25943 16.0639 7.44365 15.4511 7.44365C15.0724 7.44365 14.7336 7.36149 14.4347 7.19719C14.1407 7.03289 13.9091 6.7939 13.7397 6.48023C13.5703 6.16159 13.4856 5.77572 13.4856 5.32265C13.4856 4.64552 13.6624 4.12523 14.0162 3.76177C14.3699 3.39832 14.8557 3.21659 15.4735 3.21659C15.8572 3.21659 16.196 3.29874 16.4899 3.46304C16.7839 3.62734 17.0156 3.86633 17.185 4.18C17.3544 4.49367 17.4391 4.87455 17.4391 5.32265ZM14.6215 5.32265C14.6215 5.72594 14.6863 6.03214 14.8159 6.24125C14.9504 6.44538 15.1671 6.54745 15.466 6.54745C15.76 6.54745 15.9718 6.44538 16.1013 6.24125C16.2358 6.03214 16.3031 5.72594 16.3031 5.32265C16.3031 4.91936 16.2358 4.61814 16.1013 4.41898C15.9718 4.21485 15.7575 4.11278 15.4586 4.11278C15.1646 4.11278 14.9504 4.21485 14.8159 4.41898C14.6863 4.61814 14.6215 4.91936 14.6215 5.32265Z" fill="white"/>
<path d="M20.6388 3.21659C20.6936 3.21659 20.7583 3.21908 20.8331 3.22406C20.9078 3.22904 20.9676 3.2365 21.0124 3.24646L20.9302 4.29202C20.8904 4.28207 20.838 4.2746 20.7733 4.26962C20.7085 4.25966 20.6512 4.25468 20.6014 4.25468C20.4121 4.25468 20.2302 4.28953 20.0558 4.35924C19.8814 4.42396 19.7394 4.53101 19.6298 4.68037C19.5252 4.82974 19.4729 5.03387 19.4729 5.29278V7.36896H18.3593V3.29127H19.2038L19.3683 3.97835H19.4206C19.5402 3.76924 19.7046 3.59 19.9138 3.44064C20.1231 3.29127 20.3647 3.21659 20.6388 3.21659Z" fill="white"/>
<path d="M23.2886 3.21659C23.8516 3.21659 24.2976 3.3784 24.6264 3.70203C24.9552 4.02067 25.1196 4.47624 25.1196 5.06873V5.60644H22.489C22.4989 5.92011 22.5911 6.16657 22.7655 6.34581C22.9449 6.52504 23.1915 6.61466 23.5054 6.61466C23.7644 6.61466 24.0011 6.58977 24.2153 6.53998C24.4346 6.48521 24.6588 6.40306 24.888 6.29353V7.15238C24.6837 7.25196 24.4719 7.32415 24.2527 7.36896C24.0335 7.41875 23.7669 7.44365 23.453 7.44365C23.0445 7.44365 22.6833 7.36896 22.3694 7.2196C22.0555 7.06525 21.8089 6.83622 21.6295 6.53251C21.4502 6.22382 21.3605 5.83298 21.3605 5.35999C21.3605 4.887 21.4402 4.49118 21.5996 4.17253C21.764 3.85388 21.9907 3.6149 22.2797 3.45557C22.5687 3.29625 22.905 3.21659 23.2886 3.21659ZM23.2961 4.00823C23.0769 4.00823 22.8975 4.07793 22.758 4.21734C22.6185 4.35675 22.5363 4.57333 22.5114 4.86708H24.0733C24.0684 4.62312 24.0011 4.41898 23.8716 4.25468C23.747 4.09038 23.5552 4.00823 23.2961 4.00823Z" fill="white"/>
<path d="M29.7668 3.29127V7.36896H28.9148L28.7654 6.84618H28.7056C28.576 7.05529 28.3967 7.20715 28.1675 7.30175C27.9433 7.39635 27.7041 7.44365 27.45 7.44365C27.0116 7.44365 26.6603 7.32664 26.3963 7.09264C26.1322 6.85365 26.0002 6.47277 26.0002 5.94999V3.29127H27.1137V5.67366C27.1137 5.96741 27.166 6.18897 27.2707 6.33834C27.3753 6.48272 27.5422 6.55492 27.7714 6.55492C28.1102 6.55492 28.3419 6.4404 28.4664 6.21138C28.591 5.97737 28.6533 5.64378 28.6533 5.21062V3.29127H29.7668Z" fill="white"/>
<path d="M35.7249 3.21659C36.1882 3.21659 36.537 3.33608 36.7712 3.57507C37.0103 3.80907 37.1299 4.18747 37.1299 4.71025V7.36896H36.0163V4.98657C36.0163 4.39907 35.8121 4.10532 35.4035 4.10532C35.1096 4.10532 34.9003 4.20987 34.7757 4.41898C34.6512 4.6281 34.5889 4.92932 34.5889 5.32265V7.36896H33.4753V4.98657C33.4753 4.39907 33.2711 4.10532 32.8625 4.10532C32.5536 4.10532 32.3394 4.22232 32.2198 4.45633C32.1052 4.68535 32.0479 5.01645 32.0479 5.44961V7.36896H30.9344V3.29127H31.7863L31.9358 3.81405H31.9956C32.1202 3.60494 32.2896 3.45308 32.5038 3.35849C32.723 3.26389 32.9497 3.21659 33.1839 3.21659C33.4828 3.21659 33.7344 3.26638 33.9387 3.36595C34.148 3.46055 34.3099 3.60992 34.4245 3.81405H34.5216C34.6462 3.60494 34.8181 3.45308 35.0373 3.35849C35.2615 3.26389 35.4907 3.21659 35.7249 3.21659Z" fill="white"/>
<path d="M3.41117 3.73438C3.23018 3.73438 3.05326 3.78804 2.90278 3.88859C2.7523 3.98914 2.63501 4.13206 2.56575 4.29927C2.49649 4.46647 2.47837 4.65047 2.51368 4.82797C2.54899 5.00548 2.63614 5.16853 2.76411 5.29651C2.89209 5.42448 3.05514 5.51163 3.23265 5.54694C3.41015 5.58225 3.59415 5.56413 3.76135 5.49487C3.92856 5.42561 4.07148 5.30832 4.17203 5.15784C4.27258 5.00736 4.32624 4.83043 4.32624 4.64945C4.32624 4.40676 4.22983 4.174 4.05823 4.00239C3.88662 3.83078 3.65386 3.73438 3.41117 3.73438Z" fill="#25D695"/>
<path d="M3.4086 0.989261C2.92783 0.988669 2.45168 1.08307 2.00751 1.26704C1.56333 1.45101 1.15987 1.72092 0.820312 2.06127L2.11514 3.3561C2.37102 3.09997 2.69712 2.92548 3.05218 2.85471C3.40725 2.78395 3.77533 2.82008 4.10985 2.95855C4.44437 3.09701 4.73031 3.33158 4.93149 3.63259C5.13268 3.9336 5.24006 4.28751 5.24006 4.64956C5.24006 5.01161 5.13268 5.36552 4.93149 5.66653C4.73031 5.96754 4.44437 6.20211 4.10985 6.34058C3.77533 6.47904 3.40725 6.51518 3.05218 6.44441C2.69712 6.37364 2.37102 6.19915 2.11514 5.94302L0.820312 7.23785C1.24595 7.66347 1.76999 7.97755 2.346 8.15227C2.92202 8.32699 3.53223 8.35696 4.1226 8.23952C4.71296 8.12208 5.26525 7.86087 5.73055 7.479C6.19584 7.09714 6.55979 6.60642 6.79014 6.05031C7.02049 5.4942 7.11014 4.88987 7.05115 4.29084C6.99216 3.6918 6.78634 3.11656 6.45194 2.61607C6.11754 2.11558 5.66486 1.70528 5.13402 1.42151C4.60317 1.13775 4.01053 0.989283 3.4086 0.989261Z" fill="#25D695"/>
</svg>
