<svg width="24" height="24" viewBox="0 0 24 24" fill="none" xmlns="http://www.w3.org/2000/svg">
<path fill-rule="evenodd" clip-rule="evenodd" d="M4.37167 7.29874C4.39667 7.0529 4.3025 6.8104 4.11917 6.6454L2.2525 4.3954V4.05957H8.05083L12.5325 13.8887L16.4725 4.05957H22V4.3954L20.4033 5.92624C20.2658 6.03124 20.1975 6.20374 20.2258 6.37457V17.6229C20.1975 17.7929 20.2658 17.9654 20.4033 18.0704L21.9625 19.6012V19.9371H14.1192V19.6012L15.735 18.0329C15.8933 17.8746 15.8933 17.8279 15.8933 17.5854V8.49374L11.4025 19.9004H10.7958L5.56667 8.49374V16.1387C5.52333 16.4596 5.63 16.7837 5.85583 17.0154L7.95667 19.5637V19.9004H2V19.5637L4.10083 17.0154C4.32583 16.7829 4.42583 16.4571 4.37167 16.1387V7.29874Z" fill="#5E6773"/>
</svg>
