<svg width="6" height="6" viewBox="0 0 6 6" fill="none" xmlns="http://www.w3.org/2000/svg">
<g clip-path="url(#clip0_10467_43643)">
<rect x="0.402344" y="0.793457" width="5.14299" height="5.14299" rx="2.57149" fill="url(#paint0_linear_10467_43643)"/>
<path d="M2.97003 2.9541C2.88866 2.9541 2.80911 2.97823 2.74145 3.02344C2.67379 3.06865 2.62105 3.13291 2.58991 3.20809C2.55877 3.28327 2.55062 3.366 2.5665 3.44581C2.58238 3.52562 2.62156 3.59893 2.6791 3.65647C2.73664 3.71401 2.80995 3.7532 2.88977 3.76907C2.96958 3.78495 3.0523 3.7768 3.12748 3.74566C3.20266 3.71452 3.26692 3.66179 3.31213 3.59412C3.35734 3.52646 3.38147 3.44692 3.38147 3.36554C3.38147 3.25642 3.33812 3.15177 3.26096 3.07461C3.1838 2.99745 3.07915 2.9541 2.97003 2.9541Z" fill="white"/>
<path d="M2.97235 1.7207C2.75618 1.72044 2.5421 1.76288 2.34238 1.8456C2.14267 1.92832 1.96127 2.04967 1.80859 2.20271L2.39078 2.78489C2.50583 2.66973 2.65245 2.59127 2.8121 2.55945C2.97174 2.52764 3.13724 2.54388 3.28765 2.60614C3.43806 2.6684 3.56662 2.77387 3.65708 2.90921C3.74753 3.04455 3.79581 3.20368 3.79581 3.36646C3.79581 3.52925 3.74753 3.68837 3.65708 3.82371C3.56662 3.95905 3.43806 4.06452 3.28765 4.12678C3.13724 4.18904 2.97174 4.20529 2.8121 4.17347C2.65245 4.14165 2.50583 4.06319 2.39078 3.94803L1.80859 4.53022C1.99997 4.72158 2.23559 4.8628 2.49458 4.94136C2.75357 5.01992 3.02794 5.03339 3.29338 4.98059C3.55882 4.92779 3.80714 4.81034 4.01635 4.63865C4.22556 4.46695 4.3892 4.24631 4.49277 3.99627C4.59634 3.74623 4.63665 3.47451 4.61012 3.20517C4.5836 2.93583 4.49106 2.67719 4.3407 2.45216C4.19035 2.22712 3.98682 2.04264 3.74814 1.91506C3.50945 1.78747 3.24299 1.72071 2.97235 1.7207Z" fill="white"/>
</g>
<defs>
<linearGradient id="paint0_linear_10467_43643" x1="5.54533" y1="0.793457" x2="0.402344" y2="5.93645" gradientUnits="userSpaceOnUse">
<stop stop-color="#25D695"/>
<stop offset="1" stop-color="#179B69"/>
</linearGradient>
<clipPath id="clip0_10467_43643">
<rect width="5.14299" height="5.14299" fill="white" transform="translate(0.394531 0.788086)"/>
</clipPath>
</defs>
</svg>
