<svg width="9" height="8" viewBox="0 0 9 8" fill="none" xmlns="http://www.w3.org/2000/svg">
<path d="M8.33275 4.03503C8.33275 6.12355 6.63967 7.81664 4.55114 7.81664C2.46262 7.81664 0.769531 6.12355 0.769531 4.03503C0.769531 1.9465 2.46262 0.253418 4.55114 0.253418C6.63967 0.253418 8.33275 1.9465 8.33275 4.03503ZM1.33677 4.03503C1.33677 5.81027 2.77589 7.2494 4.55114 7.2494C6.32639 7.2494 7.76551 5.81027 7.76551 4.03503C7.76551 2.25978 6.32639 0.820659 4.55114 0.820659C2.77589 0.820659 1.33677 2.25978 1.33677 4.03503Z" fill="#5E6773"/>
<path d="M4.55114 0.537039C4.55114 0.380399 4.67831 0.252311 4.83451 0.264048C5.43275 0.309 6.01319 0.495795 6.52703 0.810675C7.12167 1.17507 7.60396 1.69681 7.92058 2.31821C8.2372 2.93961 8.37581 3.63647 8.32109 4.33173C8.27381 4.93252 8.08376 5.51189 7.76849 6.02231C7.68617 6.15557 7.5078 6.18316 7.38107 6.09109C7.25435 5.99902 7.22745 5.82222 7.308 5.68787C7.56276 5.26295 7.71653 4.78369 7.7556 4.28722C7.80211 3.69625 7.68429 3.10392 7.41516 2.57573C7.14604 2.04755 6.73609 1.60407 6.23064 1.29433C5.80603 1.03412 5.32792 0.876821 4.8344 0.833163C4.67837 0.81936 4.55114 0.693678 4.55114 0.537039Z" fill="#25D695"/>
</svg>
