<svg width="48" height="49" viewBox="0 0 48 49" fill="none" xmlns="http://www.w3.org/2000/svg">
<g filter="url(#filter0_b_9882_27780)">
<path fill-rule="evenodd" clip-rule="evenodd" d="M23.9496 45.1609C35.0837 45.1609 44.1096 36.1349 44.1096 25.0009C44.1096 13.8668 35.0837 4.84088 23.9496 4.84088C12.8155 4.84088 3.78961 13.8668 3.78961 25.0009C3.78961 36.1349 12.8155 45.1609 23.9496 45.1609ZM23.9496 46.6009C35.879 46.6009 45.5496 36.9302 45.5496 25.0009C45.5496 13.0715 35.879 3.40088 23.9496 3.40088C12.0203 3.40088 2.34961 13.0715 2.34961 25.0009C2.34961 36.9302 12.0203 46.6009 23.9496 46.6009Z" fill="url(#paint0_linear_9882_27780)" fill-opacity="0.5"/>
</g>
<ellipse cx="23.9496" cy="25.0004" rx="9.6" ry="9.6" fill="#336955"/>
<circle cx="23.9498" cy="25.001" r="6.72" transform="rotate(-45 23.9498 25.001)" fill="url(#paint1_linear_9882_27780)"/>
<g filter="url(#filter1_b_9882_27780)">
<circle cx="6.19014" cy="34.6011" r="5.04" transform="rotate(-45 6.19014 34.6011)" fill="url(#paint2_linear_9882_27780)"/>
</g>
<g filter="url(#filter2_b_9882_27780)">
<circle cx="23.9511" cy="4.36133" r="4.032" transform="rotate(-45 23.9511 4.36133)" fill="url(#paint3_linear_9882_27780)"/>
</g>
<g filter="url(#filter3_b_9882_27780)">
<circle cx="39.3098" cy="39.8774" r="3.024" transform="rotate(-45 39.3098 39.8774)" fill="url(#paint4_linear_9882_27780)"/>
</g>
<defs>
<filter id="filter0_b_9882_27780" x="-29.6504" y="-28.5991" width="107.2" height="107.2" filterUnits="userSpaceOnUse" color-interpolation-filters="sRGB">
<feFlood flood-opacity="0" result="BackgroundImageFix"/>
<feGaussianBlur in="BackgroundImageFix" stdDeviation="16"/>
<feComposite in2="SourceAlpha" operator="in" result="effect1_backgroundBlur_9882_27780"/>
<feBlend mode="normal" in="SourceGraphic" in2="effect1_backgroundBlur_9882_27780" result="shape"/>
</filter>
<filter id="filter1_b_9882_27780" x="-30.8496" y="-2.43896" width="74.0801" height="74.0801" filterUnits="userSpaceOnUse" color-interpolation-filters="sRGB">
<feFlood flood-opacity="0" result="BackgroundImageFix"/>
<feGaussianBlur in="BackgroundImageFix" stdDeviation="16"/>
<feComposite in2="SourceAlpha" operator="in" result="effect1_backgroundBlur_9882_27780"/>
<feBlend mode="normal" in="SourceGraphic" in2="effect1_backgroundBlur_9882_27780" result="shape"/>
</filter>
<filter id="filter2_b_9882_27780" x="-12.0811" y="-31.6709" width="72.0645" height="72.0645" filterUnits="userSpaceOnUse" color-interpolation-filters="sRGB">
<feFlood flood-opacity="0" result="BackgroundImageFix"/>
<feGaussianBlur in="BackgroundImageFix" stdDeviation="16"/>
<feComposite in2="SourceAlpha" operator="in" result="effect1_backgroundBlur_9882_27780"/>
<feBlend mode="normal" in="SourceGraphic" in2="effect1_backgroundBlur_9882_27780" result="shape"/>
</filter>
<filter id="filter3_b_9882_27780" x="4.28613" y="4.85352" width="70.0479" height="70.0479" filterUnits="userSpaceOnUse" color-interpolation-filters="sRGB">
<feFlood flood-opacity="0" result="BackgroundImageFix"/>
<feGaussianBlur in="BackgroundImageFix" stdDeviation="16"/>
<feComposite in2="SourceAlpha" operator="in" result="effect1_backgroundBlur_9882_27780"/>
<feBlend mode="normal" in="SourceGraphic" in2="effect1_backgroundBlur_9882_27780" result="shape"/>
</filter>
<linearGradient id="paint0_linear_9882_27780" x1="45.5484" y1="46.8831" x2="18.7953" y2="-16.2597" gradientUnits="userSpaceOnUse">
<stop stop-color="#767676" stop-opacity="0.25"/>
<stop offset="1" stop-color="#767676" stop-opacity="0.65"/>
</linearGradient>
<linearGradient id="paint1_linear_9882_27780" x1="30.6698" y1="18.281" x2="17.2298" y2="31.721" gradientUnits="userSpaceOnUse">
<stop stop-color="#25D695"/>
<stop offset="1" stop-color="#179B69"/>
</linearGradient>
<linearGradient id="paint2_linear_9882_27780" x1="11.8353" y1="55.3479" x2="-6.40346" y2="47.7903" gradientUnits="userSpaceOnUse">
<stop stop-color="#767676" stop-opacity="0.25"/>
<stop offset="1" stop-color="#767676" stop-opacity="0.65"/>
</linearGradient>
<linearGradient id="paint3_linear_9882_27780" x1="28.4673" y1="20.9588" x2="13.8763" y2="14.9127" gradientUnits="userSpaceOnUse">
<stop stop-color="#767676" stop-opacity="0.25"/>
<stop offset="1" stop-color="#767676" stop-opacity="0.65"/>
</linearGradient>
<linearGradient id="paint4_linear_9882_27780" x1="42.6969" y1="52.3255" x2="31.7536" y2="47.791" gradientUnits="userSpaceOnUse">
<stop stop-color="#767676" stop-opacity="0.25"/>
<stop offset="1" stop-color="#767676" stop-opacity="0.65"/>
</linearGradient>
</defs>
</svg>
