<svg width="32" height="32" viewBox="0 0 32 32" fill="none" xmlns="http://www.w3.org/2000/svg">
<path d="M24.4001 9.91623C24.2828 10.4772 24.1431 11.1467 24.0005 11.8227C23.2714 15.2627 22.5418 18.7024 21.8118 22.1418C21.8031 22.1816 21.7987 22.2222 21.7893 22.2613C21.781 22.4248 21.7249 22.5823 21.628 22.7142C21.531 22.8461 21.3975 22.9468 21.2439 23.0035C21.0904 23.0603 20.9235 23.0708 20.7641 23.0337C20.6046 22.9966 20.4595 22.9135 20.3468 22.7948C19.5672 22.2324 18.7979 21.6547 18.0249 21.0829C17.6174 20.7825 17.2034 20.4909 16.8075 20.176C16.5904 20.006 16.4557 20.0364 16.2719 20.2246C15.7558 20.7536 15.2209 21.2646 14.6933 21.7814C14.5886 21.9125 14.4544 22.0168 14.3017 22.086C14.149 22.1552 13.9821 22.1872 13.8146 22.1795C13.7232 22.1774 13.6351 22.1455 13.5637 22.0885C13.4923 22.0314 13.4416 21.9526 13.4194 21.864C12.9591 20.4164 12.4835 18.9775 12.0333 17.5291C12.0036 17.4044 11.9392 17.2905 11.8475 17.2008C11.7558 17.1112 11.6405 17.0493 11.5151 17.0224C10.3997 16.6931 9.29081 16.3421 8.18558 15.9875C7.93008 15.9057 7.62545 15.8282 7.60156 15.4931C7.57768 15.158 7.8505 15.0212 8.09369 14.9032C8.79577 14.563 9.54128 14.3191 10.2651 14.0383C14.5963 12.3649 18.9287 10.6939 23.2623 9.02527C23.9187 8.76833 24.403 9.10341 24.4001 9.91623ZM13.9108 21.067C13.9774 20.3432 14.026 19.6484 14.1121 18.9572C14.1512 18.6431 14.0846 18.3058 14.3878 18.0387C16.1496 16.4738 17.8946 14.8902 19.6447 13.3116C20.1929 12.8175 20.7396 12.3214 21.2848 11.8234C21.3659 11.7511 21.5172 11.6721 21.4202 11.5339C21.3391 11.4159 21.1973 11.4616 21.0843 11.5021C20.9617 11.5481 20.8439 11.6061 20.7326 11.6751C18.071 13.3519 15.409 15.028 12.7469 16.7033C12.6993 16.7238 12.6566 16.7539 12.6213 16.7919C12.586 16.8299 12.559 16.8748 12.5421 16.9237C12.5252 16.9727 12.5188 17.0248 12.5231 17.0764C12.5275 17.1281 12.5426 17.1782 12.5675 17.2237C12.9663 18.4122 13.3484 19.6057 13.7407 20.7963C13.7704 20.881 13.7682 20.9946 13.9108 21.067Z" fill="#5E6773"/>
</svg>
