<svg width="24" height="24" viewBox="0 0 24 24" fill="none" xmlns="http://www.w3.org/2000/svg">
<path d="M22.5 4.39554C22.3534 5.09671 22.1788 5.93363 22.0006 6.77866C21.0892 11.0786 20.1772 15.3782 19.2646 19.6775C19.2537 19.7273 19.2483 19.778 19.2365 19.8269C19.2261 20.0312 19.156 20.2281 19.0349 20.393C18.9137 20.5579 18.7467 20.6837 18.5548 20.7547C18.3628 20.8257 18.1543 20.8387 17.955 20.7923C17.7556 20.7459 17.5742 20.6421 17.4333 20.4937C16.4589 19.7907 15.4973 19.0686 14.531 18.3539C14.0217 17.9784 13.5041 17.6139 13.0092 17.2203C12.7378 17.0077 12.5695 17.0457 12.3397 17.2809C11.6947 17.9423 11.026 18.5811 10.3665 19.227C10.2357 19.3908 10.0679 19.5212 9.87699 19.6077C9.68608 19.6942 9.47749 19.7343 9.26813 19.7246C9.15394 19.7221 9.04372 19.6821 8.95447 19.6108C8.86522 19.5396 8.80185 19.441 8.77412 19.3302C8.1987 17.5207 7.60425 15.7221 7.0415 13.9117C7.00438 13.7557 6.92389 13.6134 6.80924 13.5013C6.69459 13.3892 6.55053 13.3119 6.39376 13.2783C4.99955 12.8666 3.61339 12.4279 2.23185 11.9846C1.91248 11.8823 1.53169 11.7855 1.50183 11.3666C1.47197 10.9478 1.813 10.7767 2.11699 10.6292C2.99459 10.204 3.92648 9.89915 4.83122 9.54811C10.2452 7.45634 15.6607 5.36757 21.0777 3.28184C21.8983 2.96065 22.5036 3.37951 22.5 4.39554ZM9.3884 18.334C9.47163 17.4293 9.53232 16.5608 9.63998 15.6968C9.68884 15.3041 9.60559 14.8824 9.98467 14.5486C12.1868 12.5925 14.3681 10.613 16.5558 8.63972C17.241 8.02208 17.9243 7.402 18.6059 6.77954C18.7072 6.68907 18.8963 6.59043 18.7751 6.41762C18.6738 6.27015 18.4965 6.3272 18.3553 6.37786C18.202 6.43541 18.0548 6.50785 17.9156 6.59411C14.5886 8.69009 11.2612 10.7852 7.93354 12.8794C7.87402 12.9049 7.82059 12.9427 7.77649 12.9901C7.7324 13.0376 7.69866 13.0937 7.67754 13.1549C7.65641 13.2162 7.64834 13.2812 7.65379 13.3458C7.65925 13.4103 7.67813 13.473 7.70923 13.5299C8.20775 15.0155 8.68543 16.5073 9.1758 17.9956C9.21289 18.1015 9.21016 18.2435 9.3884 18.334Z" fill="#5E6773"/>
</svg>
